Titillium Sans Pro-Bold.ufo
<glyph name="exclam" format="2">
	<advance width="264"/>
	<unicode hex="0021"/>
	<outline>
		<contour>
			<point x="60" y="155" type="line"/>
			<point x="60" y="0" type="line"/>
			<point x="204" y="0" type="line"/>
			<point x="204" y="155" type="line"/>
		</contour>
		<contour>
			<point x="59" y="700" type="line"/>
			<point x="73" y="260" type="line"/>
			<point x="191" y="260" type="line"/>
			<point x="205" y="700" type="line"/>
		</contour>
	</outline>
</glyph>
<glyph name="numbersign" format="2">
	<advance width="624"/>
	<unicode hex="0023"/>
	<outline>
		<contour>
			<point x="480" y="149" type="line"/>
			<point x="576" y="149" type="line"/>
			<point x="576" y="261" type="line"/>
			<point x="480" y="261" type="line"/>
			<point x="480" y="387" type="line"/>
			<point x="576" y="387" type="line"/>
			<point x="576" y="499" type="line"/>
			<point x="480" y="499" type="line"/>
			<point x="480" y="660" type="line"/>
			<point x="364" y="660" type="line"/>
			<point x="364" y="499" type="line"/>
			<point x="260" y="499" type="line"/>
			<point x="260" y="660" type="line"/>
			<point x="144" y="660" type="line"/>
			<point x="144" y="499" type="line"/>
			<point x="48" y="499" type="line"/>
			<point x="48" y="387" type="line"/>
			<point x="144" y="387" type="line"/>
			<point x="144" y="261" type="line"/>
			<point x="48" y="261" type="line"/>
			<point x="48" y="149" type="line"/>
			<point x="144" y="149" type="line"/>
			<point x="144" y="0" type="line"/>
			<point x="260" y="0" type="line"/>
			<point x="260" y="149" type="line"/>
			<point x="364" y="149" type="line"/>
			<point x="364" y="0" type="line"/>
			<point x="480" y="0" type="line"/>
		</contour>
		<contour>
			<point x="368" y="391" type="line"/>
			<point x="368" y="257" type="line"/>
			<point x="256" y="257" type="line"/>
			<point x="256" y="391" type="line"/>
		</contour>
	</outline>
</glyph>
<glyph name="dollar" format="2">
	<advance width="506"/>
	<unicode hex="0024"/>
	<outline>
		<contour>
			<point x="447" y="532" type="curve"/>
			<point x="458" y="634" type="line"/>
			<point x="458" y="634"/>
			<point x="397" y="646"/>
			<point x="332" y="653" type="curve"/>
			<point x="353" y="810" type="line"/>
			<point x="279" y="810" type="line"/>
			<point x="261" y="659" type="line"/>
			<point x="257" y="659"/>
			<point x="252" y="659"/>
			<point x="248" y="659" type="curve" smooth="yes"/>
			<point x="119" y="659"/>
			<point x="32" y="602"/>
			<point x="32" y="470" type="curve" smooth="yes"/>
			<point x="32" y="372"/>
			<point x="77" y="322"/>
			<point x="209" y="283" type="curve"/>
			<point x="188" y="116" type="line"/>
			<point x="123" y="120"/>
			<point x="52" y="130"/>
			<point x="52" y="130" type="curve"/>
			<point x="40" y="30" type="line"/>
			<point x="40" y="30"/>
			<point x="108" y="14"/>
			<point x="178" y="6" type="curve"/>
			<point x="161" y="-126" type="line"/>
			<point x="235" y="-126" type="line"/>
			<point x="250" y="1" type="line"/>
			<point x="251" y="1"/>
			<point x="251" y="1"/>
			<point x="252" y="1" type="curve" smooth="yes"/>
			<point x="376" y="1"/>
			<point x="470" y="66"/>
			<point x="470" y="204" type="curve" smooth="yes"/>
			<point x="470" y="308"/>
			<point x="425" y="346"/>
			<point x="293" y="389" type="curve"/>
			<point x="313" y="543" type="line"/>
			<point x="372" y="540"/>
			<point x="447" y="532"/>
		</contour>
		<contour>
			<point x="160" y="479" type="curve" smooth="yes"/>
			<point x="160" y="516"/>
			<point x="182" y="545"/>
			<point x="237" y="545" type="curve" smooth="yes"/>
			<point x="240" y="545"/>
			<point x="239" y="545"/>
			<point x="241" y="545" type="curve"/>
			<point x="225" y="412" type="line"/>
			<point x="169" y="433"/>
			<point x="160" y="448"/>
		</contour>
		<contour>
			<point x="342" y="195" type="curve" smooth="yes"/>
			<point x="342" y="152"/>
			<point x="314" y="115"/>
			<point x="265" y="115" type="curve" smooth="yes"/>
			<point x="263" y="115"/>
			<point x="261" y="115"/>
			<point x="260" y="115" type="curve"/>
			<point x="278" y="262" type="line"/>
			<point x="324" y="243"/>
			<point x="342" y="225"/>
		</contour>
	</outline>
</glyph>
<glyph name="ampersand" format="2">
	<advance width="690"/>
	<unicode hex="0026"/>
	<outline>
		<contour>
			<point x="314" y="710" type="curve" smooth="yes"/>
			<point x="191" y="710"/>
			<point x="109" y="653"/>
			<point x="109" y="559" type="curve" smooth="yes"/>
			<point x="109" y="492"/>
			<point x="120" y="464"/>
			<point x="175" y="401" type="curve"/>
			<point x="79" y="363"/>
			<point x="33" y="309"/>
			<point x="33" y="198" type="curve" smooth="yes"/>
			<point x="33" y="68"/>
			<point x="98" y="-10"/>
			<point x="302" y="-10" type="curve" smooth="yes"/>
			<point x="387" y="-10"/>
			<point x="463" y="28"/>
			<point x="507" y="77" type="curve"/>
			<point x="613" y="-10" type="line"/>
			<point x="689" y="77" type="line"/>
			<point x="577" y="175" type="line"/>
			<point x="597" y="223"/>
			<point x="619" y="307"/>
			<point x="628" y="378" type="curve"/>
			<point x="498" y="381" type="line"/>
			<point x="497" y="346"/>
			<point x="487" y="274"/>
			<point x="479" y="253" type="curve"/>
			<point x="381" y="351" type="line"/>
			<point x="479" y="415"/>
			<point x="518" y="458"/>
			<point x="518" y="548" type="curve" smooth="yes"/>
			<point x="518" y="653"/>
			<point x="445" y="710"/>
		</contour>
		<contour>
			<point x="285" y="110" type="curve" smooth="yes"/>
			<point x="206" y="110"/>
			<point x="169" y="143"/>
			<point x="169" y="209" type="curve" smooth="yes"/>
			<point x="169" y="264"/>
			<point x="196" y="300"/>
			<point x="243" y="323" type="curve"/>
			<point x="416" y="150" type="line"/>
			<point x="395" y="126"/>
			<point x="337" y="110"/>
		</contour>
		<contour>
			<point x="245" y="529" type="curve" smooth="yes"/>
			<point x="245" y="576"/>
			<point x="272" y="596"/>
			<point x="314" y="596" type="curve" smooth="yes"/>
			<point x="358" y="596"/>
			<point x="382" y="579"/>
			<point x="382" y="533" type="curve" smooth="yes"/>
			<point x="382" y="487"/>
			<point x="359" y="461"/>
			<point x="307" y="423" type="curve"/>
			<point x="290" y="441" type="line" smooth="yes"/>
			<point x="260" y="473"/>
			<point x="245" y="497"/>
		</contour>
	</outline>
</glyph>
<glyph name="quotesingle" format="2">
  <advance width="230"/>
  <unicode hex="0027"/>
  <outline>
    <contour>
      <point x="49" y="730" type="line"/>
      <point x="56" y="480" type="line"/>
      <point x="174" y="480" type="line"/>
      <point x="181" y="730" type="line"/>
    </contour>
  </outline>
</glyph>
<glyph name="parenleft" format="2">
	<advance width="302"/>
	<unicode hex="0028"/>
	<outline>
		<contour>
			<point x="274" y="750" type="curve"/>
			<point x="157" y="750" type="line"/>
			<point x="157" y="750"/>
			<point x="41" y="540"/>
			<point x="41" y="301" type="curve" smooth="yes"/>
			<point x="41" y="62"/>
			<point x="157" y="-125"/>
			<point x="157" y="-125" type="curve"/>
			<point x="274" y="-125" type="line"/>
			<point x="274" y="-125"/>
			<point x="179" y="102"/>
			<point x="179" y="301" type="curve" smooth="yes"/>
			<point x="179" y="500"/>
			<point x="274" y="750"/>
		</contour>
	</outline>
</glyph>
<glyph name="asterisk" format="2">
	<advance width="432"/>
	<unicode hex="002A"/>
	<outline>
		<contour>
			<point x="272" y="489" type="line"/>
			<point x="395" y="489" type="line"/>
			<point x="395" y="563" type="line"/>
			<point x="272" y="563" type="line"/>
			<point x="310" y="685" type="line"/>
			<point x="235" y="710" type="line"/>
			<point x="196" y="589" type="line"/>
			<point x="95" y="662" type="line"/>
			<point x="49" y="599" type="line"/>
			<point x="151" y="526" type="line"/>
			<point x="46" y="448" type="line"/>
			<point x="93" y="389" type="line"/>
			<point x="196" y="468" type="line"/>
			<point x="237" y="347" type="line"/>
			<point x="310" y="369" type="line"/>
		</contour>
	</outline>
</glyph>
<glyph name="plus" format="2">
  <advance width="560"/>
  <unicode hex="002B"/>
  <outline>
    <contour>
      <point x="50" y="335" type="line"/>
      <point x="50" y="219" type="line"/>
      <point x="220" y="219" type="line"/>
      <point x="220" y="39" type="line"/>
      <point x="340" y="39" type="line"/>
      <point x="340" y="219" type="line"/>
      <point x="510" y="219" type="line"/>
      <point x="510" y="335" type="line"/>
      <point x="340" y="335" type="line"/>
      <point x="340" y="515" type="line"/>
      <point x="220" y="515" type="line"/>
      <point x="220" y="335" type="line"/>
    </contour>
  </outline>
</glyph>
<glyph name="comma" format="2">
  <advance width="256"/>
  <unicode hex="002C"/>
  <outline>
    <contour>
      <point x="68" y="165" type="line"/>
      <point x="18" y="-123" type="line"/>
      <point x="126" y="-123" type="line"/>
      <point x="216" y="165" type="line"/>
    </contour>
  </outline>
</glyph>
<glyph name="hyphen" format="2">
  <advance width="414"/>
  <unicode hex="002D"/>
  <outline>
    <contour>
      <point x="47" y="337" type="line"/>
      <point x="47" y="217" type="line"/>
      <point x="367" y="217" type="line"/>
      <point x="367" y="337" type="line"/>
    </contour>
  </outline>
</glyph>
<glyph name="slash" format="2">
  <advance width="434"/>
  <unicode hex="002F"/>
  <outline>
    <contour>
      <point x="307" y="718" type="line"/>
      <point x="11" y="8" type="line"/>
      <point x="127" y="-40" type="line"/>
      <point x="423" y="670" type="line"/>
    </contour>
  </outline>
</glyph>
<glyph name="zero" format="2">
  <advance width="610"/>
  <unicode hex="0030"/>
  <note>
zero
</note>
  <outline>
    <contour>
      <point x="305" y="682" type="curve" smooth="yes"/>
      <point x="141" y="682"/>
      <point x="49" y="586"/>
      <point x="49" y="326" type="curve" smooth="yes"/>
      <point x="49" y="74"/>
      <point x="141" y="-14"/>
      <point x="305" y="-14" type="curve" smooth="yes"/>
      <point x="469" y="-14"/>
      <point x="561" y="74"/>
      <point x="561" y="326" type="curve" smooth="yes"/>
      <point x="561" y="586"/>
      <point x="469" y="682"/>
    </contour>
    <contour>
      <point x="306" y="562" type="curve" smooth="yes"/>
      <point x="386" y="562"/>
      <point x="421" y="508"/>
      <point x="421" y="326" type="curve" smooth="yes"/>
      <point x="421" y="162"/>
      <point x="386" y="106"/>
      <point x="306" y="106" type="curve" smooth="yes"/>
      <point x="226" y="106"/>
      <point x="189" y="162"/>
      <point x="189" y="326" type="curve" smooth="yes"/>
      <point x="189" y="508"/>
      <point x="226" y="562"/>
    </contour>
  </outline>
</glyph>
<glyph name="one" format="2">
  <advance width="426"/>
  <unicode hex="0031"/>
  <note>
one
</note>
  <outline>
    <contour>
      <point x="226" y="670" type="line"/>
      <point x="8" y="525" type="line"/>
      <point x="71" y="422" type="line"/>
      <point x="216" y="514" type="line"/>
      <point x="216" y="0" type="line"/>
      <point x="352" y="0" type="line"/>
      <point x="352" y="670" type="line"/>
    </contour>
  </outline>
</glyph>
<glyph name="two" format="2">
	<advance width="516"/>
	<unicode hex="0032"/>
	<note>
		two
	</note>
	<outline>
		<contour>
			<point x="44" y="0" type="line"/>
			<point x="472" y="0" type="line"/>
			<point x="472" y="120" type="line"/>
			<point x="198" y="120" type="line"/>
			<point x="313" y="234" type="line" smooth="yes"/>
			<point x="418" y="338"/>
			<point x="461" y="393"/>
			<point x="461" y="492" type="curve" smooth="yes"/>
			<point x="461" y="618"/>
			<point x="397" y="682"/>
			<point x="246" y="682" type="curve" smooth="yes"/>
			<point x="146" y="682"/>
			<point x="48" y="652"/>
			<point x="48" y="652" type="curve"/>
			<point x="55" y="545" type="line"/>
			<point x="55" y="545"/>
			<point x="143" y="560"/>
			<point x="211" y="560" type="curve" smooth="yes"/>
			<point x="288" y="560"/>
			<point x="319" y="540"/>
			<point x="319" y="482" type="curve" smooth="yes"/>
			<point x="319" y="409"/>
			<point x="268" y="360"/>
			<point x="185" y="270" type="curve" smooth="yes"/>
			<point x="44" y="117" type="line"/>
		</contour>
	</outline>
</glyph>
<glyph name="three" format="2">
	<advance width="532"/>
	<unicode hex="0033"/>
	<note>
		three
	</note>
	<outline>
		<contour>
			<point x="48" y="646" type="curve"/>
			<point x="57" y="544" type="line"/>
			<point x="57" y="544"/>
			<point x="152" y="562"/>
			<point x="219" y="562" type="curve" smooth="yes"/>
			<point x="298" y="562"/>
			<point x="329" y="534"/>
			<point x="329" y="477" type="curve" smooth="yes"/>
			<point x="329" y="427"/>
			<point x="300" y="396"/>
			<point x="245" y="396" type="curve" smooth="yes"/>
			<point x="112" y="396" type="line"/>
			<point x="112" y="282" type="line"/>
			<point x="245" y="282" type="line" smooth="yes"/>
			<point x="312" y="282"/>
			<point x="341" y="253"/>
			<point x="341" y="194" type="curve" smooth="yes"/>
			<point x="341" y="134"/>
			<point x="310" y="106"/>
			<point x="231" y="106" type="curve" smooth="yes"/>
			<point x="166" y="106"/>
			<point x="50" y="123"/>
			<point x="50" y="123" type="curve"/>
			<point x="43" y="18" type="line"/>
			<point x="43" y="18"/>
			<point x="160" y="-14"/>
			<point x="258" y="-14" type="curve" smooth="yes"/>
			<point x="419" y="-14"/>
			<point x="483" y="66"/>
			<point x="483" y="195" type="curve" smooth="yes"/>
			<point x="483" y="293"/>
			<point x="449" y="317"/>
			<point x="394" y="347" type="curve"/>
			<point x="442" y="379"/>
			<point x="471" y="423"/>
			<point x="471" y="502" type="curve" smooth="yes"/>
			<point x="471" y="623"/>
			<point x="410" y="682"/>
			<point x="256" y="682" type="curve" smooth="yes"/>
			<point x="136" y="682"/>
			<point x="48" y="646"/>
		</contour>
	</outline>
</glyph>
<glyph name="four" format="2">
	<advance width="548"/>
	<unicode hex="0034"/>
	<note>
		four
	</note>
	<outline>
		<contour>
			<point x="319" y="109" type="line"/>
			<point x="319" y="0" type="line"/>
			<point x="457" y="0" type="line"/>
			<point x="457" y="109" type="line"/>
			<point x="520" y="109" type="line"/>
			<point x="520" y="229" type="line"/>
			<point x="457" y="229" type="line"/>
			<point x="457" y="414" type="line"/>
			<point x="319" y="414" type="line"/>
			<point x="319" y="229" type="line"/>
			<point x="177" y="229" type="line"/>
			<point x="354" y="670" type="line"/>
			<point x="202" y="670" type="line"/>
			<point x="39" y="214" type="line"/>
			<point x="39" y="109" type="line"/>
		</contour>
	</outline>
</glyph>
<glyph name="five" format="2">
  <advance width="547"/>
  <unicode hex="0035"/>
  <note>
five
</note>
  <outline>
    <contour>
      <point x="482" y="670" type="line"/>
      <point x="79" y="670" type="line"/>
      <point x="61" y="308" type="line"/>
      <point x="143" y="289" type="line"/>
      <point x="143" y="289"/>
      <point x="198" y="306"/>
      <point x="257" y="306" type="curve" smooth="yes"/>
      <point x="331" y="306"/>
      <point x="360" y="279"/>
      <point x="360" y="215" type="curve" smooth="yes"/>
      <point x="360" y="140"/>
      <point x="324" y="106"/>
      <point x="240" y="106" type="curve" smooth="yes"/>
      <point x="178" y="106"/>
      <point x="57" y="123"/>
      <point x="57" y="123" type="curve"/>
      <point x="42" y="21" type="line"/>
      <point x="42" y="21"/>
      <point x="176" y="-14"/>
      <point x="274" y="-14" type="curve" smooth="yes"/>
      <point x="423" y="-14"/>
      <point x="502" y="69"/>
      <point x="502" y="216" type="curve" smooth="yes"/>
      <point x="502" y="366"/>
      <point x="413" y="426"/>
      <point x="296" y="426" type="curve" smooth="yes"/>
      <point x="222" y="426"/>
      <point x="170" y="402"/>
      <point x="170" y="402" type="curve"/>
      <point x="187" y="550" type="line"/>
      <point x="482" y="550" type="line"/>
    </contour>
  </outline>
</glyph>
<glyph name="six" format="2">
	<advance width="584"/>
	<unicode hex="0036"/>
	<note>
		six
	</note>
	<outline>
		<contour>
			<point x="509" y="547" type="curve"/>
			<point x="521" y="653" type="line"/>
			<point x="521" y="653"/>
			<point x="411" y="682"/>
			<point x="320" y="682" type="curve" smooth="yes"/>
			<point x="158" y="682"/>
			<point x="48" y="589"/>
			<point x="48" y="327" type="curve" smooth="yes"/>
			<point x="48" y="117"/>
			<point x="122" y="-14"/>
			<point x="308" y="-14" type="curve" smooth="yes"/>
			<point x="447" y="-14"/>
			<point x="543" y="60"/>
			<point x="543" y="215" type="curve" smooth="yes"/>
			<point x="543" y="358"/>
			<point x="455" y="422"/>
			<point x="334" y="422" type="curve" smooth="yes"/>
			<point x="258" y="422"/>
			<point x="190" y="396"/>
			<point x="190" y="397" type="curve" smooth="yes"/>
			<point x="190" y="498"/>
			<point x="216" y="562"/>
			<point x="334" y="562" type="curve" smooth="yes"/>
			<point x="391" y="562"/>
			<point x="509" y="547"/>
		</contour>
		<contour>
			<point x="302" y="303" type="curve" smooth="yes"/>
			<point x="366" y="303"/>
			<point x="401" y="271"/>
			<point x="401" y="208" type="curve" smooth="yes"/>
			<point x="401" y="145"/>
			<point x="365" y="106"/>
			<point x="305" y="106" type="curve" smooth="yes"/>
			<point x="217" y="106"/>
			<point x="189" y="185"/>
			<point x="189" y="281" type="curve"/>
			<point x="189" y="281"/>
			<point x="250" y="303"/>
		</contour>
	</outline>
</glyph>
<glyph name="seven" format="2">
  <advance width="484"/>
  <unicode hex="0037"/>
  <note>
seven
</note>
  <outline>
    <contour>
      <point x="28" y="670" type="line"/>
      <point x="28" y="547" type="line"/>
      <point x="312" y="547" type="line"/>
      <point x="312" y="522" type="line"/>
      <point x="91" y="32" type="line"/>
      <point x="213" y="-16" type="line"/>
      <point x="450" y="521" type="line"/>
      <point x="450" y="670" type="line"/>
    </contour>
  </outline>
</glyph>
<glyph name="eight" format="2">
  <advance width="590"/>
  <unicode hex="0038"/>
  <note>
eight
</note>
  <outline>
    <contour>
      <point x="194" y="192" type="curve" smooth="yes"/>
      <point x="194" y="239"/>
      <point x="213" y="267"/>
      <point x="254" y="282" type="curve"/>
      <point x="336" y="282" type="line"/>
      <point x="377" y="267"/>
      <point x="396" y="239"/>
      <point x="396" y="192" type="curve" smooth="yes"/>
      <point x="396" y="142"/>
      <point x="363" y="110"/>
      <point x="295" y="110" type="curve" smooth="yes"/>
      <point x="227" y="110"/>
      <point x="194" y="142"/>
    </contour>
    <contour>
      <point x="48" y="185" type="curve" smooth="yes"/>
      <point x="48" y="69"/>
      <point x="130" y="-14"/>
      <point x="295" y="-14" type="curve" smooth="yes"/>
      <point x="460" y="-14"/>
      <point x="542" y="69"/>
      <point x="542" y="185" type="curve" smooth="yes"/>
      <point x="542" y="261"/>
      <point x="511" y="303"/>
      <point x="455" y="339" type="curve"/>
      <point x="504" y="381"/>
      <point x="531" y="421"/>
      <point x="531" y="485" type="curve" smooth="yes"/>
      <point x="531" y="603"/>
      <point x="447" y="682"/>
      <point x="295" y="682" type="curve" smooth="yes"/>
      <point x="143" y="682"/>
      <point x="59" y="603"/>
      <point x="59" y="485" type="curve" smooth="yes"/>
      <point x="59" y="421"/>
      <point x="86" y="381"/>
      <point x="135" y="339" type="curve"/>
      <point x="79" y="303"/>
      <point x="48" y="261"/>
    </contour>
    <contour>
      <point x="295" y="558" type="curve" smooth="yes"/>
      <point x="357" y="558"/>
      <point x="387" y="524"/>
      <point x="387" y="470" type="curve" smooth="yes"/>
      <point x="387" y="432"/>
      <point x="368" y="411"/>
      <point x="336" y="395" type="curve"/>
      <point x="254" y="395" type="line"/>
      <point x="222" y="411"/>
      <point x="203" y="432"/>
      <point x="203" y="470" type="curve" smooth="yes"/>
      <point x="203" y="524"/>
      <point x="233" y="558"/>
    </contour>
  </outline>
</glyph>
<glyph name="nine" format="2">
	<advance width="583"/>
	<unicode hex="0039"/>
	<note>
		nine
	</note>
	<outline>
		<contour>
			<point x="74" y="121" type="curve"/>
			<point x="62" y="15" type="line"/>
			<point x="62" y="15"/>
			<point x="171" y="-14"/>
			<point x="264" y="-14" type="curve" smooth="yes"/>
			<point x="424" y="-14"/>
			<point x="535" y="80"/>
			<point x="535" y="346" type="curve" smooth="yes"/>
			<point x="535" y="555"/>
			<point x="456" y="682"/>
			<point x="282" y="682" type="curve" smooth="yes"/>
			<point x="133" y="682"/>
			<point x="40" y="602"/>
			<point x="40" y="457" type="curve" smooth="yes"/>
			<point x="40" y="322"/>
			<point x="134" y="252"/>
			<point x="249" y="252" type="curve" smooth="yes"/>
			<point x="325" y="252"/>
			<point x="393" y="283"/>
			<point x="393" y="282" type="curve" smooth="yes"/>
			<point x="393" y="177"/>
			<point x="361" y="106"/>
			<point x="243" y="106" type="curve" smooth="yes"/>
			<point x="186" y="106"/>
			<point x="74" y="121"/>
		</contour>
		<contour>
			<point x="279" y="372" type="curve" smooth="yes"/>
			<point x="218" y="372"/>
			<point x="182" y="401"/>
			<point x="182" y="462" type="curve" smooth="yes"/>
			<point x="182" y="524"/>
			<point x="218" y="562"/>
			<point x="282" y="562" type="curve" smooth="yes"/>
			<point x="366" y="562"/>
			<point x="394" y="488"/>
			<point x="394" y="395" type="curve"/>
			<point x="394" y="395"/>
			<point x="333" y="372"/>
		</contour>
	</outline>
</glyph>
<glyph name="equal" format="2">
  <advance width="560"/>
  <unicode hex="003D"/>
  <outline>
    <contour>
      <point x="60" y="319" type="line"/>
      <point x="500" y="319" type="line"/>
      <point x="500" y="435" type="line"/>
      <point x="60" y="435" type="line"/>
    </contour>
    <contour>
      <point x="60" y="119" type="line"/>
      <point x="500" y="119" type="line"/>
      <point x="500" y="235" type="line"/>
      <point x="60" y="235" type="line"/>
    </contour>
  </outline>
</glyph>
<glyph name="greater" format="2">
  <advance width="560"/>
  <unicode hex="003E"/>
  <outline>
    <contour>
      <point x="350" y="277" type="line"/>
      <point x="70" y="153" type="line"/>
      <point x="70" y="22" type="line"/>
      <point x="496" y="226" type="line"/>
      <point x="496" y="328" type="line"/>
      <point x="70" y="532" type="line"/>
      <point x="70" y="401" type="line"/>
    </contour>
  </outline>
</glyph>
<glyph name="question" format="2">
	<advance width="426"/>
	<unicode hex="003F"/>
	<outline>
		<contour>
			<point x="400" y="530" type="curve" smooth="yes"/>
			<point x="400" y="675"/>
			<point x="318" y="710"/>
			<point x="204" y="710" type="curve" smooth="yes"/>
			<point x="90" y="710"/>
			<point x="24" y="675"/>
			<point x="24" y="675" type="curve"/>
			<point x="31" y="574" type="line"/>
			<point x="31" y="574"/>
			<point x="106" y="592"/>
			<point x="171" y="592" type="curve" smooth="yes"/>
			<point x="240" y="592"/>
			<point x="260" y="572"/>
			<point x="260" y="531" type="curve" smooth="yes"/>
			<point x="260" y="501"/>
			<point x="250" y="478"/>
			<point x="176" y="420" type="curve" smooth="yes"/>
			<point x="122" y="378"/>
			<point x="104" y="349"/>
			<point x="104" y="315" type="curve" smooth="yes"/>
			<point x="104" y="276"/>
			<point x="130" y="235"/>
			<point x="130" y="235" type="curve"/>
			<point x="242" y="235" type="line"/>
			<point x="242" y="266" type="line" smooth="yes"/>
			<point x="242" y="294"/>
			<point x="246" y="313"/>
			<point x="317" y="367" type="curve" smooth="yes"/>
			<point x="386" y="419"/>
			<point x="400" y="469"/>
		</contour>
		<contour>
			<point x="113" y="155" type="line"/>
			<point x="113" y="0" type="line"/>
			<point x="257" y="0" type="line"/>
			<point x="257" y="155" type="line"/>
		</contour>
	</outline>
</glyph>
<glyph name="at" format="2">
  <advance width="987"/>
  <unicode hex="0040"/>
  <outline>
    <contour>
      <point x="945" y="297" type="curve" smooth="yes"/>
      <point x="945" y="305" type="line" smooth="yes"/>
      <point x="945" y="579"/>
      <point x="799" y="729"/>
      <point x="504" y="729" type="curve" smooth="yes"/>
      <point x="228" y="729"/>
      <point x="39" y="579"/>
      <point x="39" y="261" type="curve" smooth="yes"/>
      <point x="39" y="-100"/>
      <point x="208" y="-209"/>
      <point x="504" y="-209" type="curve" smooth="yes"/>
      <point x="562" y="-209"/>
      <point x="652" y="-199"/>
      <point x="652" y="-199" type="curve"/>
      <point x="647" y="-82" type="line"/>
      <point x="647" y="-82"/>
      <point x="554" y="-91"/>
      <point x="504" y="-91" type="curve" smooth="yes"/>
      <point x="262" y="-91"/>
      <point x="173" y="19"/>
      <point x="173" y="261" type="curve" smooth="yes"/>
      <point x="173" y="480"/>
      <point x="287" y="611"/>
      <point x="504" y="611" type="curve" smooth="yes"/>
      <point x="716" y="611"/>
      <point x="811" y="520"/>
      <point x="811" y="306" type="curve" smooth="yes"/>
      <point x="811" y="297" type="line" smooth="yes"/>
      <point x="811" y="148"/>
      <point x="790" y="112"/>
      <point x="750" y="112" type="curve" smooth="yes"/>
      <point x="705" y="112"/>
      <point x="700" y="127"/>
      <point x="700" y="309" type="curve" smooth="yes"/>
      <point x="700" y="488" type="line"/>
      <point x="566" y="488" type="line"/>
      <point x="566" y="475" type="line"/>
      <point x="566" y="475"/>
      <point x="512" y="500"/>
      <point x="475" y="500" type="curve" smooth="yes"/>
      <point x="331" y="500"/>
      <point x="284" y="413"/>
      <point x="284" y="251" type="curve" smooth="yes"/>
      <point x="284" y="68"/>
      <point x="349" y="0"/>
      <point x="471" y="0" type="curve" smooth="yes"/>
      <point x="539" y="0"/>
      <point x="619" y="56"/>
      <point x="619" y="56" type="curve"/>
      <point x="619" y="56"/>
      <point x="648" y="0"/>
      <point x="752" y="0" type="curve" smooth="yes"/>
      <point x="877" y="0"/>
      <point x="945" y="88"/>
    </contour>
    <contour>
      <point x="482" y="118" type="curve" smooth="yes"/>
      <point x="439" y="118"/>
      <point x="420" y="162"/>
      <point x="420" y="251" type="curve" smooth="yes"/>
      <point x="420" y="343"/>
      <point x="433" y="382"/>
      <point x="505" y="382" type="curve" smooth="yes"/>
      <point x="524" y="382"/>
      <point x="566" y="372"/>
      <point x="566" y="372" type="curve"/>
      <point x="566" y="249" type="line" smooth="yes"/>
      <point x="566" y="211"/>
      <point x="567" y="173"/>
      <point x="572" y="143" type="curve"/>
      <point x="549" y="132"/>
      <point x="512" y="118"/>
    </contour>
  </outline>
</glyph>
<glyph name="A" format="2">
	<advance width="613"/>
	<unicode hex="0041"/>
	<anchor x="307" y="0" name="bottom"/>
	<anchor x="595" y="0" name="ogonek"/>
	<anchor x="307" y="710" name="top"/>
	<note>
		A
	</note>
	<outline>
		<contour>
			<point x="322" y="596" type="line"/>
			<point x="395" y="278" type="line"/>
			<point x="218" y="278" type="line"/>
			<point x="292" y="596" type="line"/>
		</contour>
		<contour>
			<point x="18" y="0" type="line"/>
			<point x="156" y="0" type="line"/>
			<point x="190" y="158" type="line"/>
			<point x="423" y="158" type="line"/>
			<point x="457" y="0" type="line"/>
			<point x="595" y="0" type="line"/>
			<point x="428" y="710" type="line"/>
			<point x="186" y="710" type="line"/>
		</contour>
	</outline>
</glyph>
<glyph name="B" format="2">
  <advance width="622"/>
  <unicode hex="0042"/>
  <note>
B
</note>
  <anchor x="311" y="0" name="bottom"/>
  <anchor x="311" y="350" name="center"/>
  <anchor x="311" y="710" name="top"/>
  <outline>
    <contour>
      <point x="349" y="710" type="curve" smooth="yes"/>
      <point x="72" y="710" type="line"/>
      <point x="72" y="0" type="line"/>
      <point x="358" y="0" type="line" smooth="yes"/>
      <point x="494" y="0"/>
      <point x="581" y="58"/>
      <point x="581" y="197" type="curve" smooth="yes"/>
      <point x="581" y="298"/>
      <point x="540" y="341"/>
      <point x="476" y="363" type="curve"/>
      <point x="532" y="394"/>
      <point x="561" y="437"/>
      <point x="561" y="520" type="curve" smooth="yes"/>
      <point x="561" y="658"/>
      <point x="486" y="710"/>
    </contour>
    <contour>
      <point x="210" y="300" type="line"/>
      <point x="352" y="300" type="line" smooth="yes"/>
      <point x="407" y="300"/>
      <point x="439" y="276"/>
      <point x="439" y="205" type="curve" smooth="yes"/>
      <point x="439" y="137"/>
      <point x="409" y="118"/>
      <point x="352" y="118" type="curve" smooth="yes"/>
      <point x="210" y="118" type="line"/>
    </contour>
    <contour>
      <point x="210" y="592" type="line"/>
      <point x="342" y="592" type="line" smooth="yes"/>
      <point x="394" y="592"/>
      <point x="421" y="568"/>
      <point x="421" y="505" type="curve" smooth="yes"/>
      <point x="421" y="444"/>
      <point x="396" y="416"/>
      <point x="342" y="416" type="curve" smooth="yes"/>
      <point x="210" y="416" type="line"/>
    </contour>
  </outline>
</glyph>
<glyph name="C" format="2">
  <advance width="545"/>
  <unicode hex="0043"/>
  <note>
C
</note>
  <anchor x="325" y="0" name="bottom"/>
  <anchor x="325" y="710" name="top"/>
  <outline>
    <contour>
      <point x="513" y="9" type="curve"/>
      <point x="510" y="122" type="line"/>
      <point x="470" y="116"/>
      <point x="385" y="108"/>
      <point x="332" y="108" type="curve" smooth="yes"/>
      <point x="214" y="108"/>
      <point x="190" y="159"/>
      <point x="190" y="344" type="curve" smooth="yes"/>
      <point x="190" y="571"/>
      <point x="224" y="604"/>
      <point x="325" y="604" type="curve" smooth="yes"/>
      <point x="374" y="604"/>
      <point x="457" y="596"/>
      <point x="503" y="589" type="curve"/>
      <point x="507" y="699" type="line"/>
      <point x="465" y="709"/>
      <point x="382" y="726"/>
      <point x="302" y="726" type="curve" smooth="yes"/>
      <point x="109" y="726"/>
      <point x="48" y="626"/>
      <point x="48" y="344" type="curve" smooth="yes"/>
      <point x="48" y="94"/>
      <point x="103" y="-14"/>
      <point x="305" y="-14" type="curve" smooth="yes"/>
      <point x="382" y="-14"/>
      <point x="467" y="-1"/>
    </contour>
  </outline>
</glyph>
<glyph name="D" format="2">
  <advance width="641"/>
  <unicode hex="0044"/>
  <note>
D
</note>
  <anchor x="303" y="0" name="bottom"/>
  <anchor x="139" y="354" name="center"/>
  <anchor x="303" y="710" name="top"/>
  <outline>
    <contour>
      <point x="72" y="0" type="line"/>
      <point x="302" y="0" type="line" smooth="yes"/>
      <point x="542" y="0"/>
      <point x="594" y="130"/>
      <point x="594" y="361" type="curve" smooth="yes"/>
      <point x="594" y="618"/>
      <point x="529" y="710"/>
      <point x="296" y="710" type="curve" smooth="yes"/>
      <point x="72" y="710" type="line"/>
    </contour>
    <contour>
      <point x="452" y="361" type="curve" smooth="yes"/>
      <point x="452" y="182"/>
      <point x="415" y="120"/>
      <point x="301" y="120" type="curve" smooth="yes"/>
      <point x="210" y="120" type="line"/>
      <point x="210" y="590" type="line"/>
      <point x="301" y="590" type="line" smooth="yes"/>
      <point x="415" y="590"/>
      <point x="452" y="552"/>
    </contour>
  </outline>
</glyph>
<glyph name="E" format="2">
	<advance width="556"/>
	<unicode hex="0045"/>
	<anchor x="294" y="0" name="bottom"/>
	<anchor x="472" y="0" name="ogonek"/>
	<anchor x="294" y="710" name="top"/>
	<anchor x="20" y="710" name="topleft"/>
	<note>
		E
	</note>
	<outline>
		<contour>
			<point x="72" y="710" type="line"/>
			<point x="72" y="0" type="line"/>
			<point x="512" y="0" type="line"/>
			<point x="512" y="120" type="line"/>
			<point x="210" y="120" type="line"/>
			<point x="210" y="299" type="line"/>
			<point x="452" y="299" type="line"/>
			<point x="452" y="417" type="line"/>
			<point x="210" y="417" type="line"/>
			<point x="210" y="590" type="line"/>
			<point x="512" y="590" type="line"/>
			<point x="512" y="710" type="line"/>
		</contour>
	</outline>
</glyph>
<glyph name="F" format="2">
	<advance width="530"/>
	<unicode hex="0046"/>
	<anchor x="298" y="0" name="bottom"/>
	<anchor x="298" y="710" name="top"/>
	<note>
		F
	</note>
	<outline>
		<contour>
			<point x="72" y="710" type="line"/>
			<point x="72" y="0" type="line"/>
			<point x="210" y="0" type="line"/>
			<point x="210" y="260" type="line"/>
			<point x="452" y="260" type="line"/>
			<point x="452" y="380" type="line"/>
			<point x="210" y="380" type="line"/>
			<point x="210" y="590" type="line"/>
			<point x="506" y="590" type="line"/>
			<point x="506" y="710" type="line"/>
		</contour>
	</outline>
</glyph>
<glyph name="G" format="2">
  <advance width="619"/>
  <unicode hex="0047"/>
  <note>
G
</note>
  <anchor x="348" y="0" name="bottom"/>
  <anchor x="348" y="710" name="top"/>
  <outline>
    <contour>
      <point x="359" y="364" type="line"/>
      <point x="359" y="244" type="line"/>
      <point x="428" y="244" type="line"/>
      <point x="428" y="110" type="line"/>
      <point x="428" y="110"/>
      <point x="383" y="104"/>
      <point x="343" y="104" type="curve" smooth="yes"/>
      <point x="218" y="104"/>
      <point x="189" y="158"/>
      <point x="189" y="346" type="curve" smooth="yes"/>
      <point x="189" y="566"/>
      <point x="216" y="604"/>
      <point x="347" y="604" type="curve" smooth="yes"/>
      <point x="425" y="604"/>
      <point x="555" y="591"/>
      <point x="555" y="591" type="curve"/>
      <point x="559" y="698" type="line"/>
      <point x="559" y="698"/>
      <point x="424" y="726"/>
      <point x="321" y="726" type="curve" smooth="yes"/>
      <point x="118" y="726"/>
      <point x="47" y="620"/>
      <point x="47" y="346" type="curve" smooth="yes"/>
      <point x="47" y="108"/>
      <point x="107" y="-14"/>
      <point x="329" y="-14" type="curve" smooth="yes"/>
      <point x="421" y="-14"/>
      <point x="564" y="9"/>
      <point x="564" y="9" type="curve"/>
      <point x="564" y="364" type="line"/>
    </contour>
  </outline>
</glyph>
<glyph name="H" format="2">
  <advance width="677"/>
  <unicode hex="0048"/>
  <note>
H
</note>
  <anchor x="338" y="0" name="bottom"/>
  <anchor x="339" y="567" name="center"/>
  <anchor x="338" y="710" name="top"/>
  <anchor x="20" y="710" name="topleft"/>
  <outline>
    <contour>
      <point x="467" y="299" type="line"/>
      <point x="467" y="0" type="line"/>
      <point x="605" y="0" type="line"/>
      <point x="605" y="710" type="line"/>
      <point x="467" y="710" type="line"/>
      <point x="467" y="419" type="line"/>
      <point x="210" y="419" type="line"/>
      <point x="210" y="710" type="line"/>
      <point x="72" y="710" type="line"/>
      <point x="72" y="0" type="line"/>
      <point x="210" y="0" type="line"/>
      <point x="210" y="299" type="line"/>
    </contour>
  </outline>
</glyph>
<glyph name="I" format="2">
  <advance width="282"/>
  <unicode hex="0049"/>
  <note>
I
</note>
  <anchor x="140" y="0" name="bottom"/>
  <anchor x="210" y="0" name="ogonek"/>
  <anchor x="140" y="353" name="stroke"/>
  <anchor x="140" y="710" name="top"/>
  <anchor x="20" y="710" name="topleft"/>
  <outline>
    <contour>
      <point x="72" y="710" type="line"/>
      <point x="72" y="0" type="line"/>
      <point x="210" y="0" type="line"/>
      <point x="210" y="710" type="line"/>
    </contour>
  </outline>
</glyph>
<glyph name="J" format="2">
  <advance width="312"/>
  <unicode hex="004A"/>
  <note>
J
</note>
  <anchor x="155" y="0" name="bottom"/>
  <anchor x="171" y="710" name="top"/>
  <outline>
    <contour>
      <point x="243" y="171" type="curve" smooth="yes"/>
      <point x="242" y="710" type="line"/>
      <point x="105" y="710" type="line"/>
      <point x="105" y="177" type="line" smooth="yes"/>
      <point x="105" y="120"/>
      <point x="79" y="106"/>
      <point x="29" y="106" type="curve"/>
      <point x="29" y="-14" type="line"/>
      <point x="179" y="-14"/>
      <point x="243" y="21"/>
    </contour>
  </outline>
</glyph>
<glyph name="K" format="2">
	<advance width="590"/>
	<unicode hex="004B"/>
	<anchor x="304" y="0" name="bottom"/>
	<anchor x="300" y="710" name="top"/>
	<note>
		K
	</note>
	<outline>
		<contour>
			<point x="292" y="287" type="line"/>
			<point x="420" y="0" type="line"/>
			<point x="575" y="0" type="line"/>
			<point x="413" y="355" type="line"/>
			<point x="571" y="710" type="line"/>
			<point x="419" y="710" type="line"/>
			<point x="292" y="407" type="line"/>
			<point x="210" y="397" type="line"/>
			<point x="210" y="710" type="line"/>
			<point x="72" y="710" type="line"/>
			<point x="72" y="0" type="line"/>
			<point x="210" y="0" type="line"/>
			<point x="210" y="277" type="line"/>
		</contour>
	</outline>
</glyph>
<glyph name="L" format="2">
	<advance width="492"/>
	<unicode hex="004C"/>
	<anchor x="272" y="0" name="bottom"/>
	<anchor x="142" y="350" name="center"/>
	<anchor x="144" y="710" name="top"/>
	<anchor x="300" y="710" name="topright"/>
	<note>
		L
	</note>
	<outline>
		<contour>
			<point x="72" y="0" type="line"/>
			<point x="479" y="0" type="line"/>
			<point x="479" y="122" type="line"/>
			<point x="210" y="122" type="line"/>
			<point x="210" y="710" type="line"/>
			<point x="72" y="710" type="line"/>
		</contour>
	</outline>
</glyph>
<glyph name="M" format="2">
  <advance width="854"/>
  <unicode hex="004D"/>
  <note>
M
</note>
  <anchor x="426" y="0" name="bottom"/>
  <anchor x="426" y="710" name="top"/>
  <outline>
    <contour>
      <point x="72" y="710" type="line"/>
      <point x="72" y="0" type="line"/>
      <point x="210" y="0" type="line"/>
      <point x="210" y="556" type="line"/>
      <point x="240" y="556" type="line"/>
      <point x="358" y="0" type="line"/>
      <point x="496" y="0" type="line"/>
      <point x="614" y="556" type="line"/>
      <point x="644" y="556" type="line"/>
      <point x="644" y="0" type="line"/>
      <point x="782" y="0" type="line"/>
      <point x="782" y="710" type="line"/>
      <point x="532" y="710" type="line"/>
      <point x="427" y="152" type="line"/>
      <point x="322" y="710" type="line"/>
    </contour>
  </outline>
</glyph>
<glyph name="N" format="2">
	<advance width="729"/>
	<unicode hex="004E"/>
	<anchor x="364" y="0" name="bottom"/>
	<anchor x="374" y="710" name="top"/>
	<note>
		N
	</note>
	<outline>
		<contour>
			<point x="72" y="710" type="line"/>
			<point x="72" y="0" type="line"/>
			<point x="210" y="0" type="line"/>
			<point x="210" y="590" type="line"/>
			<point x="240" y="590" type="line"/>
			<point x="410" y="0" type="line"/>
			<point x="657" y="0" type="line"/>
			<point x="657" y="710" type="line"/>
			<point x="519" y="710" type="line"/>
			<point x="519" y="120" type="line"/>
			<point x="489" y="120" type="line"/>
			<point x="322" y="710" type="line"/>
		</contour>
	</outline>
</glyph>
<glyph name="O" format="2">
	<advance width="664"/>
	<unicode hex="004F"/>
	<anchor x="336" y="0" name="bottom"/>
	<anchor x="336" y="350" name="center"/>
	<anchor x="425" y="0" name="ogonek"/>
	<anchor x="336" y="710" name="top"/>
	<anchor x="26" y="710" name="topleft"/>
	<anchor x="646" y="710" name="topright"/>
	<note>
		O
	</note>
	<outline>
		<contour>
			<point x="332" y="106" type="curve" smooth="yes"/>
			<point x="220" y="106"/>
			<point x="188" y="177"/>
			<point x="188" y="356" type="curve" smooth="yes"/>
			<point x="188" y="537"/>
			<point x="220" y="616"/>
			<point x="332" y="616" type="curve" smooth="yes"/>
			<point x="444" y="616"/>
			<point x="476" y="537"/>
			<point x="476" y="356" type="curve" smooth="yes"/>
			<point x="476" y="177"/>
			<point x="444" y="106"/>
		</contour>
		<contour>
			<point x="332" y="-14" type="curve" smooth="yes"/>
			<point x="546" y="-14"/>
			<point x="618" y="104"/>
			<point x="618" y="356" type="curve" smooth="yes"/>
			<point x="618" y="610"/>
			<point x="546" y="726"/>
			<point x="332" y="726" type="curve" smooth="yes"/>
			<point x="118" y="726"/>
			<point x="46" y="610"/>
			<point x="46" y="356" type="curve" smooth="yes"/>
			<point x="46" y="104"/>
			<point x="118" y="-14"/>
		</contour>
	</outline>
</glyph>
<glyph name="P" format="2">
	<advance width="602"/>
	<unicode hex="0050"/>
	<anchor x="303" y="0" name="bottom"/>
	<anchor x="303" y="710" name="top"/>
	<note>
		P
	</note>
	<outline>
		<contour>
			<point x="210" y="208" type="line"/>
			<point x="331" y="208" type="line" smooth="yes"/>
			<point x="491" y="208"/>
			<point x="573" y="295"/>
			<point x="573" y="463" type="curve" smooth="yes"/>
			<point x="573" y="631"/>
			<point x="491" y="710"/>
			<point x="331" y="710" type="curve" smooth="yes"/>
			<point x="72" y="710" type="line"/>
			<point x="72" y="0" type="line"/>
			<point x="210" y="0" type="line"/>
		</contour>
		<contour>
			<point x="330" y="326" type="curve" smooth="yes"/>
			<point x="210" y="326" type="line"/>
			<point x="210" y="592" type="line"/>
			<point x="330" y="592" type="line" smooth="yes"/>
			<point x="399" y="592"/>
			<point x="433" y="558"/>
			<point x="433" y="463" type="curve" smooth="yes"/>
			<point x="433" y="367"/>
			<point x="399" y="326"/>
		</contour>
	</outline>
</glyph>
<glyph name="Q" format="2">
	<advance width="664"/>
	<unicode hex="0051"/>
	<note>
		Q
	</note>
	<outline>
		<contour>
			<point x="332" y="108" type="curve" smooth="yes"/>
			<point x="220" y="108"/>
			<point x="188" y="179"/>
			<point x="188" y="352" type="curve" smooth="yes"/>
			<point x="188" y="527"/>
			<point x="220" y="606"/>
			<point x="332" y="606" type="curve" smooth="yes"/>
			<point x="444" y="606"/>
			<point x="476" y="527"/>
			<point x="476" y="352" type="curve" smooth="yes"/>
			<point x="476" y="179"/>
			<point x="444" y="108"/>
		</contour>
		<contour>
			<point x="46" y="352" type="curve" smooth="yes"/>
			<point x="46" y="106"/>
			<point x="118" y="-12"/>
			<point x="332" y="-12" type="curve" smooth="yes"/>
			<point x="348" y="-12"/>
			<point x="362" y="-11"/>
			<point x="376" y="-10" type="curve"/>
			<point x="467" y="-146" type="line"/>
			<point x="582" y="-72" type="line"/>
			<point x="512" y="35" type="line"/>
			<point x="589" y="90"/>
			<point x="618" y="193"/>
			<point x="618" y="352" type="curve" smooth="yes"/>
			<point x="618" y="600"/>
			<point x="546" y="726"/>
			<point x="332" y="726" type="curve" smooth="yes"/>
			<point x="118" y="726"/>
			<point x="46" y="600"/>
		</contour>
	</outline>
</glyph>
<glyph name="R" format="2">
	<advance width="618"/>
	<unicode hex="0052"/>
	<anchor x="314" y="0" name="bottom"/>
	<anchor x="306" y="710" name="top"/>
	<note>
		R
	</note>
	<outline>
		<contour>
			<point x="435" y="475" type="curve" smooth="yes"/>
			<point x="435" y="410"/>
			<point x="407" y="366"/>
			<point x="338" y="366" type="curve" smooth="yes"/>
			<point x="210" y="366" type="line"/>
			<point x="210" y="592" type="line"/>
			<point x="336" y="592" type="line" smooth="yes"/>
			<point x="402" y="592"/>
			<point x="435" y="545"/>
		</contour>
		<contour>
			<point x="210" y="248" type="line"/>
			<point x="343" y="248" type="line"/>
			<point x="426" y="0" type="line"/>
			<point x="573" y="0" type="line"/>
			<point x="472" y="280" type="line"/>
			<point x="538" y="319"/>
			<point x="576" y="378"/>
			<point x="576" y="477" type="curve" smooth="yes"/>
			<point x="576" y="637"/>
			<point x="491" y="710"/>
			<point x="336" y="710" type="curve" smooth="yes"/>
			<point x="72" y="710" type="line"/>
			<point x="72" y="0" type="line"/>
			<point x="210" y="0" type="line"/>
		</contour>
	</outline>
</glyph>
<glyph name="S" format="2">
	<advance width="552"/>
	<unicode hex="0053"/>
	<anchor x="261" y="0" name="bottom"/>
	<anchor x="288" y="710" name="top"/>
	<note>
		S
	</note>
	<outline>
		<contour>
			<point x="485" y="590" type="curve"/>
			<point x="496" y="699" type="line"/>
			<point x="496" y="699"/>
			<point x="373" y="726"/>
			<point x="282" y="726" type="curve" smooth="yes"/>
			<point x="144" y="726"/>
			<point x="40" y="660"/>
			<point x="40" y="514" type="curve" smooth="yes"/>
			<point x="40" y="441"/>
			<point x="68" y="382"/>
			<point x="162" y="344" type="curve" smooth="yes"/>
			<point x="300" y="288" type="line" smooth="yes"/>
			<point x="359" y="264"/>
			<point x="379" y="246"/>
			<point x="379" y="202" type="curve" smooth="yes"/>
			<point x="379" y="144"/>
			<point x="351" y="106"/>
			<point x="263" y="106" type="curve" smooth="yes"/>
			<point x="198" y="106"/>
			<point x="58" y="122"/>
			<point x="58" y="122" type="curve"/>
			<point x="44" y="15" type="line"/>
			<point x="44" y="15"/>
			<point x="168" y="-14"/>
			<point x="263" y="-14" type="curve" smooth="yes"/>
			<point x="403" y="-14"/>
			<point x="516" y="52"/>
			<point x="516" y="219" type="curve" smooth="yes"/>
			<point x="516" y="293"/>
			<point x="490" y="356"/>
			<point x="400" y="393" type="curve" smooth="yes"/>
			<point x="255" y="453" type="line" smooth="yes"/>
			<point x="195" y="478"/>
			<point x="177" y="496"/>
			<point x="177" y="528" type="curve" smooth="yes"/>
			<point x="177" y="575"/>
			<point x="212" y="606"/>
			<point x="286" y="606" type="curve" smooth="yes"/>
			<point x="344" y="606"/>
			<point x="485" y="590"/>
		</contour>
	</outline>
</glyph>
<glyph name="T" format="2">
  <advance width="546"/>
  <unicode hex="0054"/>
  <note>
T
</note>
  <anchor x="272" y="0" name="bottom"/>
  <anchor x="272" y="330" name="center"/>
  <anchor x="272" y="710" name="top"/>
  <outline>
    <contour>
      <point x="14" y="710" type="line"/>
      <point x="14" y="588" type="line"/>
      <point x="204" y="588" type="line"/>
      <point x="204" y="0" type="line"/>
      <point x="342" y="0" type="line"/>
      <point x="342" y="588" type="line"/>
      <point x="532" y="588" type="line"/>
      <point x="532" y="710" type="line"/>
    </contour>
  </outline>
</glyph>
<glyph name="U" format="2">
  <advance width="654"/>
  <unicode hex="0055"/>
  <note>
U
</note>
  <anchor x="326" y="0" name="bottom"/>
  <anchor x="419" y="0" name="ogonek"/>
  <anchor x="326" y="710" name="top"/>
  <anchor x="626" y="710" name="topright"/>
  <outline>
    <contour>
      <point x="206" y="225" type="curve" smooth="yes"/>
      <point x="206" y="710" type="line"/>
      <point x="68" y="710" type="line"/>
      <point x="68" y="228" type="line" smooth="yes"/>
      <point x="68" y="58"/>
      <point x="157" y="-14"/>
      <point x="327" y="-14" type="curve" smooth="yes"/>
      <point x="497" y="-14"/>
      <point x="586" y="58"/>
      <point x="586" y="228" type="curve" smooth="yes"/>
      <point x="586" y="710" type="line"/>
      <point x="448" y="710" type="line"/>
      <point x="448" y="225" type="line" smooth="yes"/>
      <point x="448" y="145"/>
      <point x="408" y="106"/>
      <point x="327" y="106" type="curve" smooth="yes"/>
      <point x="246" y="106"/>
      <point x="206" y="144"/>
    </contour>
  </outline>
</glyph>
<glyph name="V" format="2">
  <advance width="608"/>
  <unicode hex="0056"/>
  <note>
V
</note>
  <anchor x="303" y="0" name="bottom"/>
  <anchor x="303" y="710" name="top"/>
  <outline>
    <contour>
      <point x="590" y="710" type="line"/>
      <point x="445" y="710" type="line"/>
      <point x="318" y="120" type="line"/>
      <point x="288" y="120" type="line"/>
      <point x="164" y="710" type="line"/>
      <point x="19" y="710" type="line"/>
      <point x="183" y="0" type="line"/>
      <point x="423" y="0" type="line"/>
    </contour>
  </outline>
</glyph>
<glyph name="W" format="2">
  <advance width="938"/>
  <unicode hex="0057"/>
  <note>
W
</note>
  <anchor x="469" y="0" name="bottom"/>
  <anchor x="469" y="710" name="top"/>
  <outline>
    <contour>
      <point x="168" y="710" type="line"/>
      <point x="23" y="710" type="line"/>
      <point x="153" y="0" type="line"/>
      <point x="377" y="0" type="line"/>
      <point x="469" y="539" type="line"/>
      <point x="561" y="0" type="line"/>
      <point x="785" y="0" type="line"/>
      <point x="915" y="710" type="line"/>
      <point x="770" y="710" type="line"/>
      <point x="686" y="118" type="line"/>
      <point x="656" y="118" type="line"/>
      <point x="549" y="696" type="line"/>
      <point x="389" y="696" type="line"/>
      <point x="282" y="118" type="line"/>
      <point x="252" y="118" type="line"/>
    </contour>
  </outline>
</glyph>
<glyph name="X" format="2">
	<advance width="607"/>
	<unicode hex="0058"/>
	<note>
		X
	</note>
	<outline>
		<contour>
			<point x="12" y="0" type="line"/>
			<point x="165" y="0" type="line"/>
			<point x="299" y="247" type="line"/>
			<point x="430" y="0" type="line"/>
			<point x="586" y="0" type="line"/>
			<point x="382" y="353" type="line"/>
			<point x="599" y="710" type="line"/>
			<point x="449" y="710" type="line"/>
			<point x="313" y="457" type="line"/>
			<point x="170" y="710" type="line"/>
			<point x="14" y="710" type="line"/>
			<point x="231" y="354" type="line"/>
		</contour>
	</outline>
</glyph>
<glyph name="Y" format="2">
	<advance width="556"/>
	<unicode hex="0059"/>
	<anchor x="277" y="0" name="bottom"/>
	<anchor x="277" y="710" name="top"/>
	<anchor x="19" y="710" name="topleft"/>
	<note>
		Y
	</note>
	<outline>
		<contour>
			<point x="209" y="0" type="line"/>
			<point x="347" y="0" type="line"/>
			<point x="347" y="298" type="line"/>
			<point x="555" y="710" type="line"/>
			<point x="402" y="710" type="line"/>
			<point x="277" y="432" type="line"/>
			<point x="152" y="710" type="line"/>
			<point x="-1" y="710" type="line"/>
			<point x="209" y="298" type="line"/>
		</contour>
	</outline>
</glyph>
<glyph name="Z" format="2">
  <advance width="534"/>
  <unicode hex="005A"/>
  <note>
Z
</note>
  <anchor x="274" y="0" name="bottom"/>
  <anchor x="239" y="350" name="center"/>
  <anchor x="263" y="710" name="top"/>
  <outline>
    <contour>
      <point x="42" y="710" type="line"/>
      <point x="42" y="590" type="line"/>
      <point x="321" y="590" type="line"/>
      <point x="321" y="565" type="line"/>
      <point x="42" y="119" type="line"/>
      <point x="42" y="0" type="line"/>
      <point x="497" y="0" type="line"/>
      <point x="497" y="120" type="line"/>
      <point x="208" y="120" type="line"/>
      <point x="208" y="145" type="line"/>
      <point x="487" y="590" type="line"/>
      <point x="487" y="710" type="line"/>
    </contour>
  </outline>
</glyph>
<glyph name="bracketleft" format="2">
	<advance width="354"/>
	<unicode hex="005B"/>
	<outline>
		<contour>
			<point x="322" y="628" type="line"/>
			<point x="322" y="748" type="line"/>
			<point x="70" y="748" type="line"/>
			<point x="70" y="-123" type="line"/>
			<point x="322" y="-123" type="line"/>
			<point x="322" y="-3" type="line"/>
			<point x="202" y="-3" type="line"/>
			<point x="202" y="628" type="line"/>
		</contour>
	</outline>
</glyph>
<glyph name="asciicircum" format="2">
	<advance width="560"/>
	<unicode hex="005E"/>
	<outline>
		<contour>
			<point x="280" y="540" type="line"/>
			<point x="393" y="323" type="line"/>
			<point x="533" y="323" type="line"/>
			<point x="339" y="670" type="line"/>
			<point x="221" y="670" type="line"/>
			<point x="27" y="323" type="line"/>
			<point x="167" y="323" type="line"/>
		</contour>
	</outline>
</glyph>
<glyph name="underscore" format="2">
  <advance width="546"/>
  <unicode hex="005F"/>
  <outline>
    <contour>
      <point x="43" y="-42" type="line"/>
      <point x="43" y="-142" type="line"/>
      <point x="503" y="-142" type="line"/>
      <point x="503" y="-42" type="line"/>
    </contour>
  </outline>
</glyph>
<glyph name="a" format="2">
  <advance width="515"/>
  <unicode hex="0061"/>
  <note>
a
</note>
  <anchor x="263" y="0" name="bottom"/>
  <anchor x="471" y="0" name="ogonek"/>
  <anchor x="248" y="510" name="top"/>
  <outline>
    <contour>
      <point x="447" y="134" type="curve" smooth="yes"/>
      <point x="447" y="358" type="line" smooth="yes"/>
      <point x="447" y="475"/>
      <point x="395" y="526"/>
      <point x="265" y="526" type="curve" smooth="yes"/>
      <point x="169" y="526"/>
      <point x="62" y="497"/>
      <point x="62" y="497" type="curve"/>
      <point x="66" y="404" type="line"/>
      <point x="66" y="404"/>
      <point x="188" y="412"/>
      <point x="254" y="412" type="curve" smooth="yes"/>
      <point x="294" y="412"/>
      <point x="313" y="401"/>
      <point x="313" y="358" type="curve" smooth="yes"/>
      <point x="313" y="319" type="line"/>
      <point x="206" y="311" type="line" smooth="yes"/>
      <point x="96" y="303"/>
      <point x="31" y="271"/>
      <point x="31" y="152" type="curve" smooth="yes"/>
      <point x="31" y="44"/>
      <point x="81" y="-14"/>
      <point x="186" y="-14" type="curve" smooth="yes"/>
      <point x="261" y="-14"/>
      <point x="333" y="21"/>
      <point x="333" y="21" type="curve"/>
      <point x="375" y="-7"/>
      <point x="409" y="-14"/>
      <point x="476" y="-14" type="curve"/>
      <point x="480" y="87" type="line"/>
      <point x="453" y="92"/>
      <point x="447" y="104"/>
    </contour>
    <contour>
      <point x="222" y="218" type="curve" smooth="yes"/>
      <point x="313" y="226" type="line"/>
      <point x="313" y="111" type="line"/>
      <point x="313" y="111"/>
      <point x="258" y="95"/>
      <point x="215" y="95" type="curve" smooth="yes"/>
      <point x="179" y="95"/>
      <point x="166" y="119"/>
      <point x="166" y="156" type="curve" smooth="yes"/>
      <point x="166" y="198"/>
      <point x="187" y="215"/>
    </contour>
  </outline>
</glyph>
<glyph name="b" format="2">
  <advance width="548"/>
  <unicode hex="0062"/>
  <note>
b
</note>
  <anchor x="263" y="0" name="bottom"/>
  <anchor x="263" y="250" name="center"/>
  <anchor x="129" y="730" name="top"/>
  <outline>
    <contour>
      <point x="304" y="526" type="curve" smooth="yes"/>
      <point x="260" y="526"/>
      <point x="196" y="499"/>
      <point x="196" y="499" type="curve"/>
      <point x="196" y="730" type="line"/>
      <point x="62" y="730" type="line"/>
      <point x="62" y="0" type="line"/>
      <point x="62" y="0"/>
      <point x="209" y="-14"/>
      <point x="257" y="-14" type="curve" smooth="yes"/>
      <point x="433" y="-14"/>
      <point x="508" y="40"/>
      <point x="508" y="257" type="curve" smooth="yes"/>
      <point x="508" y="463"/>
      <point x="440" y="526"/>
    </contour>
    <contour>
      <point x="257" y="106" type="curve" smooth="yes"/>
      <point x="242" y="106"/>
      <point x="196" y="110"/>
      <point x="196" y="110" type="curve"/>
      <point x="196" y="393" type="line"/>
      <point x="196" y="393"/>
      <point x="246" y="406"/>
      <point x="286" y="406" type="curve" smooth="yes"/>
      <point x="338" y="406"/>
      <point x="370" y="372"/>
      <point x="370" y="257" type="curve" smooth="yes"/>
      <point x="370" y="147"/>
      <point x="349" y="106"/>
    </contour>
  </outline>
</glyph>
<glyph name="c" format="2">
  <advance width="451"/>
  <unicode hex="0063"/>
  <note>
c
</note>
  <anchor x="241" y="0" name="bottom"/>
  <anchor x="248" y="510" name="top"/>
  <outline>
    <contour>
      <point x="253" y="526" type="curve" smooth="yes"/>
      <point x="104" y="526"/>
      <point x="40" y="446"/>
      <point x="40" y="255" type="curve" smooth="yes"/>
      <point x="40" y="65"/>
      <point x="101" y="-14"/>
      <point x="250" y="-14" type="curve" smooth="yes"/>
      <point x="306" y="-14"/>
      <point x="413" y="7"/>
      <point x="413" y="7" type="curve"/>
      <point x="409" y="114" type="line"/>
      <point x="409" y="114"/>
      <point x="331" y="106"/>
      <point x="293" y="106" type="curve" smooth="yes"/>
      <point x="197" y="106"/>
      <point x="178" y="141"/>
      <point x="178" y="255" type="curve" smooth="yes"/>
      <point x="178" y="369"/>
      <point x="196" y="406"/>
      <point x="292" y="406" type="curve" smooth="yes"/>
      <point x="330" y="406"/>
      <point x="409" y="398"/>
      <point x="409" y="398" type="curve"/>
      <point x="413" y="504" type="line"/>
      <point x="413" y="504"/>
      <point x="311" y="526"/>
    </contour>
  </outline>
</glyph>
<glyph name="d" format="2">
	<advance width="552"/>
	<unicode hex="0064"/>
	<anchor x="287" y="0" name="bottom"/>
	<anchor x="287" y="250" name="center"/>
	<anchor x="426" y="627" name="stroke"/>
	<anchor x="423" y="730" name="top"/>
	<anchor x="532" y="730" name="topright"/>
	<note>
		d
	</note>
	<outline>
		<contour>
			<point x="262" y="106" type="curve" smooth="yes"/>
			<point x="196" y="106"/>
			<point x="177" y="149"/>
			<point x="177" y="242" type="curve" smooth="yes"/>
			<point x="177" y="372"/>
			<point x="208" y="410"/>
			<point x="267" y="410" type="curve" smooth="yes"/>
			<point x="301" y="410"/>
			<point x="356" y="402"/>
			<point x="356" y="402" type="curve"/>
			<point x="356" y="129" type="line"/>
			<point x="356" y="129"/>
			<point x="306" y="106"/>
		</contour>
		<contour>
			<point x="490" y="0" type="line"/>
			<point x="490" y="730" type="line"/>
			<point x="356" y="730" type="line"/>
			<point x="356" y="514" type="line"/>
			<point x="356" y="514"/>
			<point x="293" y="526"/>
			<point x="244" y="526" type="curve" smooth="yes"/>
			<point x="120" y="526"/>
			<point x="39" y="454"/>
			<point x="39" y="242" type="curve" smooth="yes"/>
			<point x="39" y="75"/>
			<point x="98" y="-14"/>
			<point x="227" y="-14" type="curve" smooth="yes"/>
			<point x="310" y="-14"/>
			<point x="361" y="27"/>
			<point x="361" y="27" type="curve"/>
			<point x="361" y="0" type="line"/>
		</contour>
	</outline>
</glyph>
<glyph name="e" format="2">
	<advance width="514"/>
	<unicode hex="0065"/>
	<anchor x="257" y="0" name="bottom"/>
	<anchor x="391" y="0" name="ogonek"/>
	<anchor x="272" y="510" name="top"/>
	<note>
		e
	</note>
	<outline>
		<contour>
			<point x="285" y="104" type="curve" smooth="yes"/>
			<point x="183" y="104"/>
			<point x="175" y="129"/>
			<point x="174" y="209" type="curve"/>
			<point x="468" y="209" type="line"/>
			<point x="478" y="302" type="line"/>
			<point x="478" y="451"/>
			<point x="405" y="526"/>
			<point x="265" y="526" type="curve" smooth="yes"/>
			<point x="112" y="526"/>
			<point x="39" y="439"/>
			<point x="39" y="256" type="curve" smooth="yes"/>
			<point x="39" y="63"/>
			<point x="103" y="-14"/>
			<point x="254" y="-14" type="curve" smooth="yes"/>
			<point x="347" y="-14"/>
			<point x="462" y="4"/>
			<point x="462" y="4" type="curve"/>
			<point x="460" y="103" type="line"/>
			<point x="460" y="103"/>
			<point x="337" y="104"/>
		</contour>
		<contour>
			<point x="346" y="311" type="curve"/>
			<point x="173" y="311" type="line"/>
			<point x="174" y="385"/>
			<point x="196" y="416"/>
			<point x="260" y="416" type="curve" smooth="yes"/>
			<point x="323" y="416"/>
			<point x="346" y="390"/>
		</contour>
	</outline>
</glyph>
<glyph name="f" format="2">
	<advance width="361"/>
	<unicode hex="0066"/>
	<anchor x="168" y="0" name="bottom"/>
	<anchor x="235" y="730" name="top"/>
	<note>
		f
	</note>
	<outline>
		<contour>
			<point x="222" y="0" type="line"/>
			<point x="222" y="386" type="line"/>
			<point x="343" y="386" type="line"/>
			<point x="343" y="500" type="line"/>
			<point x="222" y="500" type="line"/>
			<point x="222" y="539" type="line" smooth="yes"/>
			<point x="222" y="590"/>
			<point x="226" y="620"/>
			<point x="282" y="620" type="curve" smooth="yes"/>
			<point x="296" y="620"/>
			<point x="346" y="618"/>
			<point x="346" y="618" type="curve"/>
			<point x="348" y="727" type="line"/>
			<point x="348" y="727"/>
			<point x="277" y="740"/>
			<point x="232" y="740" type="curve" smooth="yes"/>
			<point x="133" y="740"/>
			<point x="88" y="684"/>
			<point x="88" y="560" type="curve" smooth="yes"/>
			<point x="88" y="500" type="line"/>
			<point x="34" y="500" type="line"/>
			<point x="34" y="386" type="line"/>
			<point x="88" y="386" type="line"/>
			<point x="88" y="0" type="line"/>
		</contour>
	</outline>
</glyph>
<glyph name="g" format="2">
	<advance width="528"/>
	<unicode hex="0067"/>
	<anchor x="250" y="-230" name="bottom"/>
	<anchor x="259" y="500" name="top"/>
	<note>
		g
	</note>
	<outline>
		<contour>
			<point x="258" y="-240" type="curve" smooth="yes"/>
			<point x="415" y="-240"/>
			<point x="508" y="-198"/>
			<point x="508" y="-60" type="curve" smooth="yes"/>
			<point x="508" y="36"/>
			<point x="460" y="78"/>
			<point x="320" y="79" type="curve" smooth="yes"/>
			<point x="205" y="80"/>
			<point x="193" y="86"/>
			<point x="193" y="112" type="curve" smooth="yes"/>
			<point x="193" y="125"/>
			<point x="203" y="161"/>
			<point x="203" y="161" type="curve"/>
			<point x="212" y="159"/>
			<point x="233" y="157"/>
			<point x="244" y="157" type="curve" smooth="yes"/>
			<point x="381" y="157"/>
			<point x="455" y="192"/>
			<point x="455" y="338" type="curve" smooth="yes"/>
			<point x="455" y="377"/>
			<point x="442" y="403"/>
			<point x="433" y="417" type="curve"/>
			<point x="508" y="411" type="line"/>
			<point x="508" y="518" type="line"/>
			<point x="347" y="513" type="line"/>
			<point x="347" y="513"/>
			<point x="299" y="526"/>
			<point x="243" y="526" type="curve" smooth="yes"/>
			<point x="138" y="526"/>
			<point x="36" y="477"/>
			<point x="36" y="338" type="curve" smooth="yes"/>
			<point x="36" y="245"/>
			<point x="69" y="209"/>
			<point x="104" y="184" type="curve"/>
			<point x="104" y="184"/>
			<point x="65" y="119"/>
			<point x="65" y="94" type="curve" smooth="yes"/>
			<point x="65" y="63"/>
			<point x="80" y="33"/>
			<point x="102" y="18" type="curve"/>
			<point x="52" y="-21"/>
			<point x="30" y="-55"/>
			<point x="30" y="-101" type="curve" smooth="yes"/>
			<point x="30" y="-213"/>
			<point x="140" y="-240"/>
		</contour>
		<contour>
			<point x="279" y="-37" type="curve" smooth="yes"/>
			<point x="353" y="-38"/>
			<point x="373" y="-42"/>
			<point x="373" y="-80" type="curve" smooth="yes"/>
			<point x="373" y="-116"/>
			<point x="337" y="-130"/>
			<point x="267" y="-130" type="curve" smooth="yes"/>
			<point x="197" y="-130"/>
			<point x="162" y="-116"/>
			<point x="162" y="-87" type="curve" smooth="yes"/>
			<point x="162" y="-62"/>
			<point x="172" y="-47"/>
			<point x="189" y="-30" type="curve"/>
			<point x="189" y="-30"/>
			<point x="251" y="-37"/>
		</contour>
		<contour>
			<point x="247" y="259" type="curve" smooth="yes"/>
			<point x="193" y="259"/>
			<point x="170" y="285"/>
			<point x="170" y="338" type="curve" smooth="yes"/>
			<point x="170" y="395"/>
			<point x="193" y="422"/>
			<point x="247" y="422" type="curve" smooth="yes"/>
			<point x="301" y="422"/>
			<point x="323" y="395"/>
			<point x="323" y="338" type="curve" smooth="yes"/>
			<point x="323" y="285"/>
			<point x="301" y="259"/>
		</contour>
	</outline>
</glyph>
<glyph name="h" format="2">
  <advance width="553"/>
  <unicode hex="0068"/>
  <note>
h
</note>
  <anchor x="276" y="0" name="bottom"/>
  <anchor x="204" y="633" name="stroke"/>
  <anchor x="130" y="730" name="top"/>
  <outline>
    <contour>
      <point x="62" y="0" type="line"/>
      <point x="196" y="0" type="line"/>
      <point x="196" y="390" type="line"/>
      <point x="196" y="390"/>
      <point x="243" y="406"/>
      <point x="287" y="406" type="curve" smooth="yes"/>
      <point x="352" y="406"/>
      <point x="362" y="357"/>
      <point x="362" y="282" type="curve" smooth="yes"/>
      <point x="362" y="0" type="line"/>
      <point x="496" y="0" type="line"/>
      <point x="496" y="285" type="line" smooth="yes"/>
      <point x="496" y="438"/>
      <point x="460" y="526"/>
      <point x="320" y="526" type="curve" smooth="yes"/>
      <point x="265" y="526"/>
      <point x="196" y="490"/>
      <point x="196" y="490" type="curve"/>
      <point x="196" y="730" type="line"/>
      <point x="62" y="730" type="line"/>
    </contour>
  </outline>
</glyph>
<glyph name="k" format="2">
  <advance width="512"/>
  <unicode hex="006B"/>
  <note>
k
</note>
  <anchor x="275" y="0" name="bottom"/>
  <anchor x="128" y="730" name="top"/>
  <outline>
    <contour>
      <point x="62" y="0" type="line"/>
      <point x="196" y="0" type="line"/>
      <point x="196" y="213" type="line"/>
      <point x="251" y="222" type="line"/>
      <point x="352" y="0" type="line"/>
      <point x="503" y="0" type="line"/>
      <point x="366" y="290" type="line"/>
      <point x="496" y="510" type="line"/>
      <point x="346" y="510" type="line"/>
      <point x="247" y="338" type="line"/>
      <point x="196" y="329" type="line"/>
      <point x="196" y="730" type="line"/>
      <point x="62" y="730" type="line"/>
    </contour>
  </outline>
</glyph>
<glyph name="l" format="2">
	<advance width="302"/>
	<unicode hex="006C"/>
	<anchor x="183" y="0" name="bottom"/>
	<anchor x="154" y="365" name="center"/>
	<anchor x="125" y="730" name="top"/>
	<anchor x="222" y="730" name="topright"/>
	<note>
		l
	</note>
	<outline>
		<contour>
			<point x="193" y="177" type="curve" smooth="yes"/>
			<point x="193" y="730" type="line"/>
			<point x="59" y="730" type="line"/>
			<point x="59" y="144" type="line" smooth="yes"/>
			<point x="59" y="32"/>
			<point x="94" y="-14"/>
			<point x="205" y="-14" type="curve" smooth="yes"/>
			<point x="240" y="-14"/>
			<point x="286" y="1"/>
			<point x="286" y="1" type="curve"/>
			<point x="280" y="106" type="line"/>
			<point x="280" y="106"/>
			<point x="254" y="104"/>
			<point x="226" y="104" type="curve" smooth="yes"/>
			<point x="194" y="104"/>
			<point x="193" y="127"/>
		</contour>
	</outline>
</glyph>
<glyph name="m" format="2">
  <advance width="839"/>
  <unicode hex="006D"/>
  <note>
m
</note>
  <anchor x="420" y="0" name="bottom"/>
  <anchor x="441" y="510" name="top"/>
  <outline>
    <contour>
      <point x="62" y="0" type="line"/>
      <point x="196" y="0" type="line"/>
      <point x="196" y="382" type="line"/>
      <point x="196" y="382"/>
      <point x="241" y="406"/>
      <point x="285" y="406" type="curve" smooth="yes"/>
      <point x="347" y="406"/>
      <point x="355" y="361"/>
      <point x="355" y="271" type="curve" smooth="yes"/>
      <point x="355" y="0" type="line"/>
      <point x="489" y="0" type="line"/>
      <point x="489" y="273" type="line" smooth="yes"/>
      <point x="489" y="312"/>
      <point x="485" y="387"/>
      <point x="485" y="387" type="curve"/>
      <point x="485" y="387"/>
      <point x="538" y="406"/>
      <point x="578" y="406" type="curve" smooth="yes"/>
      <point x="638" y="406"/>
      <point x="648" y="357"/>
      <point x="648" y="281" type="curve" smooth="yes"/>
      <point x="648" y="0" type="line"/>
      <point x="782" y="0" type="line"/>
      <point x="782" y="285" type="line" smooth="yes"/>
      <point x="782" y="446"/>
      <point x="742" y="526"/>
      <point x="606" y="526" type="curve" smooth="yes"/>
      <point x="530" y="526"/>
      <point x="438" y="479"/>
      <point x="438" y="479" type="curve"/>
      <point x="408" y="511"/>
      <point x="369" y="526"/>
      <point x="313" y="526" type="curve" smooth="yes"/>
      <point x="264" y="526"/>
      <point x="195" y="480"/>
      <point x="195" y="480" type="curve"/>
      <point x="195" y="510" type="line"/>
      <point x="62" y="510" type="line"/>
    </contour>
  </outline>
</glyph>
<glyph name="n" format="2">
	<advance width="553"/>
	<unicode hex="006E"/>
	<anchor x="279" y="0" name="bottom"/>
	<anchor x="287" y="510" name="top"/>
	<note>
		n
	</note>
	<outline>
		<contour>
			<point x="62" y="0" type="line"/>
			<point x="196" y="0" type="line"/>
			<point x="196" y="382" type="line"/>
			<point x="196" y="382"/>
			<point x="240" y="406"/>
			<point x="287" y="406" type="curve" smooth="yes"/>
			<point x="352" y="406"/>
			<point x="362" y="357"/>
			<point x="362" y="281" type="curve" smooth="yes"/>
			<point x="362" y="0" type="line"/>
			<point x="496" y="0" type="line"/>
			<point x="496" y="285" type="line" smooth="yes"/>
			<point x="496" y="438"/>
			<point x="460" y="526"/>
			<point x="320" y="526" type="curve" smooth="yes"/>
			<point x="263" y="526"/>
			<point x="195" y="480"/>
			<point x="195" y="480" type="curve"/>
			<point x="195" y="510" type="line"/>
			<point x="62" y="510" type="line"/>
		</contour>
	</outline>
</glyph>
<glyph name="o" format="2">
  <advance width="536"/>
  <unicode hex="006F"/>
  <note>
o
</note>
  <anchor x="266" y="0" name="bottom"/>
  <anchor x="266" y="256" name="center"/>
  <anchor x="353" y="0" name="ogonek"/>
  <anchor x="266" y="510" name="top"/>
  <anchor x="510" y="510" name="topright"/>
  <outline>
    <contour>
      <point x="268" y="526" type="curve" smooth="yes"/>
      <point x="94" y="526"/>
      <point x="38" y="416"/>
      <point x="38" y="256" type="curve" smooth="yes"/>
      <point x="38" y="96"/>
      <point x="94" y="-10"/>
      <point x="268" y="-10" type="curve" smooth="yes"/>
      <point x="442" y="-10"/>
      <point x="498" y="96"/>
      <point x="498" y="256" type="curve" smooth="yes"/>
      <point x="498" y="416"/>
      <point x="442" y="526"/>
    </contour>
    <contour>
      <point x="268" y="104" type="curve" smooth="yes"/>
      <point x="194" y="104"/>
      <point x="174" y="153"/>
      <point x="174" y="256" type="curve" smooth="yes"/>
      <point x="174" y="359"/>
      <point x="194" y="412"/>
      <point x="268" y="412" type="curve" smooth="yes"/>
      <point x="342" y="412"/>
      <point x="362" y="359"/>
      <point x="362" y="256" type="curve" smooth="yes"/>
      <point x="362" y="153"/>
      <point x="342" y="104"/>
    </contour>
  </outline>
</glyph>
<glyph name="p" format="2">
	<advance width="545"/>
	<unicode hex="0070"/>
	<anchor x="262" y="0" name="bottom"/>
	<anchor x="273" y="510" name="top"/>
	<note>
		p
	</note>
	<outline>
		<contour>
			<point x="62" y="510" type="line"/>
			<point x="62" y="-230" type="line"/>
			<point x="196" y="-230" type="line"/>
			<point x="196" y="0" type="line"/>
			<point x="196" y="0"/>
			<point x="242" y="-10"/>
			<point x="292" y="-10" type="curve" smooth="yes"/>
			<point x="422" y="-10"/>
			<point x="506" y="43"/>
			<point x="506" y="249" type="curve" smooth="yes"/>
			<point x="506" y="450"/>
			<point x="431" y="520"/>
			<point x="327" y="520" type="curve" smooth="yes"/>
			<point x="250" y="520"/>
			<point x="195" y="483"/>
			<point x="195" y="483" type="curve"/>
			<point x="195" y="510" type="line"/>
		</contour>
		<contour>
			<point x="285" y="402" type="curve" smooth="yes"/>
			<point x="336" y="402"/>
			<point x="370" y="375"/>
			<point x="370" y="249" type="curve" smooth="yes"/>
			<point x="370" y="160"/>
			<point x="349" y="106"/>
			<point x="269" y="106" type="curve" smooth="yes"/>
			<point x="241" y="106"/>
			<point x="196" y="112"/>
			<point x="196" y="112" type="curve"/>
			<point x="196" y="382" type="line"/>
			<point x="196" y="382"/>
			<point x="242" y="402"/>
		</contour>
	</outline>
</glyph>
<glyph name="q" format="2">
  <advance width="546"/>
  <unicode hex="0071"/>
  <note>
q
</note>
  <outline>
    <contour>
      <point x="242" y="-14" type="curve" smooth="yes"/>
      <point x="286" y="-14"/>
      <point x="350" y="13"/>
      <point x="350" y="13" type="curve"/>
      <point x="350" y="-230" type="line"/>
      <point x="484" y="-230" type="line"/>
      <point x="484" y="513" type="line"/>
      <point x="484" y="513"/>
      <point x="347" y="526"/>
      <point x="289" y="526" type="curve" smooth="yes"/>
      <point x="114" y="526"/>
      <point x="40" y="470"/>
      <point x="40" y="249" type="curve" smooth="yes"/>
      <point x="40" y="47"/>
      <point x="107" y="-14"/>
    </contour>
    <contour>
      <point x="289" y="410" type="curve" smooth="yes"/>
      <point x="313" y="410"/>
      <point x="350" y="406"/>
      <point x="350" y="406" type="curve"/>
      <point x="350" y="119" type="line"/>
      <point x="350" y="119"/>
      <point x="300" y="106"/>
      <point x="260" y="106" type="curve" smooth="yes"/>
      <point x="209" y="106"/>
      <point x="176" y="138"/>
      <point x="176" y="249" type="curve" smooth="yes"/>
      <point x="176" y="363"/>
      <point x="198" y="410"/>
    </contour>
  </outline>
</glyph>
<glyph name="r" format="2">
  <advance width="372"/>
  <unicode hex="0072"/>
  <note>
r
</note>
  <anchor x="128" y="0" name="bottom"/>
  <anchor x="206" y="510" name="top"/>
  <outline>
    <contour>
      <point x="62" y="510" type="line"/>
      <point x="62" y="0" type="line"/>
      <point x="196" y="0" type="line"/>
      <point x="196" y="345" type="line"/>
      <point x="196" y="345"/>
      <point x="267" y="374"/>
      <point x="355" y="391" type="curve"/>
      <point x="355" y="526" type="line"/>
      <point x="279" y="511"/>
      <point x="195" y="457"/>
      <point x="195" y="457" type="curve"/>
      <point x="195" y="510" type="line"/>
    </contour>
  </outline>
</glyph>
<glyph name="s" format="2">
	<advance width="470"/>
	<unicode hex="0073"/>
	<anchor x="224" y="0" name="bottom"/>
	<anchor x="243" y="510" name="top"/>
	<note>
		s
	</note>
	<outline>
		<contour>
			<point x="418" y="390" type="curve"/>
			<point x="420" y="501" type="line"/>
			<point x="420" y="501"/>
			<point x="300" y="526"/>
			<point x="227" y="526" type="curve" smooth="yes"/>
			<point x="123" y="526"/>
			<point x="35" y="477"/>
			<point x="35" y="362" type="curve" smooth="yes"/>
			<point x="35" y="291"/>
			<point x="68" y="254"/>
			<point x="147" y="225" type="curve" smooth="yes"/>
			<point x="262" y="183" type="line" smooth="yes"/>
			<point x="294" y="171"/>
			<point x="305" y="166"/>
			<point x="305" y="147" type="curve" smooth="yes"/>
			<point x="305" y="123"/>
			<point x="287" y="106"/>
			<point x="233" y="106" type="curve" smooth="yes"/>
			<point x="170" y="106"/>
			<point x="45" y="126"/>
			<point x="45" y="126" type="curve"/>
			<point x="41" y="14" type="line"/>
			<point x="41" y="14"/>
			<point x="161" y="-14"/>
			<point x="247" y="-14" type="curve" smooth="yes"/>
			<point x="362" y="-14"/>
			<point x="438" y="32"/>
			<point x="438" y="155" type="curve" smooth="yes"/>
			<point x="438" y="222"/>
			<point x="416" y="256"/>
			<point x="329" y="288" type="curve" smooth="yes"/>
			<point x="225" y="326" type="line" smooth="yes"/>
			<point x="179" y="343"/>
			<point x="168" y="349"/>
			<point x="168" y="367" type="curve" smooth="yes"/>
			<point x="168" y="393"/>
			<point x="180" y="406"/>
			<point x="235" y="406" type="curve" smooth="yes"/>
			<point x="296" y="406"/>
			<point x="418" y="390"/>
		</contour>
	</outline>
</glyph>
<glyph name="t" format="2">
	<advance width="376"/>
	<unicode hex="0074"/>
	<anchor x="237" y="0" name="bottom"/>
	<anchor x="154" y="257" name="center"/>
	<anchor x="154" y="653" name="top"/>
	<anchor x="244" y="730" name="topright"/>
	<note>
		t
	</note>
	<outline>
		<contour>
			<point x="220" y="396" type="line"/>
			<point x="343" y="396" type="line"/>
			<point x="343" y="510" type="line"/>
			<point x="220" y="510" type="line"/>
			<point x="220" y="653" type="line"/>
			<point x="86" y="653" type="line"/>
			<point x="86" y="510" type="line"/>
			<point x="27" y="510" type="line"/>
			<point x="27" y="396" type="line"/>
			<point x="86" y="396" type="line"/>
			<point x="86" y="176" type="line" smooth="yes"/>
			<point x="86" y="32"/>
			<point x="121" y="-14"/>
			<point x="242" y="-14" type="curve" smooth="yes"/>
			<point x="277" y="-14"/>
			<point x="349" y="1"/>
			<point x="349" y="1" type="curve"/>
			<point x="343" y="108" type="line"/>
			<point x="343" y="108"/>
			<point x="290" y="106"/>
			<point x="262" y="106" type="curve" smooth="yes"/>
			<point x="220" y="106"/>
			<point x="220" y="129"/>
			<point x="220" y="179" type="curve" smooth="yes"/>
		</contour>
	</outline>
</glyph>
<glyph name="u" format="2">
	<advance width="553"/>
	<unicode hex="0075"/>
	<anchor x="277" y="0" name="bottom"/>
	<anchor x="470" y="0" name="ogonek"/>
	<anchor x="277" y="510" name="top"/>
	<anchor x="531" y="510" name="topright"/>
	<note>
		u
	</note>
	<outline>
		<contour>
			<point x="491" y="510" type="line"/>
			<point x="357" y="510" type="line"/>
			<point x="357" y="128" type="line"/>
			<point x="357" y="128"/>
			<point x="311" y="106"/>
			<point x="261" y="106" type="curve" smooth="yes"/>
			<point x="195" y="106"/>
			<point x="191" y="145"/>
			<point x="191" y="234" type="curve" smooth="yes"/>
			<point x="191" y="510" type="line"/>
			<point x="57" y="510" type="line"/>
			<point x="57" y="236" type="line" smooth="yes"/>
			<point x="57" y="67"/>
			<point x="87" y="-14"/>
			<point x="233" y="-14" type="curve" smooth="yes"/>
			<point x="286" y="-14"/>
			<point x="358" y="30"/>
			<point x="358" y="30" type="curve"/>
			<point x="358" y="0" type="line"/>
			<point x="491" y="0" type="line"/>
		</contour>
	</outline>
</glyph>
<glyph name="v" format="2">
  <advance width="506"/>
  <unicode hex="0076"/>
  <note>
v
</note>
  <anchor x="253" y="0" name="bottom"/>
  <anchor x="253" y="510" name="top"/>
  <outline>
    <contour>
      <point x="159" y="510" type="line"/>
      <point x="19" y="510" type="line"/>
      <point x="140" y="0" type="line"/>
      <point x="365" y="0" type="line"/>
      <point x="487" y="510" type="line"/>
      <point x="351" y="510" type="line"/>
      <point x="265" y="114" type="line"/>
      <point x="240" y="114" type="line"/>
    </contour>
  </outline>
</glyph>
<glyph name="w" format="2">
	<advance width="768"/>
	<unicode hex="0077"/>
	<anchor x="384" y="0" name="bottom"/>
	<anchor x="384" y="510" name="top"/>
	<note>
		w
	</note>
	<outline>
		<contour>
			<point x="154" y="510" type="line"/>
			<point x="22" y="510" type="line"/>
			<point x="116" y="0" type="line"/>
			<point x="324" y="0" type="line"/>
			<point x="384" y="326" type="line"/>
			<point x="444" y="0" type="line"/>
			<point x="652" y="0" type="line"/>
			<point x="746" y="510" type="line"/>
			<point x="614" y="510" type="line"/>
			<point x="554" y="114" type="line"/>
			<point x="529" y="114" type="line"/>
			<point x="450" y="500" type="line"/>
			<point x="318" y="500" type="line"/>
			<point x="239" y="114" type="line"/>
			<point x="214" y="114" type="line"/>
		</contour>
	</outline>
</glyph>
<glyph name="x" format="2">
  <advance width="474"/>
  <unicode hex="0078"/>
  <note>
x
</note>
  <outline>
    <contour>
      <point x="14" y="0" type="line"/>
      <point x="157" y="0" type="line"/>
      <point x="237" y="156" type="line"/>
      <point x="318" y="0" type="line"/>
      <point x="461" y="0" type="line"/>
      <point x="319" y="259" type="line"/>
      <point x="461" y="510" type="line"/>
      <point x="318" y="510" type="line"/>
      <point x="237" y="348" type="line"/>
      <point x="157" y="510" type="line"/>
      <point x="14" y="510" type="line"/>
      <point x="154" y="258" type="line"/>
    </contour>
  </outline>
</glyph>
<glyph name="y" format="2">
	<advance width="505"/>
	<unicode hex="0079"/>
	<anchor x="254" y="0" name="bottom"/>
	<anchor x="254" y="510" name="top"/>
	<note>
		y
	</note>
	<outline>
		<contour>
			<point x="151" y="510" type="line"/>
			<point x="19" y="510" type="line"/>
			<point x="140" y="0" type="line"/>
			<point x="236" y="0" type="line"/>
			<point x="177" y="-230" type="line"/>
			<point x="308" y="-230" type="line"/>
			<point x="488" y="510" type="line"/>
			<point x="356" y="510" type="line"/>
			<point x="265" y="114" type="line"/>
			<point x="240" y="114" type="line"/>
		</contour>
	</outline>
</glyph>
<glyph name="z" format="2">
	<advance width="457"/>
	<unicode hex="007A"/>
	<anchor x="229" y="0" name="bottom"/>
	<anchor x="229" y="250" name="center"/>
	<anchor x="229" y="510" name="top"/>
	<note>
		z
	</note>
	<outline>
		<contour>
			<point x="43" y="510" type="line"/>
			<point x="43" y="390" type="line"/>
			<point x="253" y="390" type="line"/>
			<point x="253" y="370" type="line"/>
			<point x="43" y="135" type="line"/>
			<point x="43" y="0" type="line"/>
			<point x="414" y="0" type="line"/>
			<point x="414" y="120" type="line"/>
			<point x="204" y="120" type="line"/>
			<point x="204" y="140" type="line"/>
			<point x="414" y="375" type="line"/>
			<point x="414" y="510" type="line"/>
		</contour>
	</outline>
</glyph>
<glyph name="braceleft" format="2">
  <advance width="376"/>
  <unicode hex="007B"/>
  <outline>
    <contour>
      <point x="274" y="173" type="curve" smooth="yes"/>
      <point x="274" y="253"/>
      <point x="259" y="290"/>
      <point x="150" y="314" type="curve"/>
      <point x="259" y="338"/>
      <point x="273" y="369"/>
      <point x="273" y="449" type="curve" smooth="yes"/>
      <point x="273" y="482"/>
      <point x="266" y="534"/>
      <point x="266" y="567" type="curve" smooth="yes"/>
      <point x="266" y="607"/>
      <point x="281" y="635"/>
      <point x="342" y="640" type="curve"/>
      <point x="339" y="754" type="line"/>
      <point x="189" y="749"/>
      <point x="135" y="706"/>
      <point x="135" y="577" type="curve" smooth="yes"/>
      <point x="135" y="540"/>
      <point x="142" y="492"/>
      <point x="142" y="460" type="curve" smooth="yes"/>
      <point x="142" y="414"/>
      <point x="107" y="379"/>
      <point x="31" y="361" type="curve"/>
      <point x="31" y="267" type="line"/>
      <point x="106" y="247"/>
      <point x="142" y="206"/>
      <point x="142" y="160" type="curve" smooth="yes"/>
      <point x="142" y="131"/>
      <point x="135" y="82"/>
      <point x="135" y="43" type="curve" smooth="yes"/>
      <point x="135" y="-76"/>
      <point x="184" y="-124"/>
      <point x="339" y="-129" type="curve"/>
      <point x="342" y="-15" type="line"/>
      <point x="281" y="-10"/>
      <point x="267" y="20"/>
      <point x="267" y="60" type="curve" smooth="yes"/>
      <point x="267" y="93"/>
      <point x="274" y="140"/>
    </contour>
  </outline>
</glyph>
<glyph name="bar" format="2">
	<advance width="280"/>
	<unicode hex="007C"/>
	<outline>
		<contour>
			<point x="73" y="730" type="line"/>
			<point x="73" y="-230" type="line"/>
			<point x="207" y="-230" type="line"/>
			<point x="207" y="730" type="line"/>
		</contour>
	</outline>
</glyph>
<glyph name="asciitilde" format="2">
	<advance width="560"/>
	<unicode hex="007E"/>
	<outline>
		<contour>
			<point x="530" y="267" type="curve"/>
			<point x="490" y="354" type="line"/>
			<point x="490" y="354"/>
			<point x="426" y="316"/>
			<point x="387" y="316" type="curve" smooth="yes"/>
			<point x="339" y="316"/>
			<point x="238" y="360"/>
			<point x="184" y="360" type="curve" smooth="yes"/>
			<point x="124" y="360"/>
			<point x="30" y="288"/>
			<point x="30" y="288" type="curve"/>
			<point x="70" y="201" type="line"/>
			<point x="70" y="201"/>
			<point x="132" y="240"/>
			<point x="180" y="240" type="curve" smooth="yes"/>
			<point x="218" y="240"/>
			<point x="330" y="196"/>
			<point x="384" y="196" type="curve" smooth="yes"/>
			<point x="444" y="196"/>
			<point x="530" y="267"/>
		</contour>
	</outline>
</glyph>
<glyph name="cent" format="2">
	<advance width="466"/>
	<unicode hex="00A2"/>
	<outline>
		<contour>
			<point x="230" y="57" type="curve"/>
			<point x="230" y="-57" type="line"/>
			<point x="336" y="-57" type="line"/>
			<point x="336" y="62" type="line"/>
			<point x="378" y="65"/>
			<point x="417" y="73"/>
			<point x="417" y="73" type="curve"/>
			<point x="413" y="175" type="line"/>
			<point x="413" y="175"/>
			<point x="335" y="171"/>
			<point x="297" y="171" type="curve" smooth="yes"/>
			<point x="211" y="171"/>
			<point x="182" y="203"/>
			<point x="182" y="278" type="curve" smooth="yes"/>
			<point x="182" y="353"/>
			<point x="211" y="384"/>
			<point x="296" y="384" type="curve" smooth="yes"/>
			<point x="334" y="384"/>
			<point x="413" y="381"/>
			<point x="413" y="381" type="curve"/>
			<point x="417" y="481" type="line"/>
			<point x="417" y="481"/>
			<point x="379" y="490"/>
			<point x="336" y="494" type="curve"/>
			<point x="336" y="609" type="line"/>
			<point x="230" y="609" type="line"/>
			<point x="230" y="498" type="line"/>
			<point x="116" y="489"/>
			<point x="46" y="423"/>
			<point x="46" y="278" type="curve" smooth="yes"/>
			<point x="46" y="131"/>
			<point x="114" y="65"/>
		</contour>
	</outline>
</glyph>
<glyph name="sterling" format="2">
  <advance width="491"/>
  <unicode hex="00A3"/>
  <outline>
    <contour>
      <point x="429" y="544" type="curve"/>
      <point x="433" y="648" type="line"/>
      <point x="433" y="648"/>
      <point x="355" y="672"/>
      <point x="280" y="672" type="curve" smooth="yes"/>
      <point x="173" y="672"/>
      <point x="114" y="639"/>
      <point x="114" y="493" type="curve" smooth="yes"/>
      <point x="114" y="433" type="line"/>
      <point x="50" y="433" type="line"/>
      <point x="50" y="319" type="line"/>
      <point x="114" y="319" type="line"/>
      <point x="114" y="114" type="line"/>
      <point x="40" y="114" type="line"/>
      <point x="40" y="0" type="line"/>
      <point x="379" y="0" type="line"/>
      <point x="460" y="18" type="line"/>
      <point x="439" y="130" type="line"/>
      <point x="370" y="114" type="line"/>
      <point x="246" y="114" type="line"/>
      <point x="246" y="319" type="line"/>
      <point x="399" y="319" type="line"/>
      <point x="399" y="433" type="line"/>
      <point x="246" y="433" type="line"/>
      <point x="246" y="487" type="line" smooth="yes"/>
      <point x="246" y="532"/>
      <point x="262" y="552"/>
      <point x="298" y="552" type="curve" smooth="yes"/>
      <point x="361" y="552"/>
      <point x="429" y="544"/>
    </contour>
  </outline>
</glyph>
<glyph name="currency" format="2">
  <advance width="575"/>
  <unicode hex="00A4"/>
  <outline>
    <contour>
      <point x="372" y="101" type="curve"/>
      <point x="445" y="28" type="line"/>
      <point x="537" y="120" type="line"/>
      <point x="464" y="192" type="line"/>
      <point x="477" y="218"/>
      <point x="484" y="247"/>
      <point x="484" y="278" type="curve" smooth="yes"/>
      <point x="484" y="308"/>
      <point x="477" y="337"/>
      <point x="464" y="363" type="curve"/>
      <point x="537" y="436" type="line"/>
      <point x="445" y="528" type="line"/>
      <point x="372" y="455" type="line"/>
      <point x="346" y="468"/>
      <point x="317" y="475"/>
      <point x="287" y="475" type="curve" smooth="yes"/>
      <point x="256" y="475"/>
      <point x="227" y="468"/>
      <point x="201" y="455" type="curve"/>
      <point x="129" y="528" type="line"/>
      <point x="37" y="436" type="line"/>
      <point x="109" y="363" type="line"/>
      <point x="97" y="337"/>
      <point x="90" y="308"/>
      <point x="90" y="278" type="curve" smooth="yes"/>
      <point x="90" y="247"/>
      <point x="97" y="218"/>
      <point x="109" y="192" type="curve"/>
      <point x="37" y="120" type="line"/>
      <point x="129" y="28" type="line"/>
      <point x="202" y="101" type="line"/>
      <point x="228" y="88"/>
      <point x="256" y="81"/>
      <point x="287" y="81" type="curve" smooth="yes"/>
      <point x="317" y="81"/>
      <point x="346" y="88"/>
    </contour>
    <contour>
      <point x="287" y="192" type="curve" smooth="yes"/>
      <point x="240" y="192"/>
      <point x="201" y="231"/>
      <point x="201" y="278" type="curve" smooth="yes"/>
      <point x="201" y="325"/>
      <point x="240" y="364"/>
      <point x="287" y="364" type="curve" smooth="yes"/>
      <point x="334" y="364"/>
      <point x="373" y="325"/>
      <point x="373" y="278" type="curve" smooth="yes"/>
      <point x="373" y="231"/>
      <point x="334" y="192"/>
    </contour>
  </outline>
</glyph>
<glyph name="yen" format="2">
  <advance width="608"/>
  <unicode hex="00A5"/>
  <outline>
    <contour>
      <point x="372" y="0" type="line"/>
      <point x="372" y="268" type="line"/>
      <point x="592" y="660" type="line"/>
      <point x="444" y="660" type="line"/>
      <point x="304" y="392" type="line"/>
      <point x="164" y="660" type="line"/>
      <point x="16" y="660" type="line"/>
      <point x="238" y="268" type="line"/>
      <point x="238" y="0" type="line"/>
    </contour>
    <contour>
      <point x="519" y="198" type="line"/>
      <point x="91" y="198" type="line"/>
      <point x="91" y="88" type="line"/>
      <point x="519" y="88" type="line"/>
    </contour>
    <contour>
      <point x="519" y="372" type="line"/>
      <point x="91" y="372" type="line"/>
      <point x="91" y="262" type="line"/>
      <point x="519" y="262" type="line"/>
    </contour>
  </outline>
</glyph>
<glyph name="section" format="2">
  <advance width="526"/>
  <unicode hex="00A7"/>
  <outline>
    <contour>
      <point x="453" y="591" type="curve"/>
      <point x="459" y="701" type="line"/>
      <point x="459" y="701"/>
      <point x="352" y="726"/>
      <point x="279" y="726" type="curve" smooth="yes"/>
      <point x="137" y="726"/>
      <point x="58" y="667"/>
      <point x="58" y="540" type="curve" smooth="yes"/>
      <point x="58" y="480"/>
      <point x="73" y="451"/>
      <point x="103" y="430" type="curve"/>
      <point x="71" y="404"/>
      <point x="38" y="342"/>
      <point x="38" y="293" type="curve" smooth="yes"/>
      <point x="38" y="193"/>
      <point x="84" y="163"/>
      <point x="197" y="134" type="curve" smooth="yes"/>
      <point x="309" y="105"/>
      <point x="342" y="98"/>
      <point x="342" y="58" type="curve" smooth="yes"/>
      <point x="342" y="17"/>
      <point x="310" y="0"/>
      <point x="241" y="0" type="curve" smooth="yes"/>
      <point x="185" y="0"/>
      <point x="74" y="16"/>
      <point x="74" y="16" type="curve"/>
      <point x="61" y="-95" type="line"/>
      <point x="61" y="-95"/>
      <point x="179" y="-118"/>
      <point x="251" y="-118" type="curve" smooth="yes"/>
      <point x="405" y="-118"/>
      <point x="472" y="-64"/>
      <point x="472" y="69" type="curve" smooth="yes"/>
      <point x="472" y="136"/>
      <point x="458" y="157"/>
      <point x="433" y="180" type="curve"/>
      <point x="462" y="221"/>
      <point x="484" y="276"/>
      <point x="484" y="322" type="curve" smooth="yes"/>
      <point x="484" y="422"/>
      <point x="447" y="447"/>
      <point x="329" y="476" type="curve" smooth="yes"/>
      <point x="229" y="500"/>
      <point x="191" y="509"/>
      <point x="191" y="551" type="curve" smooth="yes"/>
      <point x="191" y="589"/>
      <point x="208" y="607"/>
      <point x="289" y="607" type="curve" smooth="yes"/>
      <point x="338" y="607"/>
      <point x="453" y="591"/>
    </contour>
    <contour>
      <point x="263" y="367" type="curve" smooth="yes"/>
      <point x="330" y="349"/>
      <point x="346" y="336"/>
      <point x="346" y="302" type="curve" smooth="yes"/>
      <point x="346" y="278"/>
      <point x="338" y="241"/>
      <point x="327" y="228" type="curve"/>
      <point x="304" y="236"/>
      <point x="273" y="246"/>
      <point x="237" y="256" type="curve" smooth="yes"/>
      <point x="188" y="270"/>
      <point x="175" y="278"/>
      <point x="175" y="319" type="curve" smooth="yes"/>
      <point x="175" y="340"/>
      <point x="185" y="372"/>
      <point x="193" y="384" type="curve"/>
      <point x="212" y="378"/>
      <point x="240" y="373"/>
    </contour>
  </outline>
</glyph>
<glyph name="copyright" format="2">
  <advance width="646"/>
  <unicode hex="00A9"/>
  <outline>
    <contour>
      <point x="323" y="680" type="curve" smooth="yes"/>
      <point x="445" y="680"/>
      <point x="536" y="578"/>
      <point x="536" y="456" type="curve" smooth="yes"/>
      <point x="536" y="334"/>
      <point x="445" y="232"/>
      <point x="323" y="232" type="curve" smooth="yes"/>
      <point x="201" y="232"/>
      <point x="110" y="334"/>
      <point x="110" y="456" type="curve" smooth="yes"/>
      <point x="110" y="578"/>
      <point x="201" y="680"/>
    </contour>
    <contour>
      <point x="46" y="456" type="curve" smooth="yes"/>
      <point x="46" y="293"/>
      <point x="166" y="172"/>
      <point x="323" y="172" type="curve" smooth="yes"/>
      <point x="480" y="172"/>
      <point x="600" y="293"/>
      <point x="600" y="456" type="curve" smooth="yes"/>
      <point x="600" y="617"/>
      <point x="483" y="740"/>
      <point x="323" y="740" type="curve" smooth="yes"/>
      <point x="163" y="740"/>
      <point x="46" y="617"/>
    </contour>
    <contour>
      <point x="414" y="314" type="curve"/>
      <point x="407" y="396" type="line"/>
      <point x="407" y="396"/>
      <point x="372" y="391"/>
      <point x="340" y="391" type="curve" smooth="yes"/>
      <point x="315" y="391"/>
      <point x="305" y="413"/>
      <point x="305" y="462" type="curve" smooth="yes"/>
      <point x="305" y="507"/>
      <point x="314" y="522"/>
      <point x="340" y="522" type="curve" smooth="yes"/>
      <point x="372" y="522"/>
      <point x="407" y="516"/>
      <point x="407" y="516" type="curve"/>
      <point x="414" y="602" type="line"/>
      <point x="414" y="602"/>
      <point x="382" y="617"/>
      <point x="334" y="617" type="curve" smooth="yes"/>
      <point x="242" y="617"/>
      <point x="202" y="580"/>
      <point x="202" y="462" type="curve" smooth="yes"/>
      <point x="202" y="330"/>
      <point x="242" y="296"/>
      <point x="330" y="296" type="curve" smooth="yes"/>
      <point x="386" y="296"/>
      <point x="414" y="314"/>
    </contour>
  </outline>
</glyph>
<glyph name="ordfeminine" format="2">
  <advance width="435"/>
  <unicode hex="00AA"/>
  <outline>
    <contour>
      <point x="362" y="480" type="curve" smooth="yes"/>
      <point x="362" y="611" type="line" smooth="yes"/>
      <point x="362" y="705"/>
      <point x="304" y="726"/>
      <point x="210" y="726" type="curve" smooth="yes"/>
      <point x="139" y="726"/>
      <point x="69" y="700"/>
      <point x="69" y="700" type="curve"/>
      <point x="72" y="625" type="line"/>
      <point x="72" y="625"/>
      <point x="159" y="632"/>
      <point x="203" y="632" type="curve" smooth="yes"/>
      <point x="232" y="632"/>
      <point x="247" y="627"/>
      <point x="247" y="617" type="curve" smooth="yes"/>
      <point x="247" y="595" type="line"/>
      <point x="180" y="592" type="line" smooth="yes"/>
      <point x="95" y="588"/>
      <point x="53" y="557"/>
      <point x="53" y="491" type="curve" smooth="yes"/>
      <point x="53" y="424"/>
      <point x="90" y="381"/>
      <point x="162" y="381" type="curve" smooth="yes"/>
      <point x="209" y="381"/>
      <point x="251" y="413"/>
      <point x="251" y="413" type="curve"/>
      <point x="282" y="384"/>
      <point x="320" y="378"/>
      <point x="379" y="380" type="curve"/>
      <point x="379" y="462" type="line"/>
      <point x="371" y="463"/>
      <point x="362" y="465"/>
    </contour>
    <contour>
      <point x="200" y="522" type="curve" smooth="yes"/>
      <point x="247" y="525" type="line"/>
      <point x="247" y="485" type="line"/>
      <point x="247" y="485"/>
      <point x="219" y="469"/>
      <point x="199" y="469" type="curve" smooth="yes"/>
      <point x="178" y="469"/>
      <point x="168" y="476"/>
      <point x="168" y="495" type="curve" smooth="yes"/>
      <point x="168" y="513"/>
      <point x="179" y="521"/>
    </contour>
    <contour>
      <point x="61" y="331" type="line"/>
      <point x="61" y="241" type="line"/>
      <point x="380" y="241" type="line"/>
      <point x="380" y="331" type="line"/>
    </contour>
  </outline>
</glyph>
<glyph name="logicalnot" format="2">
  <advance width="560"/>
  <unicode hex="00AC"/>
  <outline>
    <contour>
      <point x="495" y="393" type="line"/>
      <point x="59" y="393" type="line"/>
      <point x="59" y="277" type="line"/>
      <point x="375" y="277" type="line"/>
      <point x="375" y="141" type="line"/>
      <point x="495" y="141" type="line"/>
    </contour>
  </outline>
</glyph>
<glyph name="registered" format="2">
	<advance width="646"/>
	<unicode hex="00AE"/>
	<outline>
		<contour>
			<point x="327" y="394" type="line"/>
			<point x="358" y="305" type="line"/>
			<point x="455" y="305" type="line"/>
			<point x="414" y="411" type="line"/>
			<point x="443" y="435"/>
			<point x="455" y="465"/>
			<point x="455" y="503" type="curve" smooth="yes"/>
			<point x="455" y="587"/>
			<point x="406" y="608"/>
			<point x="341" y="608" type="curve" smooth="yes"/>
			<point x="205" y="608" type="line"/>
			<point x="205" y="305" type="line"/>
			<point x="301" y="305" type="line"/>
			<point x="301" y="394" type="line"/>
		</contour>
		<contour>
			<point x="300" y="461" type="line"/>
			<point x="300" y="538" type="line"/>
			<point x="327" y="538" type="line" smooth="yes"/>
			<point x="351" y="538"/>
			<point x="362" y="522"/>
			<point x="362" y="500" type="curve" smooth="yes"/>
			<point x="362" y="477"/>
			<point x="350" y="461"/>
			<point x="328" y="461" type="curve" smooth="yes"/>
		</contour>
		<contour>
			<point x="323" y="680" type="curve" smooth="yes"/>
			<point x="445" y="680"/>
			<point x="536" y="578"/>
			<point x="536" y="456" type="curve" smooth="yes"/>
			<point x="536" y="334"/>
			<point x="445" y="232"/>
			<point x="323" y="232" type="curve" smooth="yes"/>
			<point x="201" y="232"/>
			<point x="110" y="334"/>
			<point x="110" y="456" type="curve" smooth="yes"/>
			<point x="110" y="578"/>
			<point x="201" y="680"/>
		</contour>
		<contour>
			<point x="46" y="456" type="curve" smooth="yes"/>
			<point x="46" y="293"/>
			<point x="166" y="172"/>
			<point x="323" y="172" type="curve" smooth="yes"/>
			<point x="480" y="172"/>
			<point x="600" y="293"/>
			<point x="600" y="456" type="curve" smooth="yes"/>
			<point x="600" y="617"/>
			<point x="483" y="740"/>
			<point x="323" y="740" type="curve" smooth="yes"/>
			<point x="163" y="740"/>
			<point x="46" y="617"/>
		</contour>
	</outline>
</glyph>
<glyph name="degree" format="2">
	<advance width="406"/>
	<unicode hex="00B0"/>
	<outline>
		<contour>
			<point x="203" y="726" type="curve" smooth="yes"/>
			<point x="108" y="726"/>
			<point x="45" y="663"/>
			<point x="45" y="570" type="curve" smooth="yes"/>
			<point x="45" y="477"/>
			<point x="108" y="415"/>
			<point x="203" y="415" type="curve" smooth="yes"/>
			<point x="298" y="415"/>
			<point x="361" y="477"/>
			<point x="361" y="570" type="curve" smooth="yes"/>
			<point x="361" y="663"/>
			<point x="298" y="726"/>
		</contour>
		<contour>
			<point x="203" y="635" type="curve" smooth="yes"/>
			<point x="242" y="635"/>
			<point x="268" y="608"/>
			<point x="268" y="570" type="curve" smooth="yes"/>
			<point x="268" y="532"/>
			<point x="242" y="506"/>
			<point x="203" y="506" type="curve" smooth="yes"/>
			<point x="165" y="506"/>
			<point x="138" y="532"/>
			<point x="138" y="570" type="curve" smooth="yes"/>
			<point x="138" y="608"/>
			<point x="165" y="635"/>
		</contour>
	</outline>
</glyph>
<glyph name="plusminus" format="2">
  <advance width="560"/>
  <unicode hex="00B1"/>
  <outline>
    <contour>
      <point x="50" y="422" type="line"/>
      <point x="50" y="306" type="line"/>
      <point x="220" y="306" type="line"/>
      <point x="220" y="196" type="line"/>
      <point x="340" y="196" type="line"/>
      <point x="340" y="306" type="line"/>
      <point x="510" y="306" type="line"/>
      <point x="510" y="422" type="line"/>
      <point x="340" y="422" type="line"/>
      <point x="340" y="532" type="line"/>
      <point x="220" y="532" type="line"/>
      <point x="220" y="422" type="line"/>
    </contour>
    <contour>
      <point x="510" y="138" type="line"/>
      <point x="50" y="138" type="line"/>
      <point x="50" y="22" type="line"/>
      <point x="510" y="22" type="line"/>
    </contour>
  </outline>
</glyph>
<glyph name="micro" format="2">
	<advance width="568"/>
	<unicode hex="00B5"/>
	<outline>
		<contour>
			<point x="501" y="510" type="line"/>
			<point x="367" y="510" type="line"/>
			<point x="367" y="127" type="line"/>
			<point x="367" y="127"/>
			<point x="329" y="103"/>
			<point x="276" y="103" type="curve" smooth="yes"/>
			<point x="219" y="103"/>
			<point x="201" y="130"/>
			<point x="201" y="191" type="curve" smooth="yes"/>
			<point x="201" y="510" type="line"/>
			<point x="67" y="510" type="line"/>
			<point x="67" y="-230" type="line"/>
			<point x="197" y="-230" type="line"/>
			<point x="197" y="15" type="line"/>
			<point x="214" y="-1"/>
			<point x="246" y="-10"/>
			<point x="273" y="-10" type="curve" smooth="yes"/>
			<point x="329" y="-10"/>
			<point x="372" y="28"/>
			<point x="372" y="28" type="curve"/>
			<point x="372" y="0" type="line"/>
			<point x="501" y="0" type="line"/>
		</contour>
	</outline>
</glyph>
<glyph name="paragraph" format="2">
  <advance width="628"/>
  <unicode hex="00B6"/>
  <outline>
    <contour>
      <point x="414" y="590" type="line"/>
      <point x="414" y="0" type="line"/>
      <point x="532" y="0" type="line"/>
      <point x="532" y="590" type="line"/>
      <point x="588" y="590" type="line"/>
      <point x="588" y="700" type="line"/>
      <point x="219" y="700" type="line" smooth="yes"/>
      <point x="106" y="700"/>
      <point x="21" y="617"/>
      <point x="21" y="502" type="curve" smooth="yes"/>
      <point x="21" y="387"/>
      <point x="104" y="306"/>
      <point x="217" y="306" type="curve" smooth="yes"/>
      <point x="224" y="306" type="line"/>
      <point x="224" y="0" type="line"/>
      <point x="342" y="0" type="line"/>
      <point x="342" y="590" type="line"/>
    </contour>
  </outline>
</glyph>
<glyph name="periodcentered" format="2">
  <advance width="256"/>
  <unicode hex="00B7"/>
  <outline>
    <contour>
      <point x="56" y="359" type="line"/>
      <point x="56" y="194" type="line"/>
      <point x="200" y="194" type="line"/>
      <point x="200" y="359" type="line"/>
    </contour>
  </outline>
</glyph>
<glyph name="ordmasculine" format="2">
	<advance width="444"/>
	<unicode hex="00BA"/>
	<outline>
		<contour>
			<point x="223" y="726" type="curve" smooth="yes"/>
			<point x="111" y="726"/>
			<point x="52" y="674"/>
			<point x="52" y="556" type="curve" smooth="yes"/>
			<point x="52" y="437"/>
			<point x="111" y="381"/>
			<point x="223" y="381" type="curve" smooth="yes"/>
			<point x="334" y="381"/>
			<point x="392" y="437"/>
			<point x="392" y="556" type="curve" smooth="yes"/>
			<point x="392" y="674"/>
			<point x="334" y="726"/>
		</contour>
		<contour>
			<point x="223" y="484" type="curve" smooth="yes"/>
			<point x="183" y="484"/>
			<point x="172" y="509"/>
			<point x="172" y="555" type="curve" smooth="yes"/>
			<point x="172" y="601"/>
			<point x="183" y="624"/>
			<point x="223" y="624" type="curve" smooth="yes"/>
			<point x="263" y="624"/>
			<point x="271" y="601"/>
			<point x="271" y="555" type="curve" smooth="yes"/>
			<point x="271" y="509"/>
			<point x="263" y="484"/>
		</contour>
		<contour>
			<point x="62" y="331" type="line"/>
			<point x="62" y="241" type="line"/>
			<point x="382" y="241" type="line"/>
			<point x="382" y="331" type="line"/>
		</contour>
	</outline>
</glyph>
<glyph name="AE" format="2">
  <advance width="857"/>
  <unicode hex="00C6"/>
  <anchor x="534" y="0" name="bottom"/>
  <anchor x="534" y="700" name="top"/>
  <outline>
    <contour>
      <point x="375" y="580" type="line"/>
      <point x="375" y="0" type="line"/>
      <point x="815" y="0" type="line"/>
      <point x="815" y="120" type="line"/>
      <point x="513" y="120" type="line"/>
      <point x="513" y="293" type="line"/>
      <point x="755" y="293" type="line"/>
      <point x="755" y="411" type="line"/>
      <point x="513" y="411" type="line"/>
      <point x="513" y="580" type="line"/>
      <point x="815" y="580" type="line"/>
      <point x="815" y="700" type="line"/>
      <point x="220" y="700" type="line"/>
      <point x="-7" y="0" type="line"/>
      <point x="133" y="0" type="line"/>
      <point x="315" y="580" type="line"/>
    </contour>
    <contour>
      <point x="391" y="148" type="line"/>
      <point x="391" y="268" type="line"/>
      <point x="180" y="268" type="line"/>
      <point x="146" y="148" type="line"/>
    </contour>
  </outline>
</glyph>
<glyph name="multiply" format="2">
	<advance width="560"/>
	<unicode hex="00D7"/>
	<outline>
		<contour>
			<point x="139" y="500" type="line"/>
			<point x="57" y="418" type="line"/>
			<point x="198" y="277" type="line"/>
			<point x="57" y="136" type="line"/>
			<point x="139" y="54" type="line"/>
			<point x="280" y="195" type="line"/>
			<point x="421" y="54" type="line"/>
			<point x="503" y="136" type="line"/>
			<point x="362" y="277" type="line"/>
			<point x="503" y="418" type="line"/>
			<point x="421" y="500" type="line"/>
			<point x="280" y="359" type="line"/>
		</contour>
	</outline>
</glyph>
<glyph name="Thorn" format="2">
	<advance width="603"/>
	<unicode hex="00DE"/>
	<outline>
		<contour>
			<point x="74" y="593" type="line"/>
			<point x="74" y="121" type="line"/>
			<point x="323" y="121" type="line" smooth="yes"/>
			<point x="483" y="121"/>
			<point x="565" y="208"/>
			<point x="565" y="361" type="curve" smooth="yes"/>
			<point x="565" y="514"/>
			<point x="483" y="593"/>
			<point x="323" y="593" type="curve" smooth="yes"/>
		</contour>
		<contour>
			<point x="322" y="239" type="curve" smooth="yes"/>
			<point x="212" y="239" type="line"/>
			<point x="212" y="475" type="line"/>
			<point x="322" y="475" type="line" smooth="yes"/>
			<point x="391" y="475"/>
			<point x="425" y="441"/>
			<point x="425" y="361" type="curve" smooth="yes"/>
			<point x="425" y="280"/>
			<point x="391" y="239"/>
		</contour>
		<component base="I"/>
	</outline>
</glyph>
<glyph name="germandbls" format="2">
  <advance width="628"/>
  <unicode hex="00DF"/>
  <outline>
    <contour>
      <point x="62" y="0" type="line"/>
      <point x="196" y="0" type="line"/>
      <point x="196" y="547" type="line" smooth="yes"/>
      <point x="196" y="599"/>
      <point x="224" y="626"/>
      <point x="303" y="626" type="curve" smooth="yes"/>
      <point x="367" y="626"/>
      <point x="402" y="608"/>
      <point x="402" y="573" type="curve" smooth="yes"/>
      <point x="402" y="547"/>
      <point x="383" y="535"/>
      <point x="333" y="502" type="curve" smooth="yes"/>
      <point x="283" y="469"/>
      <point x="256" y="433"/>
      <point x="256" y="365" type="curve" smooth="yes"/>
      <point x="256" y="309"/>
      <point x="275" y="280"/>
      <point x="332" y="255" type="curve" smooth="yes"/>
      <point x="425" y="214" type="line" smooth="yes"/>
      <point x="463" y="197"/>
      <point x="467" y="183"/>
      <point x="467" y="162" type="curve" smooth="yes"/>
      <point x="467" y="133"/>
      <point x="452" y="106"/>
      <point x="390" y="106" type="curve" smooth="yes"/>
      <point x="350" y="106"/>
      <point x="253" y="118"/>
      <point x="253" y="118" type="curve"/>
      <point x="249" y="11" type="line"/>
      <point x="249" y="11"/>
      <point x="337" y="-12"/>
      <point x="407" y="-12" type="curve" smooth="yes"/>
      <point x="538" y="-12"/>
      <point x="605" y="65"/>
      <point x="605" y="175" type="curve" smooth="yes"/>
      <point x="605" y="245"/>
      <point x="582" y="285"/>
      <point x="514" y="314" type="curve" smooth="yes"/>
      <point x="427" y="351" type="line" smooth="yes"/>
      <point x="396" y="364"/>
      <point x="386" y="376"/>
      <point x="386" y="394" type="curve" smooth="yes"/>
      <point x="386" y="420"/>
      <point x="404" y="432"/>
      <point x="446" y="456" type="curve" smooth="yes"/>
      <point x="505" y="490"/>
      <point x="537" y="516"/>
      <point x="537" y="587" type="curve" smooth="yes"/>
      <point x="537" y="697"/>
      <point x="453" y="740"/>
      <point x="303" y="740" type="curve" smooth="yes"/>
      <point x="122" y="740"/>
      <point x="62" y="677"/>
      <point x="62" y="530" type="curve" smooth="yes"/>
    </contour>
  </outline>
</glyph>
<glyph name="ae" format="2">
  <advance width="803"/>
  <unicode hex="00E6"/>
  <anchor x="399" y="0" name="bottom"/>
  <anchor x="395" y="500" name="top"/>
  <outline>
    <contour>
      <point x="553" y="108" type="curve" smooth="yes"/>
      <point x="474" y="108"/>
      <point x="455" y="130"/>
      <point x="454" y="194" type="curve"/>
      <point x="754" y="194" type="line"/>
      <point x="764" y="290" type="line"/>
      <point x="764" y="450"/>
      <point x="692" y="526"/>
      <point x="542" y="526" type="curve" smooth="yes"/>
      <point x="487" y="526"/>
      <point x="440" y="514"/>
      <point x="405" y="472" type="curve"/>
      <point x="375" y="516"/>
      <point x="331" y="526"/>
      <point x="275" y="526" type="curve" smooth="yes"/>
      <point x="170" y="526"/>
      <point x="61" y="489"/>
      <point x="61" y="489" type="curve"/>
      <point x="66" y="394" type="line"/>
      <point x="66" y="394"/>
      <point x="191" y="410"/>
      <point x="266" y="410" type="curve" smooth="yes"/>
      <point x="296" y="410"/>
      <point x="317" y="392"/>
      <point x="317" y="364" type="curve" smooth="yes"/>
      <point x="317" y="318" type="line"/>
      <point x="207" y="309" type="line" smooth="yes"/>
      <point x="97" y="300"/>
      <point x="30" y="268"/>
      <point x="30" y="153" type="curve" smooth="yes"/>
      <point x="30" y="51"/>
      <point x="81" y="-12"/>
      <point x="182" y="-12" type="curve" smooth="yes"/>
      <point x="256" y="-12"/>
      <point x="320" y="10"/>
      <point x="356" y="25" type="curve" smooth="yes"/>
      <point x="380" y="35" type="line"/>
      <point x="410" y="6"/>
      <point x="466" y="-14"/>
      <point x="536" y="-14" type="curve" smooth="yes"/>
      <point x="631" y="-14"/>
      <point x="748" y="15"/>
      <point x="748" y="15" type="curve"/>
      <point x="746" y="116" type="line"/>
      <point x="746" y="116"/>
      <point x="637" y="108"/>
    </contour>
    <contour>
      <point x="217" y="99" type="curve" smooth="yes"/>
      <point x="184" y="99"/>
      <point x="168" y="122"/>
      <point x="168" y="157" type="curve" smooth="yes"/>
      <point x="168" y="194"/>
      <point x="189" y="210"/>
      <point x="225" y="214" type="curve" smooth="yes"/>
      <point x="317" y="223" type="line"/>
      <point x="317" y="191"/>
      <point x="319" y="147"/>
      <point x="330" y="116" type="curve"/>
      <point x="330" y="116"/>
      <point x="254" y="99"/>
    </contour>
    <contour>
      <point x="630" y="299" type="curve"/>
      <point x="454" y="299" type="line"/>
      <point x="454" y="383"/>
      <point x="480" y="414"/>
      <point x="546" y="414" type="curve" smooth="yes"/>
      <point x="610" y="414"/>
      <point x="630" y="388"/>
    </contour>
  </outline>
</glyph>
<glyph name="eth" format="2">
  <advance width="570"/>
  <unicode hex="00F0"/>
  <outline>
    <contour>
      <point x="111" y="571" type="line"/>
      <point x="165" y="495" type="line"/>
      <point x="294" y="581" type="line"/>
      <point x="356" y="546"/>
      <point x="377" y="501"/>
      <point x="383" y="414" type="curve"/>
      <point x="383" y="414"/>
      <point x="322" y="438"/>
      <point x="247" y="438" type="curve" smooth="yes"/>
      <point x="104" y="438"/>
      <point x="35" y="350"/>
      <point x="35" y="214" type="curve" smooth="yes"/>
      <point x="35" y="64"/>
      <point x="120" y="-9"/>
      <point x="269" y="-9" type="curve" smooth="yes"/>
      <point x="455" y="-9"/>
      <point x="525" y="106"/>
      <point x="525" y="331" type="curve" smooth="yes"/>
      <point x="525" y="507"/>
      <point x="482" y="596"/>
      <point x="402" y="653" type="curve"/>
      <point x="456" y="689" type="line"/>
      <point x="402" y="765" type="line"/>
      <point x="306" y="701" type="line"/>
      <point x="247" y="721"/>
      <point x="177" y="734"/>
      <point x="97" y="740" type="curve"/>
      <point x="79" y="646" type="line"/>
      <point x="120" y="638"/>
      <point x="156" y="630"/>
      <point x="187" y="622" type="curve"/>
    </contour>
    <contour>
      <point x="269" y="322" type="curve" smooth="yes"/>
      <point x="322" y="322"/>
      <point x="383" y="298"/>
      <point x="383" y="298" type="curve"/>
      <point x="383" y="162"/>
      <point x="343" y="111"/>
      <point x="269" y="111" type="curve" smooth="yes"/>
      <point x="204" y="111"/>
      <point x="177" y="147"/>
      <point x="177" y="214" type="curve" smooth="yes"/>
      <point x="177" y="263"/>
      <point x="191" y="322"/>
    </contour>
  </outline>
</glyph>
<glyph name="divide" format="2">
	<advance width="560"/>
	<unicode hex="00F7"/>
	<outline>
		<contour>
			<point x="60" y="219" type="line"/>
			<point x="500" y="219" type="line"/>
			<point x="500" y="335" type="line"/>
			<point x="60" y="335" type="line"/>
		</contour>
		<contour>
			<point x="214" y="157" type="line"/>
			<point x="214" y="37" type="line"/>
			<point x="346" y="37" type="line"/>
			<point x="346" y="157" type="line"/>
		</contour>
		<contour>
			<point x="214" y="517" type="line"/>
			<point x="214" y="397" type="line"/>
			<point x="346" y="397" type="line"/>
			<point x="346" y="517" type="line"/>
		</contour>
	</outline>
</glyph>
<glyph name="oslash" format="2">
	<advance width="536"/>
	<unicode hex="00F8"/>
	<anchor x="262" y="510" name="top"/>
	<outline>
		<contour>
			<point x="370" y="574" type="line"/>
			<point x="69" y="-30" type="line"/>
			<point x="161" y="-74" type="line"/>
			<point x="462" y="530" type="line"/>
		</contour>
		<component base="o"/>
	</outline>
</glyph>
<glyph name="thorn" format="2">
	<advance width="545"/>
	<unicode hex="00FE"/>
	<outline>
		<contour>
			<point x="62" y="730" type="line"/>
			<point x="62" y="-230" type="line"/>
			<point x="196" y="-230" type="line"/>
			<point x="196" y="2" type="line"/>
			<point x="196" y="2"/>
			<point x="232" y="-10"/>
			<point x="292" y="-10" type="curve" smooth="yes"/>
			<point x="422" y="-10"/>
			<point x="506" y="43"/>
			<point x="506" y="265" type="curve" smooth="yes"/>
			<point x="506" y="456"/>
			<point x="431" y="526"/>
			<point x="327" y="526" type="curve" smooth="yes"/>
			<point x="250" y="526"/>
			<point x="195" y="489"/>
			<point x="195" y="489" type="curve"/>
			<point x="195" y="730" type="line"/>
		</contour>
		<contour>
			<point x="285" y="408" type="curve" smooth="yes"/>
			<point x="336" y="408"/>
			<point x="370" y="381"/>
			<point x="370" y="265" type="curve" smooth="yes"/>
			<point x="370" y="160"/>
			<point x="349" y="106"/>
			<point x="269" y="106" type="curve" smooth="yes"/>
			<point x="241" y="106"/>
			<point x="196" y="112"/>
			<point x="196" y="112" type="curve"/>
			<point x="196" y="388" type="line"/>
			<point x="196" y="388"/>
			<point x="242" y="408"/>
		</contour>
	</outline>
</glyph>
<glyph name="idotless" format="2">
	<advance width="258"/>
	<unicode hex="0131"/>
	<anchor x="129" y="0" name="bottom"/>
	<anchor x="196" y="0" name="ogonek"/>
	<anchor x="129" y="510" name="top"/>
	<outline>
		<contour>
			<point x="62" y="510" type="line"/>
			<point x="62" y="0" type="line"/>
			<point x="196" y="0" type="line"/>
			<point x="196" y="510" type="line"/>
		</contour>
	</outline>
</glyph>
<glyph name="Eng" format="2">
	<advance width="729"/>
	<unicode hex="014A"/>
	<outline>
		<contour>
			<point x="72" y="700" type="line"/>
			<point x="72" y="0" type="line"/>
			<point x="210" y="0" type="line"/>
			<point x="210" y="580" type="line"/>
			<point x="240" y="580" type="line"/>
			<point x="410" y="0" type="line"/>
			<point x="519" y="0" type="line"/>
			<point x="519" y="-21" type="line" smooth="yes"/>
			<point x="519" y="-78"/>
			<point x="493" y="-92"/>
			<point x="443" y="-92" type="curve"/>
			<point x="443" y="-212" type="line"/>
			<point x="593" y="-212"/>
			<point x="657" y="-177"/>
			<point x="657" y="-27" type="curve" smooth="yes"/>
			<point x="657" y="700" type="line"/>
			<point x="519" y="700" type="line"/>
			<point x="519" y="120" type="line"/>
			<point x="489" y="120" type="line"/>
			<point x="323" y="700" type="line"/>
		</contour>
	</outline>
</glyph>
<glyph name="eng" format="2">
  <advance width="553"/>
  <unicode hex="014B"/>
  <outline>
    <contour>
      <point x="496" y="-27" type="curve" smooth="yes"/>
      <point x="496" y="30" type="line"/>
      <point x="362" y="30" type="line"/>
      <point x="362" y="-21" type="line" smooth="yes"/>
      <point x="362" y="-78"/>
      <point x="337" y="-92"/>
      <point x="286" y="-92" type="curve"/>
      <point x="286" y="-212" type="line"/>
      <point x="437" y="-212"/>
      <point x="496" y="-177"/>
    </contour>
    <component base="n"/>
  </outline>
</glyph>
<glyph name="OE" format="2">
	<advance width="893"/>
	<unicode hex="0152"/>
	<anchor x="507" y="0" name="bottom"/>
	<anchor x="507" y="700" name="top"/>
	<outline>
		<contour>
			<point x="426" y="0" type="curve"/>
			<point x="848" y="0" type="line"/>
			<point x="848" y="120" type="line"/>
			<point x="562" y="120" type="line"/>
			<point x="562" y="293" type="line"/>
			<point x="788" y="293" type="line"/>
			<point x="788" y="411" type="line"/>
			<point x="562" y="411" type="line"/>
			<point x="562" y="580" type="line"/>
			<point x="848" y="580" type="line"/>
			<point x="848" y="700" type="line"/>
			<point x="424" y="700" type="line"/>
			<point x="387" y="706"/>
			<point x="344" y="710"/>
			<point x="307" y="710" type="curve" smooth="yes"/>
			<point x="115" y="710"/>
			<point x="47" y="615"/>
			<point x="47" y="355" type="curve" smooth="yes"/>
			<point x="47" y="105"/>
			<point x="97" y="-10"/>
			<point x="307" y="-10" type="curve" smooth="yes"/>
			<point x="344" y="-10"/>
			<point x="388" y="-6"/>
		</contour>
		<contour>
			<point x="331" y="112" type="curve" smooth="yes"/>
			<point x="213" y="112"/>
			<point x="189" y="162"/>
			<point x="189" y="355" type="curve" smooth="yes"/>
			<point x="189" y="548"/>
			<point x="222" y="588"/>
			<point x="327" y="588" type="curve" smooth="yes"/>
			<point x="352" y="588"/>
			<point x="389" y="585"/>
			<point x="424" y="582" type="curve"/>
			<point x="424" y="118" type="line"/>
			<point x="390" y="115"/>
			<point x="353" y="112"/>
		</contour>
	</outline>
</glyph>
<glyph name="oe" format="2">
	<advance width="837"/>
	<unicode hex="0153"/>
	<anchor x="418" y="0" name="bottom"/>
	<anchor x="418" y="500" name="top"/>
	<outline>
		<contour>
			<point x="603" y="104" type="curve" smooth="yes"/>
			<point x="518" y="104"/>
			<point x="497" y="137"/>
			<point x="497" y="209" type="curve"/>
			<point x="791" y="209" type="line"/>
			<point x="801" y="302" type="line"/>
			<point x="801" y="451"/>
			<point x="730" y="526"/>
			<point x="583" y="526" type="curve" smooth="yes"/>
			<point x="518" y="526"/>
			<point x="467" y="509"/>
			<point x="430" y="446" type="curve"/>
			<point x="394" y="507"/>
			<point x="342" y="526"/>
			<point x="268" y="526" type="curve" smooth="yes"/>
			<point x="94" y="526"/>
			<point x="38" y="420"/>
			<point x="38" y="250" type="curve" smooth="yes"/>
			<point x="38" y="92"/>
			<point x="94" y="-14"/>
			<point x="268" y="-14" type="curve" smooth="yes"/>
			<point x="338" y="-14"/>
			<point x="388" y="1"/>
			<point x="424" y="52" type="curve"/>
			<point x="459" y="-1"/>
			<point x="509" y="-14"/>
			<point x="577" y="-14" type="curve" smooth="yes"/>
			<point x="670" y="-14"/>
			<point x="785" y="4"/>
			<point x="785" y="4" type="curve"/>
			<point x="783" y="103" type="line"/>
			<point x="783" y="103"/>
			<point x="675" y="104"/>
		</contour>
		<contour>
			<point x="268" y="98" type="curve" smooth="yes"/>
			<point x="194" y="98"/>
			<point x="174" y="150"/>
			<point x="174" y="250" type="curve" smooth="yes"/>
			<point x="174" y="359"/>
			<point x="194" y="412"/>
			<point x="268" y="412" type="curve" smooth="yes"/>
			<point x="342" y="412"/>
			<point x="362" y="359"/>
			<point x="362" y="250" type="curve" smooth="yes"/>
			<point x="362" y="149"/>
			<point x="342" y="98"/>
		</contour>
		<contour>
			<point x="669" y="311" type="curve"/>
			<point x="496" y="311" type="line"/>
			<point x="496" y="384"/>
			<point x="519" y="416"/>
			<point x="583" y="416" type="curve" smooth="yes"/>
			<point x="646" y="416"/>
			<point x="669" y="390"/>
		</contour>
	</outline>
</glyph>
<glyph name="Schwa" format="2">
	<advance width="644"/>
	<unicode hex="018F"/>
	<outline>
		<contour>
			<point x="306" y="604" type="curve" smooth="yes"/>
			<point x="410" y="604"/>
			<point x="451" y="576"/>
			<point x="453" y="398" type="curve"/>
			<point x="52" y="398" type="line"/>
			<point x="38" y="291" type="line"/>
			<point x="38" y="93"/>
			<point x="139" y="-14"/>
			<point x="313" y="-14" type="curve" smooth="yes"/>
			<point x="499" y="-14"/>
			<point x="598" y="110"/>
			<point x="598" y="374" type="curve" smooth="yes"/>
			<point x="598" y="620"/>
			<point x="525" y="726"/>
			<point x="317" y="726" type="curve" smooth="yes"/>
			<point x="210" y="726"/>
			<point x="67" y="697"/>
			<point x="67" y="697" type="curve"/>
			<point x="70" y="584" type="line"/>
			<point x="70" y="584"/>
			<point x="219" y="604"/>
		</contour>
		<contour>
			<point x="169" y="278" type="curve"/>
			<point x="454" y="278" type="line"/>
			<point x="453" y="149"/>
			<point x="398" y="102"/>
			<point x="314" y="102" type="curve" smooth="yes"/>
			<point x="217" y="102"/>
			<point x="169" y="162"/>
		</contour>
	</outline>
</glyph>
<glyph name="Eopen" format="2">
	<advance width="539"/>
	<unicode hex="0190"/>
	<outline>
		<contour>
			<point x="498" y="688" type="line"/>
			<point x="498" y="688"/>
			<point x="405" y="726"/>
			<point x="277" y="726" type="curve" smooth="yes"/>
			<point x="123" y="726"/>
			<point x="58" y="646"/>
			<point x="58" y="525" type="curve" smooth="yes"/>
			<point x="58" y="442"/>
			<point x="91" y="402"/>
			<point x="140" y="373" type="curve"/>
			<point x="82" y="341"/>
			<point x="46" y="306"/>
			<point x="46" y="199" type="curve" smooth="yes"/>
			<point x="46" y="62"/>
			<point x="113" y="-14"/>
			<point x="275" y="-14" type="curve" smooth="yes"/>
			<point x="379" y="-14"/>
			<point x="503" y="20"/>
			<point x="503" y="20" type="curve"/>
			<point x="496" y="121" type="line"/>
			<point x="496" y="121"/>
			<point x="373" y="103"/>
			<point x="304" y="103" type="curve" smooth="yes"/>
			<point x="220" y="103"/>
			<point x="187" y="133"/>
			<point x="187" y="201" type="curve" smooth="yes"/>
			<point x="187" y="273"/>
			<point x="218" y="307"/>
			<point x="289" y="307" type="curve" smooth="yes"/>
			<point x="430" y="307" type="line"/>
			<point x="430" y="418" type="line"/>
			<point x="289" y="418" type="line" smooth="yes"/>
			<point x="231" y="418"/>
			<point x="200" y="452"/>
			<point x="200" y="508" type="curve" smooth="yes"/>
			<point x="200" y="578"/>
			<point x="233" y="608"/>
			<point x="317" y="608" type="curve" smooth="yes"/>
			<point x="388" y="608"/>
			<point x="489" y="589"/>
			<point x="489" y="589" type="curve"/>
		</contour>
	</outline>
</glyph>
<glyph name="florin" format="2">
  <advance width="447"/>
  <unicode hex="0192"/>
  <outline>
    <contour>
      <point x="293" y="-57" type="curve" smooth="yes"/>
      <point x="293" y="338" type="line"/>
      <point x="414" y="338" type="line"/>
      <point x="414" y="452" type="line"/>
      <point x="293" y="452" type="line"/>
      <point x="293" y="483" type="line" smooth="yes"/>
      <point x="293" y="533"/>
      <point x="303" y="552"/>
      <point x="341" y="552" type="curve" smooth="yes"/>
      <point x="373" y="552"/>
      <point x="417" y="550"/>
      <point x="417" y="550" type="curve"/>
      <point x="417" y="659" type="line"/>
      <point x="417" y="659"/>
      <point x="339" y="672"/>
      <point x="305" y="672" type="curve" smooth="yes"/>
      <point x="195" y="672"/>
      <point x="159" y="627"/>
      <point x="159" y="484" type="curve" smooth="yes"/>
      <point x="159" y="452" type="line"/>
      <point x="85" y="452" type="line"/>
      <point x="85" y="338" type="line"/>
      <point x="159" y="338" type="line"/>
      <point x="159" y="-54" type="line" smooth="yes"/>
      <point x="159" y="-104"/>
      <point x="136" y="-120"/>
      <point x="108" y="-120" type="curve" smooth="yes"/>
      <point x="80" y="-120"/>
      <point x="16" y="-117"/>
      <point x="16" y="-117" type="curve"/>
      <point x="16" y="-227" type="line"/>
      <point x="16" y="-227"/>
      <point x="72" y="-240"/>
      <point x="125" y="-240" type="curve" smooth="yes"/>
      <point x="239" y="-240"/>
      <point x="293" y="-199"/>
    </contour>
  </outline>
</glyph>
<glyph name="Nhookleft" format="2">
  <advance width="729"/>
  <unicode hex="019D"/>
  <outline>
    <contour>
      <point x="212" y="-27" type="curve" smooth="yes"/>
      <point x="212" y="30" type="line"/>
      <point x="74" y="30" type="line"/>
      <point x="74" y="-21" type="line" smooth="yes"/>
      <point x="74" y="-78"/>
      <point x="49" y="-92"/>
      <point x="-2" y="-92" type="curve"/>
      <point x="-2" y="-212" type="line"/>
      <point x="149" y="-212"/>
      <point x="212" y="-177"/>
    </contour>
    <component base="N"/>
  </outline>
</glyph>
<glyph name="jdotless" format="2">
	<advance width="258"/>
	<unicode hex="0237"/>
	<anchor x="109" y="-230" name="bottom"/>
	<anchor x="129" y="510" name="top"/>
	<outline>
		<contour>
			<point x="62" y="510" type="line"/>
			<point x="62" y="14" type="line" smooth="yes"/>
			<point x="62" y="-71"/>
			<point x="47" y="-87"/>
			<point x="-35" y="-141" type="curve"/>
			<point x="18" y="-240" type="line"/>
			<point x="157" y="-170"/>
			<point x="196" y="-126"/>
			<point x="196" y="13" type="curve" smooth="yes"/>
			<point x="196" y="510" type="line"/>
		</contour>
	</outline>
</glyph>
<glyph name="eopen" format="2">
	<advance width="478"/>
	<unicode hex="025B"/>
	<outline>
		<contour>
			<point x="445" y="505" type="line"/>
			<point x="445" y="505"/>
			<point x="378" y="526"/>
			<point x="259" y="526" type="curve" smooth="yes"/>
			<point x="95" y="526"/>
			<point x="48" y="467"/>
			<point x="48" y="378" type="curve" smooth="yes"/>
			<point x="48" y="317"/>
			<point x="70" y="296"/>
			<point x="108" y="271" type="curve"/>
			<point x="65" y="248"/>
			<point x="39" y="221"/>
			<point x="39" y="149" type="curve" smooth="yes"/>
			<point x="39" y="46"/>
			<point x="88" y="-10"/>
			<point x="250" y="-10" type="curve" smooth="yes"/>
			<point x="359" y="-10"/>
			<point x="449" y="15"/>
			<point x="449" y="14" type="curve"/>
			<point x="444" y="103" type="line"/>
			<point x="444" y="103"/>
			<point x="354" y="90"/>
			<point x="279" y="90" type="curve" smooth="yes"/>
			<point x="195" y="90"/>
			<point x="171" y="111"/>
			<point x="171" y="156" type="curve" smooth="yes"/>
			<point x="171" y="193"/>
			<point x="188" y="221"/>
			<point x="240" y="221" type="curve" smooth="yes"/>
			<point x="376" y="221" type="line"/>
			<point x="376" y="306" type="line"/>
			<point x="240" y="306" type="line" smooth="yes"/>
			<point x="198" y="306"/>
			<point x="180" y="325"/>
			<point x="180" y="358" type="curve" smooth="yes"/>
			<point x="180" y="409"/>
			<point x="204" y="426"/>
			<point x="291" y="426" type="curve" smooth="yes"/>
			<point x="365" y="426"/>
			<point x="439" y="414"/>
			<point x="439" y="414" type="curve"/>
		</contour>
	</outline>
</glyph>
<glyph name="nhookleft" format="2">
	<advance width="553"/>
	<unicode hex="0272"/>
	<outline>
		<contour>
			<point x="196" y="-27" type="curve" smooth="yes"/>
			<point x="196" y="30" type="line"/>
			<point x="62" y="30" type="line"/>
			<point x="62" y="-21" type="line" smooth="yes"/>
			<point x="62" y="-78"/>
			<point x="37" y="-92"/>
			<point x="-14" y="-92" type="curve"/>
			<point x="-14" y="-212" type="line"/>
			<point x="137" y="-212"/>
			<point x="196" y="-177"/>
		</contour>
		<component base="n"/>
	</outline>
</glyph>
<glyph name="ubar" format="2">
	<advance width="592"/>
	<unicode hex="0289"/>
	<outline>
		<contour>
			<point x="20" y="353" type="line"/>
			<point x="20" y="243" type="line"/>
			<point x="564" y="243" type="line"/>
			<point x="564" y="353" type="line"/>
		</contour>
		<component base="u" xOffset="18"/>
	</outline>
</glyph>
<glyph name="gravecomb" format="2">
	<advance width="406"/>
	<unicode hex="0300"/>
	<anchor x="228" y="510" name="_top"/>
	<anchor x="203" y="753" name="top"/>
	<outline>
		<contour>
			<point x="356" y="651" type="line"/>
			<point x="88" y="753" type="line"/>
			<point x="50" y="638" type="line"/>
			<point x="328" y="564" type="line"/>
		</contour>
	</outline>
</glyph>
<glyph name="circumflexcomb" format="2">
	<advance width="478"/>
	<unicode hex="0302"/>
	<anchor x="239" y="510" name="_top"/>
	<anchor x="239" y="753" name="top"/>
	<outline>
		<contour>
			<point x="239" y="667" type="line"/>
			<point x="308" y="569" type="line"/>
			<point x="428" y="569" type="line"/>
			<point x="297" y="746" type="line"/>
			<point x="181" y="746" type="line"/>
			<point x="50" y="569" type="line"/>
			<point x="170" y="569" type="line"/>
		</contour>
	</outline>
</glyph>
<glyph name="tildecomb" format="2">
  <advance width="480"/>
  <unicode hex="0303"/>
  <anchor x="240" y="510" name="_top"/>
  <anchor x="240" y="725" name="top"/>
  <outline>
    <contour>
      <point x="430" y="643" type="curve"/>
      <point x="386" y="713" type="line"/>
      <point x="386" y="713"/>
      <point x="332" y="679"/>
      <point x="306" y="679" type="curve" smooth="yes"/>
      <point x="278" y="679"/>
      <point x="210" y="715"/>
      <point x="169" y="715" type="curve" smooth="yes"/>
      <point x="117" y="715"/>
      <point x="50" y="650"/>
      <point x="50" y="650" type="curve"/>
      <point x="94" y="580" type="line"/>
      <point x="94" y="580"/>
      <point x="143" y="611"/>
      <point x="171" y="611" type="curve" smooth="yes"/>
      <point x="204" y="611"/>
      <point x="268" y="575"/>
      <point x="310" y="575" type="curve" smooth="yes"/>
      <point x="362" y="575"/>
      <point x="430" y="643"/>
    </contour>
  </outline>
</glyph>
<glyph name="macroncomb" format="2">
  <advance width="387"/>
  <unicode hex="0304"/>
  <anchor x="194" y="510" name="_top"/>
  <anchor x="194" y="687" name="top"/>
  <outline>
    <contour>
      <point x="50" y="687" type="line"/>
      <point x="50" y="587" type="line"/>
      <point x="337" y="587" type="line"/>
      <point x="337" y="687" type="line"/>
    </contour>
  </outline>
</glyph>
<glyph name="brevecomb" format="2">
  <advance width="438"/>
  <unicode hex="0306"/>
  <anchor x="219" y="510" name="_top"/>
  <anchor x="219" y="730" name="top"/>
  <outline>
    <contour>
      <point x="150" y="730" type="curve"/>
      <point x="50" y="730" type="line"/>
      <point x="53" y="640"/>
      <point x="103" y="564"/>
      <point x="219" y="564" type="curve" smooth="yes"/>
      <point x="335" y="564"/>
      <point x="385" y="640"/>
      <point x="388" y="730" type="curve"/>
      <point x="288" y="730" type="line"/>
      <point x="286" y="681"/>
      <point x="264" y="654"/>
      <point x="219" y="654" type="curve" smooth="yes"/>
      <point x="174" y="654"/>
      <point x="152" y="681"/>
    </contour>
  </outline>
</glyph>
<glyph name="dotaccentcomb" format="2">
	<advance width="234"/>
	<unicode hex="0307"/>
	<anchor x="117" y="510" name="_top"/>
	<anchor x="117" y="730" name="top"/>
	<outline>
		<contour>
			<point x="50" y="730" type="line"/>
			<point x="50" y="587" type="line"/>
			<point x="184" y="587" type="line"/>
			<point x="184" y="730" type="line"/>
		</contour>
	</outline>
</glyph>
<glyph name="dieresiscomb" format="2">
	<advance width="444"/>
	<unicode hex="0308"/>
	<anchor x="222" y="510" name="_top"/>
	<anchor x="222" y="728" name="top"/>
	<outline>
		<contour>
			<point x="50" y="720" type="line"/>
			<point x="50" y="587" type="line"/>
			<point x="178" y="587" type="line"/>
			<point x="178" y="720" type="line"/>
		</contour>
		<contour>
			<point x="266" y="720" type="line"/>
			<point x="266" y="587" type="line"/>
			<point x="394" y="587" type="line"/>
			<point x="394" y="720" type="line"/>
		</contour>
	</outline>
</glyph>
<glyph name="ringcomb" format="2">
  <advance width="334"/>
  <unicode hex="030A"/>
  <anchor x="167" y="510" name="_top"/>
  <anchor x="167" y="784" name="top"/>
  <outline>
    <contour>
      <point x="50" y="669" type="curve" smooth="yes"/>
      <point x="50" y="602"/>
      <point x="100" y="556"/>
      <point x="167" y="556" type="curve" smooth="yes"/>
      <point x="232" y="556"/>
      <point x="284" y="602"/>
      <point x="284" y="669" type="curve" smooth="yes"/>
      <point x="284" y="734"/>
      <point x="232" y="782"/>
      <point x="167" y="782" type="curve" smooth="yes"/>
      <point x="100" y="782"/>
      <point x="50" y="734"/>
    </contour>
    <contour>
      <point x="122" y="669" type="curve" smooth="yes"/>
      <point x="122" y="695"/>
      <point x="141" y="714"/>
      <point x="168" y="714" type="curve" smooth="yes"/>
      <point x="194" y="714"/>
      <point x="213" y="695"/>
      <point x="213" y="669" type="curve" smooth="yes"/>
      <point x="213" y="642"/>
      <point x="194" y="623"/>
      <point x="168" y="623" type="curve" smooth="yes"/>
      <point x="141" y="623"/>
      <point x="122" y="642"/>
    </contour>
  </outline>
</glyph>
<glyph name="hungarumlautcomb" format="2">
	<advance width="595"/>
	<unicode hex="030B"/>
	<anchor x="298" y="510" name="_top"/>
	<anchor x="298" y="784" name="top"/>
	<outline>
		<contour>
			<point x="50" y="639" type="line"/>
			<point x="97" y="564" type="line"/>
			<point x="295" y="678" type="line"/>
			<point x="231" y="784" type="line"/>
		</contour>
		<contour>
			<point x="300" y="639" type="line"/>
			<point x="347" y="564" type="line"/>
			<point x="545" y="678" type="line"/>
			<point x="481" y="784" type="line"/>
		</contour>
	</outline>
</glyph>
<glyph name="commaabovecomb" format="2">
  <advance width="269"/>
  <unicode hex="0313"/>
  <anchor x="135" y="510" name="_top"/>
  <anchor x="135" y="753" name="top"/>
  <outline>
    <contour>
      <point x="127" y="753" type="line"/>
      <point x="50" y="607" type="line"/>
      <point x="123" y="564" type="line"/>
      <point x="219" y="700" type="line"/>
    </contour>
  </outline>
</glyph>
<glyph name="dotbelowcomb" format="2">
  <advance width="234"/>
  <unicode hex="0323"/>
  <anchor x="117" y="0" name="_bottom"/>
  <anchor x="117" y="-217" name="bottom"/>
  <outline>
    <contour>
      <point x="50" y="-84" type="line"/>
      <point x="50" y="-227" type="line"/>
      <point x="184" y="-227" type="line"/>
      <point x="184" y="-84" type="line"/>
    </contour>
  </outline>
</glyph>
<glyph name="commaaccentcomb" format="2">
	<advance width="282"/>
	<unicode hex="0326"/>
	<anchor x="161" y="0" name="_bottom"/>
	<anchor x="121" y="-265" name="bottom"/>
	<outline>
		<contour>
			<point x="141" y="-69" type="line"/>
			<point x="50" y="-239" type="line"/>
			<point x="123" y="-282" type="line"/>
			<point x="232" y="-125" type="line"/>
		</contour>
	</outline>
</glyph>
<glyph name="cedillacomb" format="2">
  <advance width="314"/>
  <unicode hex="0327"/>
  <anchor x="145" y="0" name="_bottom"/>
  <anchor x="153" y="-240" name="bottom"/>
  <outline>
    <contour>
      <point x="264" y="-128" type="curve" smooth="yes"/>
      <point x="264" y="-52"/>
      <point x="221" y="-38"/>
      <point x="154" y="-37" type="curve"/>
      <point x="161" y="1" type="line"/>
      <point x="108" y="1" type="line"/>
      <point x="88" y="-105" type="line"/>
      <point x="112" y="-105" type="line" smooth="yes"/>
      <point x="139" y="-105"/>
      <point x="150" y="-110"/>
      <point x="150" y="-127" type="curve" smooth="yes"/>
      <point x="150" y="-143"/>
      <point x="139" y="-152"/>
      <point x="112" y="-152" type="curve" smooth="yes"/>
      <point x="95" y="-152"/>
      <point x="64" y="-151"/>
      <point x="54" y="-151" type="curve"/>
      <point x="50" y="-229" type="line"/>
      <point x="60" y="-229"/>
      <point x="110" y="-240"/>
      <point x="153" y="-240" type="curve" smooth="yes"/>
      <point x="221" y="-240"/>
      <point x="264" y="-204"/>
    </contour>
  </outline>
</glyph>
<glyph name="ogonekcomb" format="2">
  <advance width="311"/>
  <unicode hex="0328"/>
  <anchor x="232" y="0" name="_ogonek"/>
  <outline>
    <contour>
      <point x="232" y="0" type="curve"/>
      <point x="131" y="11" type="line"/>
      <point x="131" y="11"/>
      <point x="50" y="-63"/>
      <point x="50" y="-120" type="curve" smooth="yes"/>
      <point x="50" y="-180"/>
      <point x="97" y="-216"/>
      <point x="159" y="-216" type="curve" smooth="yes"/>
      <point x="202" y="-216"/>
      <point x="261" y="-205"/>
      <point x="261" y="-205" type="curve"/>
      <point x="249" y="-110" type="line"/>
      <point x="249" y="-110"/>
      <point x="214" y="-114"/>
      <point x="207" y="-114" type="curve" smooth="yes"/>
      <point x="189" y="-114"/>
      <point x="175" y="-103"/>
      <point x="175" y="-86" type="curve" smooth="yes"/>
      <point x="175" y="-60"/>
      <point x="232" y="0"/>
    </contour>
  </outline>
</glyph>
<glyph name="strokeshortcomb" format="2">
  <advance width="366"/>
  <unicode hex="0335"/>
  <anchor x="222" y="615" name="_stroke"/>
  <outline>
    <contour>
      <point x="0" y="672" type="line"/>
      <point x="0" y="558" type="line"/>
      <point x="366" y="558" type="line"/>
      <point x="366" y="672" type="line"/>
    </contour>
  </outline>
</glyph>
<glyph name="slashshortcomb" format="2">
	<advance width="387"/>
	<unicode hex="0337"/>
	<anchor x="194" y="251" name="_center"/>
	<outline>
		<contour>
			<point x="295" y="565" type="line"/>
			<point x="0" y="-20" type="line"/>
			<point x="92" y="-64" type="line"/>
			<point x="387" y="521" type="line"/>
		</contour>
	</outline>
</glyph>
<glyph name="slashlongcomb" format="2">
	<advance width="477"/>
	<unicode hex="0338"/>
	<anchor x="239" y="346" name="_center"/>
	<outline>
		<contour>
			<point x="385" y="755" type="line"/>
			<point x="0" y="-20" type="line"/>
			<point x="92" y="-64" type="line"/>
			<point x="477" y="711" type="line"/>
		</contour>
	</outline>
</glyph>
<glyph name="Omega" format="2">
  <advance width="624"/>
  <unicode hex="03A9"/>
  <outline>
    <contour>
      <point x="312" y="562" type="curve" smooth="yes"/>
      <point x="407" y="562"/>
      <point x="430" y="506"/>
      <point x="430" y="360" type="curve" smooth="yes"/>
      <point x="430" y="235"/>
      <point x="342" y="99"/>
      <point x="342" y="99" type="curve"/>
      <point x="342" y="0" type="line"/>
      <point x="570" y="0" type="line"/>
      <point x="570" y="114" type="line"/>
      <point x="470" y="114" type="line"/>
      <point x="470" y="114"/>
      <point x="572" y="223"/>
      <point x="572" y="395" type="curve" smooth="yes"/>
      <point x="572" y="594"/>
      <point x="495" y="682"/>
      <point x="312" y="682" type="curve" smooth="yes"/>
      <point x="129" y="682"/>
      <point x="52" y="594"/>
      <point x="52" y="395" type="curve" smooth="yes"/>
      <point x="52" y="223"/>
      <point x="154" y="114"/>
      <point x="154" y="114" type="curve"/>
      <point x="54" y="114" type="line"/>
      <point x="54" y="0" type="line"/>
      <point x="282" y="0" type="line"/>
      <point x="282" y="99" type="line"/>
      <point x="282" y="99"/>
      <point x="194" y="235"/>
      <point x="194" y="360" type="curve" smooth="yes"/>
      <point x="194" y="506"/>
      <point x="217" y="562"/>
    </contour>
  </outline>
</glyph>
<glyph name="pi" format="2">
  <advance width="572"/>
  <unicode hex="03C0"/>
  <outline>
    <contour>
      <point x="326" y="396" type="line"/>
      <point x="326" y="154" type="line" smooth="yes"/>
      <point x="326" y="20"/>
      <point x="348" y="-10"/>
      <point x="529" y="-10" type="curve"/>
      <point x="529" y="104" type="line"/>
      <point x="471" y="104"/>
      <point x="460" y="121"/>
      <point x="460" y="154" type="curve" smooth="yes"/>
      <point x="460" y="398" type="line"/>
      <point x="510" y="401"/>
      <point x="534" y="412"/>
      <point x="534" y="412" type="curve"/>
      <point x="534" y="522" type="line"/>
      <point x="534" y="522"/>
      <point x="482" y="510"/>
      <point x="425" y="510" type="curve" smooth="yes"/>
      <point x="174" y="510" type="line" smooth="yes"/>
      <point x="88" y="510"/>
      <point x="24" y="492"/>
      <point x="24" y="492" type="curve"/>
      <point x="24" y="383" type="line"/>
      <point x="24" y="383"/>
      <point x="81" y="396"/>
      <point x="112" y="396" type="curve"/>
      <point x="80" y="0" type="line"/>
      <point x="215" y="0" type="line"/>
      <point x="241" y="396" type="line"/>
    </contour>
  </outline>
</glyph>
<glyph name="baht" format="2">
  <advance width="596"/>
  <unicode hex="0E3F"/>
  <outline>
    <contour>
      <point x="332" y="660" type="curve" smooth="yes"/>
      <point x="65" y="660" type="line"/>
      <point x="65" y="0" type="line"/>
      <point x="340" y="0" type="line" smooth="yes"/>
      <point x="475" y="0"/>
      <point x="557" y="55"/>
      <point x="557" y="186" type="curve" smooth="yes"/>
      <point x="557" y="275"/>
      <point x="519" y="316"/>
      <point x="458" y="336" type="curve"/>
      <point x="511" y="366"/>
      <point x="538" y="406"/>
      <point x="538" y="484" type="curve" smooth="yes"/>
      <point x="538" y="611"/>
      <point x="468" y="660"/>
    </contour>
    <contour>
      <point x="201" y="275" type="line"/>
      <point x="335" y="275" type="line" smooth="yes"/>
      <point x="386" y="275"/>
      <point x="417" y="254"/>
      <point x="417" y="191" type="curve" smooth="yes"/>
      <point x="417" y="129"/>
      <point x="388" y="114"/>
      <point x="335" y="114" type="curve" smooth="yes"/>
      <point x="201" y="114" type="line"/>
    </contour>
    <contour>
      <point x="201" y="546" type="line"/>
      <point x="325" y="546" type="line" smooth="yes"/>
      <point x="374" y="546"/>
      <point x="400" y="530"/>
      <point x="400" y="471" type="curve" smooth="yes"/>
      <point x="400" y="417"/>
      <point x="376" y="387"/>
      <point x="325" y="387" type="curve" smooth="yes"/>
      <point x="201" y="387" type="line"/>
    </contour>
    <contour>
      <point x="134" y="780" type="line"/>
      <point x="134" y="645" type="line"/>
      <point x="242" y="645" type="line"/>
      <point x="242" y="780" type="line"/>
    </contour>
    <contour>
      <point x="312" y="780" type="line"/>
      <point x="312" y="645" type="line"/>
      <point x="420" y="645" type="line"/>
      <point x="420" y="780" type="line"/>
    </contour>
    <contour>
      <point x="129" y="15" type="line"/>
      <point x="129" y="-120" type="line"/>
      <point x="237" y="-120" type="line"/>
      <point x="237" y="15" type="line"/>
    </contour>
    <contour>
      <point x="307" y="15" type="line"/>
      <point x="307" y="-120" type="line"/>
      <point x="415" y="-120" type="line"/>
      <point x="415" y="15" type="line"/>
    </contour>
  </outline>
</glyph>
<glyph name="endash" format="2">
	<advance width="594"/>
	<unicode hex="2013"/>
	<outline>
		<contour>
			<point x="47" y="327" type="line"/>
			<point x="47" y="227" type="line"/>
			<point x="547" y="227" type="line"/>
			<point x="547" y="327" type="line"/>
		</contour>
	</outline>
</glyph>
<glyph name="emdash" format="2">
	<advance width="1094"/>
	<unicode hex="2014"/>
	<outline>
		<contour>
			<point x="47" y="327" type="line"/>
			<point x="47" y="227" type="line"/>
			<point x="1047" y="227" type="line"/>
			<point x="1047" y="327" type="line"/>
		</contour>
	</outline>
</glyph>
<glyph name="dagger" format="2">
  <advance width="472"/>
  <unicode hex="2020"/>
  <outline>
    <contour>
      <point x="14" y="510" type="line"/>
      <point x="14" y="396" type="line"/>
      <point x="165" y="396" type="line"/>
      <point x="184" y="-230" type="line"/>
      <point x="288" y="-230" type="line"/>
      <point x="307" y="396" type="line"/>
      <point x="458" y="396" type="line"/>
      <point x="458" y="510" type="line"/>
      <point x="303" y="510" type="line"/>
      <point x="303" y="710" type="line"/>
      <point x="169" y="710" type="line"/>
      <point x="169" y="510" type="line"/>
    </contour>
  </outline>
</glyph>
<glyph name="daggerdbl" format="2">
  <advance width="532"/>
  <unicode hex="2021"/>
  <outline>
    <contour>
      <point x="44" y="510" type="line"/>
      <point x="44" y="396" type="line"/>
      <point x="199" y="396" type="line"/>
      <point x="199" y="84" type="line"/>
      <point x="44" y="84" type="line"/>
      <point x="44" y="-30" type="line"/>
      <point x="199" y="-30" type="line"/>
      <point x="199" y="-230" type="line"/>
      <point x="333" y="-230" type="line"/>
      <point x="333" y="-30" type="line"/>
      <point x="488" y="-30" type="line"/>
      <point x="488" y="84" type="line"/>
      <point x="333" y="84" type="line"/>
      <point x="333" y="396" type="line"/>
      <point x="488" y="396" type="line"/>
      <point x="488" y="510" type="line"/>
      <point x="333" y="510" type="line"/>
      <point x="333" y="710" type="line"/>
      <point x="199" y="710" type="line"/>
      <point x="199" y="510" type="line"/>
    </contour>
  </outline>
</glyph>
<glyph name="bullet" format="2">
  <advance width="406"/>
  <unicode hex="2022"/>
  <outline>
    <contour>
      <point x="78" y="417" type="line"/>
      <point x="78" y="137" type="line"/>
      <point x="328" y="137" type="line"/>
      <point x="328" y="417" type="line"/>
    </contour>
  </outline>
</glyph>
<glyph name="second" format="2">
  <advance width="477"/>
  <unicode hex="2033"/>
  <outline>
    <contour>
      <point x="96" y="670" type="line"/>
      <point x="49" y="420" type="line"/>
      <point x="167" y="420" type="line"/>
      <point x="228" y="670" type="line"/>
    </contour>
    <contour>
      <point x="296" y="670" type="line"/>
      <point x="249" y="420" type="line"/>
      <point x="367" y="420" type="line"/>
      <point x="428" y="670" type="line"/>
    </contour>
  </outline>
</glyph>
<glyph name="guilsinglleft" format="2">
  <advance width="362"/>
  <unicode hex="2039"/>
  <outline>
    <contour>
      <point x="150" y="277" type="line"/>
      <point x="326" y="418" type="line"/>
      <point x="264" y="508" type="line"/>
      <point x="41" y="327" type="line"/>
      <point x="41" y="227" type="line"/>
      <point x="264" y="46" type="line"/>
      <point x="326" y="136" type="line"/>
    </contour>
  </outline>
</glyph>
<glyph name="fraction" format="2">
	<advance width="120"/>
	<unicode hex="2044"/>
	<outline>
		<contour>
			<point x="238" y="710" type="line"/>
			<point x="-194" y="43" type="line"/>
			<point x="-122" y="-10" type="line"/>
			<point x="313" y="658" type="line"/>
		</contour>
	</outline>
</glyph>
<glyph name="sheqel" format="2">
  <advance width="738"/>
  <unicode hex="20AA"/>
  <outline>
    <contour>
      <point x="113" y="660" type="line"/>
      <point x="113" y="560" type="line"/>
      <point x="237" y="560" type="line" smooth="yes"/>
      <point x="380" y="560"/>
      <point x="396" y="540"/>
      <point x="396" y="458" type="curve" smooth="yes"/>
      <point x="396" y="203" type="line"/>
      <point x="494" y="203" type="line"/>
      <point x="494" y="503" type="line" smooth="yes"/>
      <point x="494" y="620"/>
      <point x="444" y="660"/>
      <point x="261" y="660" type="curve" smooth="yes"/>
    </contour>
    <contour>
      <point x="72" y="660" type="line"/>
      <point x="72" y="0" type="line"/>
      <point x="192" y="0" type="line"/>
      <point x="192" y="660" type="line"/>
    </contour>
    <contour>
      <point x="285" y="0" type="line"/>
      <point x="433" y="0" type="line" smooth="yes"/>
      <point x="620" y="0"/>
      <point x="666" y="40"/>
      <point x="666" y="157" type="curve" smooth="yes"/>
      <point x="666" y="660" type="line"/>
      <point x="546" y="660" type="line"/>
      <point x="546" y="202" type="line" smooth="yes"/>
      <point x="546" y="120"/>
      <point x="530" y="100"/>
      <point x="409" y="100" type="curve" smooth="yes"/>
      <point x="285" y="100" type="line"/>
    </contour>
    <contour>
      <point x="342" y="0" type="line"/>
      <point x="342" y="457" type="line"/>
      <point x="244" y="457" type="line"/>
      <point x="244" y="0" type="line"/>
    </contour>
  </outline>
</glyph>
<glyph name="euro" format="2">
	<advance width="594"/>
	<unicode hex="20AC"/>
	<outline>
		<contour>
			<point x="48" y="457" type="line"/>
			<point x="48" y="355" type="line"/>
			<point x="103" y="355" type="line"/>
			<point x="103" y="345"/>
			<point x="103" y="334"/>
			<point x="103" y="324" type="curve" smooth="yes"/>
			<point x="103" y="312"/>
			<point x="103" y="301"/>
			<point x="103" y="289" type="curve"/>
			<point x="48" y="289" type="line"/>
			<point x="48" y="187" type="line"/>
			<point x="112" y="187" type="line"/>
			<point x="134" y="55"/>
			<point x="199" y="-10"/>
			<point x="355" y="-10" type="curve" smooth="yes"/>
			<point x="415" y="-10"/>
			<point x="503" y="3"/>
			<point x="547" y="13" type="curve"/>
			<point x="544" y="122" type="line"/>
			<point x="506" y="117"/>
			<point x="423" y="109"/>
			<point x="378" y="109" type="curve" smooth="yes"/>
			<point x="304" y="109"/>
			<point x="269" y="127"/>
			<point x="253" y="187" type="curve"/>
			<point x="484" y="187" type="line"/>
			<point x="484" y="289" type="line"/>
			<point x="241" y="289" type="line"/>
			<point x="241" y="301"/>
			<point x="241" y="312"/>
			<point x="241" y="324" type="curve" smooth="yes"/>
			<point x="241" y="334"/>
			<point x="241" y="345"/>
			<point x="241" y="355" type="curve"/>
			<point x="484" y="355" type="line"/>
			<point x="484" y="457" type="line"/>
			<point x="249" y="457" type="line"/>
			<point x="265" y="535"/>
			<point x="302" y="553"/>
			<point x="375" y="553" type="curve" smooth="yes"/>
			<point x="418" y="553"/>
			<point x="500" y="546"/>
			<point x="544" y="539" type="curve"/>
			<point x="548" y="646" type="line"/>
			<point x="508" y="655"/>
			<point x="424" y="672"/>
			<point x="355" y="672" type="curve" smooth="yes"/>
			<point x="196" y="672"/>
			<point x="130" y="612"/>
			<point x="110" y="457" type="curve"/>
		</contour>
	</outline>
</glyph>
<glyph name="hryvnia" format="2">
  <advance width="590"/>
  <unicode hex="20B4"/>
  <outline>
    <contour>
      <point x="497" y="465" type="line"/>
      <point x="497" y="470"/>
      <point x="497" y="475"/>
      <point x="497" y="480" type="curve" smooth="yes"/>
      <point x="497" y="617"/>
      <point x="399" y="672"/>
      <point x="273" y="672" type="curve" smooth="yes"/>
      <point x="207" y="672"/>
      <point x="91" y="647"/>
      <point x="91" y="647" type="curve"/>
      <point x="102" y="544" type="line"/>
      <point x="102" y="544"/>
      <point x="235" y="559"/>
      <point x="269" y="559" type="curve" smooth="yes"/>
      <point x="335" y="559"/>
      <point x="368" y="537"/>
      <point x="368" y="493" type="curve" smooth="yes"/>
      <point x="368" y="482"/>
      <point x="367" y="473"/>
      <point x="362" y="465" type="curve"/>
    </contour>
    <contour>
      <point x="539" y="469" type="line"/>
      <point x="49" y="469" type="line"/>
      <point x="49" y="371" type="line"/>
      <point x="539" y="371" type="line"/>
    </contour>
    <contour>
      <point x="539" y="292" type="line"/>
      <point x="49" y="292" type="line"/>
      <point x="49" y="194" type="line"/>
      <point x="539" y="194" type="line"/>
    </contour>
    <contour>
      <point x="98" y="247" type="line"/>
      <point x="96" y="234"/>
      <point x="95" y="220"/>
      <point x="95" y="206" type="curve" smooth="yes"/>
      <point x="95" y="53"/>
      <point x="201" y="-10"/>
      <point x="308" y="-10" type="curve" smooth="yes"/>
      <point x="398" y="-10"/>
      <point x="514" y="19"/>
      <point x="514" y="19" type="curve"/>
      <point x="501" y="120" type="line"/>
      <point x="501" y="120"/>
      <point x="369" y="103"/>
      <point x="308" y="103" type="curve" smooth="yes"/>
      <point x="250" y="103"/>
      <point x="224" y="139"/>
      <point x="224" y="190" type="curve" smooth="yes"/>
      <point x="224" y="216"/>
      <point x="230" y="233"/>
      <point x="249" y="247" type="curve"/>
    </contour>
  </outline>
</glyph>
<glyph name="rupeeIndian" format="2">
	<advance width="607"/>
	<unicode hex="20B9"/>
	<outline>
		<contour>
			<point x="51" y="660" type="line"/>
			<point x="51" y="548" type="line"/>
			<point x="246" y="548" type="line" smooth="yes"/>
			<point x="311" y="548"/>
			<point x="343" y="513"/>
			<point x="343" y="443" type="curve" smooth="yes"/>
			<point x="343" y="371"/>
			<point x="311" y="326"/>
			<point x="246" y="326" type="curve" smooth="yes"/>
			<point x="51" y="326" type="line"/>
			<point x="51" y="230" type="line"/>
			<point x="247" y="230" type="line" smooth="yes"/>
			<point x="398" y="230"/>
			<point x="475" y="293"/>
			<point x="475" y="443" type="curve" smooth="yes"/>
			<point x="475" y="581"/>
			<point x="398" y="660"/>
			<point x="247" y="660" type="curve" smooth="yes"/>
		</contour>
		<contour>
			<point x="564" y="484" type="line"/>
			<point x="51" y="484" type="line"/>
			<point x="51" y="390" type="line"/>
			<point x="564" y="390" type="line"/>
		</contour>
		<contour>
			<point x="564" y="660" type="line"/>
			<point x="113" y="660" type="line"/>
			<point x="113" y="566" type="line"/>
			<point x="564" y="566" type="line"/>
		</contour>
		<contour>
			<point x="530" y="0" type="line"/>
			<point x="210" y="240" type="line"/>
			<point x="51" y="230" type="line"/>
			<point x="350" y="0" type="line"/>
		</contour>
	</outline>
</glyph>
<glyph name="ruble" format="2">
  <advance width="619"/>
  <unicode hex="20BD"/>
  <outline>
    <contour>
      <point x="245" y="234" type="line"/>
      <point x="359" y="234" type="line" smooth="yes"/>
      <point x="510" y="234"/>
      <point x="587" y="308"/>
      <point x="587" y="446" type="curve" smooth="yes"/>
      <point x="587" y="584"/>
      <point x="510" y="660"/>
      <point x="359" y="660" type="curve" smooth="yes"/>
      <point x="115" y="660" type="line"/>
      <point x="115" y="0" type="line"/>
      <point x="245" y="0" type="line"/>
    </contour>
    <contour>
      <point x="358" y="338" type="curve" smooth="yes"/>
      <point x="245" y="338" type="line"/>
      <point x="245" y="548" type="line"/>
      <point x="358" y="548" type="line" smooth="yes"/>
      <point x="423" y="548"/>
      <point x="455" y="516"/>
      <point x="455" y="446" type="curve" smooth="yes"/>
      <point x="455" y="376"/>
      <point x="423" y="338"/>
    </contour>
    <contour>
      <point x="186" y="335" type="line"/>
      <point x="47" y="335" type="line"/>
      <point x="47" y="235" type="line"/>
      <point x="186" y="235" type="line"/>
    </contour>
    <contour>
      <point x="406" y="175" type="line"/>
      <point x="47" y="175" type="line"/>
      <point x="47" y="75" type="line"/>
      <point x="406" y="75" type="line"/>
    </contour>
  </outline>
</glyph>
<glyph name="trademark" format="2">
  <advance width="705"/>
  <unicode hex="2122"/>
  <outline>
    <contour>
      <point x="31" y="700" type="line"/>
      <point x="31" y="621" type="line"/>
      <point x="112" y="621" type="line"/>
      <point x="112" y="388" type="line"/>
      <point x="200" y="388" type="line"/>
      <point x="200" y="621" type="line"/>
      <point x="271" y="621" type="line"/>
      <point x="271" y="700" type="line"/>
    </contour>
    <contour>
      <point x="301" y="700" type="line"/>
      <point x="301" y="387" type="line"/>
      <point x="383" y="387" type="line"/>
      <point x="383" y="606" type="line"/>
      <point x="393" y="606" type="line"/>
      <point x="443" y="408" type="line"/>
      <point x="502" y="408" type="line"/>
      <point x="551" y="606" type="line"/>
      <point x="561" y="606" type="line"/>
      <point x="561" y="387" type="line"/>
      <point x="644" y="387" type="line"/>
      <point x="644" y="700" type="line"/>
      <point x="526" y="700" type="line"/>
      <point x="473" y="501" type="line"/>
      <point x="431" y="700" type="line"/>
    </contour>
  </outline>
</glyph>
<glyph name="upArrow" format="2">
  <advance width="596"/>
  <unicode hex="2191"/>
  <outline>
    <contour>
      <point x="298" y="710" type="line"/>
      <point x="25" y="437" type="line"/>
      <point x="109" y="353" type="line"/>
      <point x="299" y="561" type="line"/>
      <point x="297" y="561" type="line"/>
      <point x="487" y="353" type="line"/>
      <point x="571" y="437" type="line"/>
    </contour>
    <contour>
      <point x="351" y="640" type="line"/>
      <point x="245" y="640" type="line"/>
      <point x="231" y="375" type="line"/>
      <point x="231" y="0" type="line"/>
      <point x="365" y="0" type="line"/>
      <point x="365" y="375" type="line"/>
    </contour>
  </outline>
</glyph>
<glyph name="leftRightArrow" format="2">
  <advance width="878"/>
  <unicode hex="2194"/>
  <outline>
    <contour>
      <point x="839" y="347" type="line"/>
      <point x="566" y="620" type="line"/>
      <point x="482" y="536" type="line"/>
      <point x="619" y="411" type="line"/>
      <point x="439" y="407" type="line"/>
      <point x="259" y="411" type="line"/>
      <point x="396" y="536" type="line"/>
      <point x="312" y="620" type="line"/>
      <point x="39" y="347" type="line"/>
      <point x="312" y="74" type="line"/>
      <point x="396" y="158" type="line"/>
      <point x="259" y="283" type="line"/>
      <point x="439" y="287" type="line"/>
      <point x="619" y="283" type="line"/>
      <point x="482" y="158" type="line"/>
      <point x="566" y="74" type="line"/>
    </contour>
  </outline>
</glyph>
<glyph name="upDownArrow" format="2">
	<advance width="624"/>
	<unicode hex="2195"/>
	<outline>
		<contour>
			<point x="312" y="-53" type="line"/>
			<point x="585" y="220" type="line"/>
			<point x="501" y="304" type="line"/>
			<point x="376" y="167" type="line"/>
			<point x="372" y="347" type="line"/>
			<point x="376" y="527" type="line"/>
			<point x="501" y="390" type="line"/>
			<point x="585" y="474" type="line"/>
			<point x="312" y="747" type="line"/>
			<point x="39" y="474" type="line"/>
			<point x="123" y="390" type="line"/>
			<point x="248" y="527" type="line"/>
			<point x="252" y="347" type="line"/>
			<point x="248" y="167" type="line"/>
			<point x="123" y="304" type="line"/>
			<point x="39" y="220" type="line"/>
		</contour>
	</outline>
</glyph>
<glyph name="partialdiff" format="2">
  <advance width="594"/>
  <unicode hex="2202"/>
  <outline>
    <contour>
      <point x="185" y="706" type="curve"/>
      <point x="167" y="603" type="line"/>
      <point x="167" y="603"/>
      <point x="253" y="626"/>
      <point x="324" y="626" type="curve" smooth="yes"/>
      <point x="398" y="626"/>
      <point x="427" y="600"/>
      <point x="427" y="523" type="curve" smooth="yes"/>
      <point x="427" y="494"/>
      <point x="423" y="458"/>
      <point x="416" y="414" type="curve"/>
      <point x="416" y="414"/>
      <point x="362" y="438"/>
      <point x="282" y="438" type="curve" smooth="yes"/>
      <point x="116" y="438"/>
      <point x="20" y="345"/>
      <point x="20" y="197" type="curve" smooth="yes"/>
      <point x="20" y="68"/>
      <point x="97" y="-9"/>
      <point x="236" y="-9" type="curve" smooth="yes"/>
      <point x="398" y="-9"/>
      <point x="488" y="89"/>
      <point x="544" y="349" type="curve" smooth="yes"/>
      <point x="560" y="422"/>
      <point x="569" y="482"/>
      <point x="569" y="534" type="curve" smooth="yes"/>
      <point x="569" y="666"/>
      <point x="497" y="740"/>
      <point x="366" y="740" type="curve" smooth="yes"/>
      <point x="277" y="740"/>
      <point x="185" y="706"/>
    </contour>
    <contour>
      <point x="291" y="327" type="curve" smooth="yes"/>
      <point x="356" y="327"/>
      <point x="392" y="302"/>
      <point x="392" y="302" type="curve"/>
      <point x="362" y="160"/>
      <point x="318" y="105"/>
      <point x="246" y="105" type="curve" smooth="yes"/>
      <point x="192" y="105"/>
      <point x="166" y="138"/>
      <point x="166" y="202" type="curve" smooth="yes"/>
      <point x="166" y="275"/>
      <point x="199" y="327"/>
    </contour>
  </outline>
</glyph>
<glyph name="increment" format="2">
	<advance width="543"/>
	<unicode hex="2206"/>
	<outline>
		<contour>
			<point x="159" y="670" type="line"/>
			<point x="35" y="104" type="line"/>
			<point x="35" y="0" type="line"/>
			<point x="507" y="0" type="line"/>
			<point x="507" y="102" type="line"/>
			<point x="383" y="670" type="line"/>
		</contour>
		<contour>
			<point x="261" y="558" type="line"/>
			<point x="282" y="558" type="line"/>
			<point x="374" y="114" type="line"/>
			<point x="168" y="114" type="line"/>
		</contour>
	</outline>
</glyph>
<glyph name="product" format="2">
  <advance width="590"/>
  <unicode hex="220F"/>
  <outline>
    <contour>
      <point x="351" y="630" type="line"/>
      <point x="351" y="-180" type="line"/>
      <point x="489" y="-180" type="line"/>
      <point x="489" y="630" type="line"/>
      <point x="559" y="630" type="line"/>
      <point x="559" y="750" type="line"/>
      <point x="30" y="750" type="line"/>
      <point x="30" y="630" type="line"/>
      <point x="100" y="630" type="line"/>
      <point x="100" y="-180" type="line"/>
      <point x="238" y="-180" type="line"/>
      <point x="238" y="630" type="line"/>
    </contour>
  </outline>
</glyph>
<glyph name="summation" format="2">
  <advance width="576"/>
  <unicode hex="2211"/>
  <outline>
    <contour>
      <point x="42" y="610" type="line"/>
      <point x="280" y="298" type="line"/>
      <point x="32" y="-41" type="line"/>
      <point x="32" y="-180" type="line"/>
      <point x="542" y="-180" type="line"/>
      <point x="542" y="-60" type="line"/>
      <point x="178" y="-60" type="line"/>
      <point x="178" y="-45" type="line"/>
      <point x="403" y="251" type="line"/>
      <point x="403" y="344" type="line"/>
      <point x="188" y="615" type="line"/>
      <point x="188" y="630" type="line"/>
      <point x="542" y="630" type="line"/>
      <point x="542" y="750" type="line"/>
      <point x="42" y="750" type="line"/>
    </contour>
  </outline>
</glyph>
<glyph name="minus" format="2">
  <advance width="560"/>
  <unicode hex="2212"/>
  <outline>
    <contour>
      <point x="60" y="219" type="line"/>
      <point x="500" y="219" type="line"/>
      <point x="500" y="335" type="line"/>
      <point x="60" y="335" type="line"/>
    </contour>
  </outline>
</glyph>
<glyph name="radical" format="2">
	<advance width="637"/>
	<unicode hex="221A"/>
	<outline>
		<contour>
			<point x="42" y="440" type="line"/>
			<point x="42" y="320" type="line"/>
			<point x="96" y="320" type="line"/>
			<point x="210" y="-180" type="line"/>
			<point x="431" y="-180" type="line"/>
			<point x="619" y="750" type="line"/>
			<point x="478" y="750" type="line"/>
			<point x="327" y="-66" type="line"/>
			<point x="312" y="-66" type="line"/>
			<point x="208" y="440" type="line"/>
		</contour>
	</outline>
</glyph>
<glyph name="infinity" format="2">
  <advance width="600"/>
  <unicode hex="221E"/>
  <outline>
    <contour>
      <point x="186" y="106" type="curve" smooth="yes"/>
      <point x="233" y="106"/>
      <point x="269" y="124"/>
      <point x="300" y="183" type="curve"/>
      <point x="330" y="124"/>
      <point x="367" y="106"/>
      <point x="414" y="106" type="curve" smooth="yes"/>
      <point x="504" y="106"/>
      <point x="553" y="162"/>
      <point x="553" y="277" type="curve" smooth="yes"/>
      <point x="553" y="392"/>
      <point x="504" y="448"/>
      <point x="416" y="448" type="curve" smooth="yes"/>
      <point x="367" y="448"/>
      <point x="331" y="429"/>
      <point x="300" y="370" type="curve"/>
      <point x="269" y="429"/>
      <point x="232" y="448"/>
      <point x="184" y="448" type="curve" smooth="yes"/>
      <point x="96" y="448"/>
      <point x="47" y="393"/>
      <point x="47" y="277" type="curve" smooth="yes"/>
      <point x="47" y="163"/>
      <point x="96" y="106"/>
    </contour>
    <contour>
      <point x="260" y="277" type="curve"/>
      <point x="243" y="245"/>
      <point x="224" y="221"/>
      <point x="205" y="221" type="curve" smooth="yes"/>
      <point x="178" y="221"/>
      <point x="163" y="245"/>
      <point x="163" y="277" type="curve" smooth="yes"/>
      <point x="163" y="311"/>
      <point x="177" y="333"/>
      <point x="205" y="333" type="curve" smooth="yes"/>
      <point x="224" y="333"/>
      <point x="243" y="311"/>
    </contour>
    <contour>
      <point x="340" y="277" type="curve"/>
      <point x="357" y="311"/>
      <point x="376" y="333"/>
      <point x="395" y="333" type="curve" smooth="yes"/>
      <point x="423" y="333"/>
      <point x="437" y="311"/>
      <point x="437" y="277" type="curve" smooth="yes"/>
      <point x="437" y="245"/>
      <point x="422" y="221"/>
      <point x="395" y="221" type="curve" smooth="yes"/>
      <point x="376" y="221"/>
      <point x="357" y="245"/>
    </contour>
  </outline>
</glyph>
<glyph name="integral" format="2">
	<advance width="389"/>
	<unicode hex="222B"/>
	<outline>
		<contour>
			<point x="260" y="-7" type="curve" smooth="yes"/>
			<point x="260" y="571" type="line" smooth="yes"/>
			<point x="260" y="621"/>
			<point x="270" y="640"/>
			<point x="308" y="640" type="curve" smooth="yes"/>
			<point x="340" y="640"/>
			<point x="372" y="636"/>
			<point x="372" y="636" type="curve"/>
			<point x="376" y="746" type="line"/>
			<point x="376" y="746"/>
			<point x="309" y="760"/>
			<point x="271" y="760" type="curve" smooth="yes"/>
			<point x="161" y="760"/>
			<point x="122" y="715"/>
			<point x="122" y="572" type="curve" smooth="yes"/>
			<point x="122" y="-4" type="line" smooth="yes"/>
			<point x="122" y="-54"/>
			<point x="109" y="-70"/>
			<point x="71" y="-70" type="curve" smooth="yes"/>
			<point x="43" y="-70"/>
			<point x="18" y="-67"/>
			<point x="18" y="-67" type="curve"/>
			<point x="14" y="-177" type="line"/>
			<point x="14" y="-177"/>
			<point x="72" y="-190"/>
			<point x="111" y="-190" type="curve" smooth="yes"/>
			<point x="193" y="-190"/>
			<point x="260" y="-149"/>
		</contour>
	</outline>
</glyph>
<glyph name="notequal" format="2">
	<advance width="560"/>
	<unicode hex="2260"/>
	<outline>
		<contour>
			<point x="335" y="574" type="line"/>
			<point x="135" y="10" type="line"/>
			<point x="229" y="-20" type="line"/>
			<point x="429" y="544" type="line"/>
		</contour>
		<component base="equal" xOffset="2"/>
	</outline>
</glyph>
<glyph name="greaterequal" format="2">
  <advance width="560"/>
  <unicode hex="2265"/>
  <outline>
    <contour>
      <point x="348" y="357" type="line"/>
      <point x="70" y="299" type="line"/>
      <point x="70" y="182" type="line"/>
      <point x="493" y="292" type="line"/>
      <point x="493" y="422" type="line"/>
      <point x="70" y="532" type="line"/>
      <point x="70" y="415" type="line"/>
    </contour>
    <contour>
      <point x="493" y="22" type="line"/>
      <point x="493" y="138" type="line"/>
      <point x="70" y="138" type="line"/>
      <point x="70" y="22" type="line"/>
    </contour>
  </outline>
</glyph>
<glyph name="lozenge" format="2">
	<advance width="592"/>
	<unicode hex="25CA"/>
	<outline>
		<contour>
			<point x="214" y="670" type="line"/>
			<point x="40" y="329" type="line"/>
			<point x="214" y="0" type="line"/>
			<point x="379" y="0" type="line"/>
			<point x="552" y="329" type="line"/>
			<point x="379" y="670" type="line"/>
		</contour>
		<contour>
			<point x="305" y="556" type="line"/>
			<point x="419" y="329" type="line"/>
			<point x="305" y="114" type="line"/>
			<point x="288" y="114" type="line"/>
			<point x="173" y="329" type="line"/>
			<point x="288" y="556" type="line"/>
		</contour>
	</outline>
</glyph>
<glyph name="whiteCircle" format="2">
  <advance width="885"/>
  <unicode hex="25CB"/>
  <outline>
    <contour>
      <point x="443" y="-40" type="curve" smooth="yes"/>
      <point x="668" y="-40"/>
      <point x="839" y="130"/>
      <point x="839" y="349" type="curve" smooth="yes"/>
      <point x="839" y="568"/>
      <point x="668" y="740"/>
      <point x="443" y="740" type="curve" smooth="yes"/>
      <point x="216" y="740"/>
      <point x="46" y="568"/>
      <point x="46" y="349" type="curve" smooth="yes"/>
      <point x="46" y="130"/>
      <point x="216" y="-40"/>
    </contour>
    <contour>
      <point x="443" y="65" type="curve" smooth="yes"/>
      <point x="275" y="65"/>
      <point x="156" y="188"/>
      <point x="156" y="349" type="curve" smooth="yes"/>
      <point x="156" y="510"/>
      <point x="275" y="635"/>
      <point x="443" y="635" type="curve" smooth="yes"/>
      <point x="609" y="635"/>
      <point x="729" y="510"/>
      <point x="729" y="349" type="curve" smooth="yes"/>
      <point x="729" y="188"/>
      <point x="609" y="65"/>
    </contour>
  </outline>
</glyph>
<glyph name="dottedCircle" format="2">
	<advance width="866"/>
	<unicode hex="25CC"/>
	<outline>
		<contour>
			<point x="559" y="608" type="curve"/>
			<point x="599" y="706" type="line"/>
			<point x="554" y="726"/>
			<point x="504" y="738"/>
			<point x="451" y="740" type="curve"/>
			<point x="451" y="635" type="line"/>
			<point x="490" y="633"/>
			<point x="527" y="623"/>
		</contour>
		<contour>
			<point x="705" y="446" type="curve"/>
			<point x="805" y="488" type="line"/>
			<point x="787" y="537"/>
			<point x="759" y="581"/>
			<point x="724" y="618" type="curve"/>
			<point x="648" y="542" type="line"/>
			<point x="673" y="515"/>
			<point x="692" y="482"/>
		</contour>
		<contour>
			<point x="695" y="227" type="curve"/>
			<point x="795" y="186" type="line"/>
			<point x="816" y="231"/>
			<point x="828" y="282"/>
			<point x="830" y="336" type="curve"/>
			<point x="720" y="336" type="line"/>
			<point x="718" y="297"/>
			<point x="710" y="260"/>
		</contour>
		<contour>
			<point x="531" y="80" type="curve"/>
			<point x="570" y="-18" type="line"/>
			<point x="621" y="0"/>
			<point x="666" y="26"/>
			<point x="704" y="60" type="curve"/>
			<point x="629" y="136" type="line"/>
			<point x="601" y="112"/>
			<point x="568" y="92"/>
		</contour>
		<contour>
			<point x="311" y="90" type="curve"/>
			<point x="269" y="-7" type="line"/>
			<point x="315" y="-27"/>
			<point x="365" y="-38"/>
			<point x="419" y="-40" type="curve"/>
			<point x="419" y="65" type="line"/>
			<point x="380" y="67"/>
			<point x="343" y="75"/>
		</contour>
		<contour>
			<point x="161" y="255" type="curve"/>
			<point x="60" y="213" type="line"/>
			<point x="78" y="163"/>
			<point x="106" y="119"/>
			<point x="142" y="81" type="curve"/>
			<point x="218" y="157" type="line"/>
			<point x="193" y="185"/>
			<point x="173" y="218"/>
		</contour>
		<contour>
			<point x="174" y="476" type="curve"/>
			<point x="73" y="518" type="line"/>
			<point x="52" y="472"/>
			<point x="39" y="421"/>
			<point x="37" y="367" type="curve"/>
			<point x="147" y="367" type="line"/>
			<point x="149" y="406"/>
			<point x="159" y="443"/>
		</contour>
		<contour>
			<point x="341" y="621" type="curve"/>
			<point x="300" y="718" type="line"/>
			<point x="249" y="702"/>
			<point x="204" y="675"/>
			<point x="166" y="642" type="curve"/>
			<point x="242" y="566" type="line"/>
			<point x="270" y="590"/>
			<point x="303" y="609"/>
		</contour>
	</outline>
</glyph>
<glyph name="blackCircle" format="2">
	<advance width="885"/>
	<unicode hex="25CF"/>
	<outline>
		<contour>
			<point x="443" y="-40" type="curve" smooth="yes"/>
			<point x="216" y="-40"/>
			<point x="46" y="130"/>
			<point x="46" y="349" type="curve" smooth="yes"/>
			<point x="46" y="568"/>
			<point x="216" y="740"/>
			<point x="443" y="740" type="curve" smooth="yes"/>
			<point x="668" y="740"/>
			<point x="839" y="568"/>
			<point x="839" y="349" type="curve" smooth="yes"/>
			<point x="839" y="130"/>
			<point x="668" y="-40"/>
		</contour>
	</outline>
</glyph>
<glyph name="A.ss06" format="2">
  <advance width="1222"/>
  <note>
A
</note>
  <outline>
    <contour>
      <point x="44" y="904" type="line"/>
      <point x="1178" y="904" type="line"/>
      <point x="1178" y="-230" type="line"/>
      <point x="44" y="-230" type="line"/>
    </contour>
    <contour>
      <point x="626" y="586" type="line"/>
      <point x="699" y="268" type="line"/>
      <point x="522" y="268" type="line"/>
      <point x="596" y="586" type="line"/>
    </contour>
    <contour>
      <point x="322" y="0" type="line"/>
      <point x="460" y="0" type="line"/>
      <point x="494" y="148" type="line"/>
      <point x="727" y="148" type="line"/>
      <point x="761" y="0" type="line"/>
      <point x="899" y="0" type="line"/>
      <point x="732" y="700" type="line"/>
      <point x="490" y="700" type="line"/>
    </contour>
  </outline>
</glyph>
<glyph name="B.ss06" format="2">
  <advance width="1222"/>
  <note>
B
</note>
  <outline>
    <contour>
      <point x="44" y="904" type="line"/>
      <point x="1178" y="904" type="line"/>
      <point x="1178" y="-230" type="line"/>
      <point x="44" y="-230" type="line"/>
    </contour>
    <contour>
      <point x="642" y="700" type="curve" smooth="yes"/>
      <point x="365" y="700" type="line"/>
      <point x="365" y="0" type="line"/>
      <point x="651" y="0" type="line" smooth="yes"/>
      <point x="787" y="0"/>
      <point x="874" y="58"/>
      <point x="874" y="197" type="curve" smooth="yes"/>
      <point x="874" y="292"/>
      <point x="833" y="335"/>
      <point x="769" y="357" type="curve"/>
      <point x="825" y="388"/>
      <point x="854" y="431"/>
      <point x="854" y="514" type="curve" smooth="yes"/>
      <point x="854" y="648"/>
      <point x="779" y="700"/>
    </contour>
    <contour>
      <point x="503" y="294" type="line"/>
      <point x="645" y="294" type="line" smooth="yes"/>
      <point x="700" y="294"/>
      <point x="732" y="270"/>
      <point x="732" y="203" type="curve" smooth="yes"/>
      <point x="732" y="137"/>
      <point x="702" y="118"/>
      <point x="645" y="118" type="curve" smooth="yes"/>
      <point x="503" y="118" type="line"/>
    </contour>
    <contour>
      <point x="503" y="582" type="line"/>
      <point x="635" y="582" type="line" smooth="yes"/>
      <point x="687" y="582"/>
      <point x="714" y="562"/>
      <point x="714" y="500" type="curve" smooth="yes"/>
      <point x="714" y="442"/>
      <point x="689" y="410"/>
      <point x="635" y="410" type="curve" smooth="yes"/>
      <point x="503" y="410" type="line"/>
    </contour>
  </outline>
</glyph>
<glyph name="C.ss06" format="2">
  <advance width="1222"/>
  <note>
C
</note>
  <outline>
    <contour>
      <point x="44" y="904" type="line"/>
      <point x="1178" y="904" type="line"/>
      <point x="1178" y="-230" type="line"/>
      <point x="44" y="-230" type="line"/>
    </contour>
    <contour>
      <point x="830" y="13" type="curve"/>
      <point x="827" y="126" type="line"/>
      <point x="787" y="120"/>
      <point x="702" y="112"/>
      <point x="649" y="112" type="curve" smooth="yes"/>
      <point x="531" y="112"/>
      <point x="507" y="163"/>
      <point x="507" y="344" type="curve" smooth="yes"/>
      <point x="507" y="555"/>
      <point x="541" y="588"/>
      <point x="642" y="588" type="curve" smooth="yes"/>
      <point x="691" y="588"/>
      <point x="774" y="580"/>
      <point x="820" y="573" type="curve"/>
      <point x="824" y="683" type="line"/>
      <point x="782" y="693"/>
      <point x="699" y="710"/>
      <point x="619" y="710" type="curve" smooth="yes"/>
      <point x="426" y="710"/>
      <point x="365" y="610"/>
      <point x="365" y="344" type="curve" smooth="yes"/>
      <point x="365" y="98"/>
      <point x="420" y="-10"/>
      <point x="622" y="-10" type="curve" smooth="yes"/>
      <point x="699" y="-10"/>
      <point x="784" y="3"/>
    </contour>
  </outline>
</glyph>
<glyph name="D.ss06" format="2">
  <advance width="1222"/>
  <note>
D
</note>
  <outline>
    <contour>
      <point x="44" y="904" type="line"/>
      <point x="1178" y="904" type="line"/>
      <point x="1178" y="-230" type="line"/>
      <point x="44" y="-230" type="line"/>
    </contour>
    <contour>
      <point x="367" y="0" type="line"/>
      <point x="597" y="0" type="line" smooth="yes"/>
      <point x="837" y="0"/>
      <point x="889" y="130"/>
      <point x="889" y="361" type="curve" smooth="yes"/>
      <point x="889" y="608"/>
      <point x="824" y="700"/>
      <point x="591" y="700" type="curve" smooth="yes"/>
      <point x="367" y="700" type="line"/>
    </contour>
    <contour>
      <point x="747" y="361" type="curve" smooth="yes"/>
      <point x="747" y="182"/>
      <point x="710" y="120"/>
      <point x="596" y="120" type="curve" smooth="yes"/>
      <point x="505" y="120" type="line"/>
      <point x="505" y="580" type="line"/>
      <point x="596" y="580" type="line" smooth="yes"/>
      <point x="710" y="580"/>
      <point x="747" y="542"/>
    </contour>
  </outline>
</glyph>
<glyph name="E.ss06" format="2">
	<advance width="1222"/>
	<note>
		E
	</note>
	<outline>
		<contour>
			<point x="44" y="904" type="line"/>
			<point x="1178" y="904" type="line"/>
			<point x="1178" y="-230" type="line"/>
			<point x="44" y="-230" type="line"/>
		</contour>
		<contour>
			<point x="388" y="700" type="line"/>
			<point x="388" y="0" type="line"/>
			<point x="828" y="0" type="line"/>
			<point x="828" y="120" type="line"/>
			<point x="526" y="120" type="line"/>
			<point x="526" y="293" type="line"/>
			<point x="768" y="293" type="line"/>
			<point x="768" y="411" type="line"/>
			<point x="526" y="411" type="line"/>
			<point x="526" y="580" type="line"/>
			<point x="828" y="580" type="line"/>
			<point x="828" y="700" type="line"/>
		</contour>
	</outline>
</glyph>
<glyph name="F.ss06" format="2">
  <advance width="1222"/>
  <note>
F
</note>
  <outline>
    <contour>
      <point x="44" y="904" type="line"/>
      <point x="1178" y="904" type="line"/>
      <point x="1178" y="-230" type="line"/>
      <point x="44" y="-230" type="line"/>
    </contour>
    <contour>
      <point x="417" y="700" type="line"/>
      <point x="417" y="0" type="line"/>
      <point x="555" y="0" type="line"/>
      <point x="555" y="250" type="line"/>
      <point x="797" y="250" type="line"/>
      <point x="797" y="370" type="line"/>
      <point x="555" y="370" type="line"/>
      <point x="555" y="580" type="line"/>
      <point x="851" y="580" type="line"/>
      <point x="851" y="700" type="line"/>
    </contour>
  </outline>
</glyph>
<glyph name="G.ss06" format="2">
	<advance width="1222"/>
	<note>
		G
	</note>
	<outline>
		<contour>
			<point x="44" y="904" type="line"/>
			<point x="1178" y="904" type="line"/>
			<point x="1178" y="-230" type="line"/>
			<point x="44" y="-230" type="line"/>
		</contour>
		<contour>
			<point x="650" y="364" type="line"/>
			<point x="650" y="244" type="line"/>
			<point x="719" y="244" type="line"/>
			<point x="719" y="112" type="line"/>
			<point x="719" y="112"/>
			<point x="674" y="106"/>
			<point x="634" y="106" type="curve" smooth="yes"/>
			<point x="509" y="106"/>
			<point x="480" y="160"/>
			<point x="480" y="346" type="curve" smooth="yes"/>
			<point x="480" y="550"/>
			<point x="507" y="588"/>
			<point x="638" y="588" type="curve" smooth="yes"/>
			<point x="716" y="588"/>
			<point x="846" y="575"/>
			<point x="846" y="575" type="curve"/>
			<point x="850" y="682" type="line"/>
			<point x="850" y="682"/>
			<point x="715" y="710"/>
			<point x="612" y="710" type="curve" smooth="yes"/>
			<point x="409" y="710"/>
			<point x="338" y="604"/>
			<point x="338" y="346" type="curve" smooth="yes"/>
			<point x="338" y="110"/>
			<point x="398" y="-12"/>
			<point x="620" y="-12" type="curve" smooth="yes"/>
			<point x="712" y="-12"/>
			<point x="855" y="11"/>
			<point x="855" y="11" type="curve"/>
			<point x="855" y="364" type="line"/>
		</contour>
	</outline>
</glyph>
<glyph name="H.ss06" format="2">
	<advance width="1222"/>
	<note>
		H
	</note>
	<outline>
		<contour>
			<point x="44" y="904" type="line"/>
			<point x="1178" y="904" type="line"/>
			<point x="1178" y="-230" type="line"/>
			<point x="44" y="-230" type="line"/>
		</contour>
		<contour>
			<point x="739" y="294" type="line"/>
			<point x="739" y="0" type="line"/>
			<point x="877" y="0" type="line"/>
			<point x="877" y="700" type="line"/>
			<point x="739" y="700" type="line"/>
			<point x="739" y="414" type="line"/>
			<point x="482" y="414" type="line"/>
			<point x="482" y="700" type="line"/>
			<point x="344" y="700" type="line"/>
			<point x="344" y="0" type="line"/>
			<point x="482" y="0" type="line"/>
			<point x="482" y="294" type="line"/>
		</contour>
	</outline>
</glyph>
<glyph name="J.ss06" format="2">
	<advance width="1222"/>
	<note>
		J
	</note>
	<outline>
		<contour>
			<point x="44" y="904" type="line"/>
			<point x="1178" y="904" type="line"/>
			<point x="1178" y="-230" type="line"/>
			<point x="44" y="-230" type="line"/>
		</contour>
		<contour>
			<point x="711" y="178" type="curve" smooth="yes"/>
			<point x="710" y="700" type="line"/>
			<point x="573" y="700" type="line"/>
			<point x="573" y="184" type="line" smooth="yes"/>
			<point x="573" y="127"/>
			<point x="547" y="113"/>
			<point x="497" y="113" type="curve"/>
			<point x="497" y="-7" type="line"/>
			<point x="647" y="-7"/>
			<point x="711" y="28"/>
		</contour>
	</outline>
</glyph>
<glyph name="K.ss06" format="2">
  <advance width="1222"/>
  <note>
K
</note>
  <outline>
    <contour>
      <point x="44" y="904" type="line"/>
      <point x="1178" y="904" type="line"/>
      <point x="1178" y="-230" type="line"/>
      <point x="44" y="-230" type="line"/>
    </contour>
    <contour>
      <point x="603" y="281" type="line"/>
      <point x="731" y="0" type="line"/>
      <point x="886" y="0" type="line"/>
      <point x="724" y="349" type="line"/>
      <point x="882" y="700" type="line"/>
      <point x="730" y="700" type="line"/>
      <point x="603" y="401" type="line"/>
      <point x="521" y="391" type="line"/>
      <point x="521" y="700" type="line"/>
      <point x="383" y="700" type="line"/>
      <point x="383" y="0" type="line"/>
      <point x="521" y="0" type="line"/>
      <point x="521" y="271" type="line"/>
    </contour>
  </outline>
</glyph>
<glyph name="M.ss03" format="2">
	<advance width="1256"/>
	<note>
		M
	</note>
	<outline>
		<contour>
			<point x="313" y="700" type="line"/>
			<point x="313" y="0" type="line"/>
			<point x="451" y="0" type="line"/>
			<point x="451" y="546" type="line"/>
			<point x="481" y="546" type="line"/>
			<point x="559" y="0" type="line"/>
			<point x="697" y="0" type="line"/>
			<point x="775" y="546" type="line"/>
			<point x="805" y="546" type="line"/>
			<point x="805" y="0" type="line"/>
			<point x="943" y="0" type="line"/>
			<point x="943" y="700" type="line"/>
			<point x="693" y="700" type="line"/>
			<point x="620" y="110" type="line"/>
			<point x="636" y="110" type="line"/>
			<point x="563" y="700" type="line"/>
		</contour>
		<component base="_sferiliumstroke" xOffset="-2"/>
	</outline>
</glyph>
<glyph name="M.ss06" format="2">
	<advance width="1222"/>
	<note>
		M
	</note>
	<outline>
		<contour>
			<point x="44" y="904" type="line"/>
			<point x="1178" y="904" type="line"/>
			<point x="1178" y="-230" type="line"/>
			<point x="44" y="-230" type="line"/>
		</contour>
		<contour>
			<point x="269" y="700" type="line"/>
			<point x="269" y="0" type="line"/>
			<point x="402" y="0" type="line"/>
			<point x="402" y="546" type="line"/>
			<point x="431" y="546" type="line"/>
			<point x="544" y="0" type="line"/>
			<point x="677" y="0" type="line"/>
			<point x="790" y="546" type="line"/>
			<point x="819" y="546" type="line"/>
			<point x="819" y="0" type="line"/>
			<point x="952" y="0" type="line"/>
			<point x="952" y="700" type="line"/>
			<point x="711" y="700" type="line"/>
			<point x="610" y="152" type="line"/>
			<point x="510" y="700" type="line"/>
		</contour>
	</outline>
</glyph>
<glyph name="N.ss06" format="2">
	<advance width="1222"/>
	<note>
		N
	</note>
	<outline>
		<contour>
			<point x="44" y="904" type="line"/>
			<point x="1178" y="904" type="line"/>
			<point x="1178" y="-230" type="line"/>
			<point x="44" y="-230" type="line"/>
		</contour>
		<contour>
			<point x="318" y="700" type="line"/>
			<point x="318" y="0" type="line"/>
			<point x="456" y="0" type="line"/>
			<point x="456" y="580" type="line"/>
			<point x="486" y="580" type="line"/>
			<point x="656" y="0" type="line"/>
			<point x="903" y="0" type="line"/>
			<point x="903" y="700" type="line"/>
			<point x="765" y="700" type="line"/>
			<point x="765" y="120" type="line"/>
			<point x="735" y="120" type="line"/>
			<point x="568" y="700" type="line"/>
		</contour>
	</outline>
</glyph>
<glyph name="O.ss06" format="2">
  <advance width="1222"/>
  <note>
O
</note>
  <outline>
    <contour>
      <point x="44" y="904" type="line"/>
      <point x="1178" y="904" type="line"/>
      <point x="1178" y="-230" type="line"/>
      <point x="44" y="-230" type="line"/>
    </contour>
    <contour>
      <point x="611" y="108" type="curve" smooth="yes"/>
      <point x="499" y="108"/>
      <point x="467" y="179"/>
      <point x="467" y="346" type="curve" smooth="yes"/>
      <point x="467" y="511"/>
      <point x="499" y="590"/>
      <point x="611" y="590" type="curve" smooth="yes"/>
      <point x="723" y="590"/>
      <point x="755" y="511"/>
      <point x="755" y="346" type="curve" smooth="yes"/>
      <point x="755" y="179"/>
      <point x="723" y="108"/>
    </contour>
    <contour>
      <point x="611" y="-12" type="curve" smooth="yes"/>
      <point x="825" y="-12"/>
      <point x="897" y="106"/>
      <point x="897" y="346" type="curve" smooth="yes"/>
      <point x="897" y="584"/>
      <point x="825" y="710"/>
      <point x="611" y="710" type="curve" smooth="yes"/>
      <point x="397" y="710"/>
      <point x="325" y="584"/>
      <point x="325" y="346" type="curve" smooth="yes"/>
      <point x="325" y="106"/>
      <point x="397" y="-12"/>
    </contour>
  </outline>
</glyph>
<glyph name="P.ss06" format="2">
	<advance width="1222"/>
	<note>
		P
	</note>
	<outline>
		<contour>
			<point x="44" y="904" type="line"/>
			<point x="1178" y="904" type="line"/>
			<point x="1178" y="-230" type="line"/>
			<point x="44" y="-230" type="line"/>
		</contour>
		<contour>
			<point x="512" y="198" type="line"/>
			<point x="633" y="198" type="line" smooth="yes"/>
			<point x="793" y="198"/>
			<point x="875" y="285"/>
			<point x="875" y="453" type="curve" smooth="yes"/>
			<point x="875" y="621"/>
			<point x="793" y="700"/>
			<point x="633" y="700" type="curve" smooth="yes"/>
			<point x="374" y="700" type="line"/>
			<point x="374" y="0" type="line"/>
			<point x="512" y="0" type="line"/>
		</contour>
		<contour>
			<point x="632" y="316" type="curve" smooth="yes"/>
			<point x="512" y="316" type="line"/>
			<point x="512" y="582" type="line"/>
			<point x="632" y="582" type="line" smooth="yes"/>
			<point x="701" y="582"/>
			<point x="735" y="548"/>
			<point x="735" y="453" type="curve" smooth="yes"/>
			<point x="735" y="357"/>
			<point x="701" y="316"/>
		</contour>
	</outline>
</glyph>
<glyph name="Q.ss03" format="2">
  <advance width="1256"/>
  <note>
Q
</note>
  <outline>
    <contour>
      <point x="626" y="108" type="curve" smooth="yes"/>
      <point x="514" y="108"/>
      <point x="482" y="179"/>
      <point x="482" y="346" type="curve" smooth="yes"/>
      <point x="482" y="511"/>
      <point x="514" y="590"/>
      <point x="626" y="590" type="curve" smooth="yes"/>
      <point x="738" y="590"/>
      <point x="770" y="511"/>
      <point x="770" y="346" type="curve" smooth="yes"/>
      <point x="770" y="179"/>
      <point x="738" y="108"/>
    </contour>
    <contour>
      <point x="340" y="346" type="curve" smooth="yes"/>
      <point x="340" y="106"/>
      <point x="412" y="-12"/>
      <point x="626" y="-12" type="curve" smooth="yes"/>
      <point x="642" y="-12"/>
      <point x="656" y="-11"/>
      <point x="670" y="-10" type="curve"/>
      <point x="742" y="-116" type="line"/>
      <point x="857" y="-42" type="line"/>
      <point x="806" y="35" type="line"/>
      <point x="883" y="90"/>
      <point x="912" y="193"/>
      <point x="912" y="346" type="curve" smooth="yes"/>
      <point x="912" y="584"/>
      <point x="840" y="710"/>
      <point x="626" y="710" type="curve" smooth="yes"/>
      <point x="412" y="710"/>
      <point x="340" y="584"/>
    </contour>
    <component base="_sferiliumstroke" xOffset="-2"/>
  </outline>
</glyph>
<glyph name="Q.ss05" format="2">
	<advance width="1222"/>
	<note>
		Q
	</note>
	<outline>
		<contour>
			<point x="611" y="108" type="curve" smooth="yes"/>
			<point x="499" y="108"/>
			<point x="467" y="179"/>
			<point x="467" y="346" type="curve" smooth="yes"/>
			<point x="467" y="511"/>
			<point x="499" y="590"/>
			<point x="611" y="590" type="curve" smooth="yes"/>
			<point x="723" y="590"/>
			<point x="755" y="511"/>
			<point x="755" y="346" type="curve" smooth="yes"/>
			<point x="755" y="179"/>
			<point x="723" y="108"/>
		</contour>
		<contour>
			<point x="325" y="346" type="curve" smooth="yes"/>
			<point x="325" y="106"/>
			<point x="397" y="-12"/>
			<point x="611" y="-12" type="curve" smooth="yes"/>
			<point x="627" y="-12"/>
			<point x="641" y="-11"/>
			<point x="655" y="-10" type="curve"/>
			<point x="716" y="-103" type="line"/>
			<point x="831" y="-29" type="line"/>
			<point x="791" y="35" type="line"/>
			<point x="868" y="90"/>
			<point x="897" y="193"/>
			<point x="897" y="346" type="curve" smooth="yes"/>
			<point x="897" y="584"/>
			<point x="825" y="710"/>
			<point x="611" y="710" type="curve" smooth="yes"/>
			<point x="397" y="710"/>
			<point x="325" y="584"/>
		</contour>
		<component base="_quadriliumstroke" xOffset="4"/>
	</outline>
</glyph>
<glyph name="Q.ss06" format="2">
  <advance width="1222"/>
  <note>
Q
</note>
  <outline>
    <contour>
      <point x="44" y="904" type="line"/>
      <point x="1178" y="904" type="line"/>
      <point x="1178" y="-230" type="line"/>
      <point x="44" y="-230" type="line"/>
    </contour>
    <contour>
      <point x="611" y="108" type="curve" smooth="yes"/>
      <point x="499" y="108"/>
      <point x="467" y="179"/>
      <point x="467" y="346" type="curve" smooth="yes"/>
      <point x="467" y="511"/>
      <point x="499" y="590"/>
      <point x="611" y="590" type="curve" smooth="yes"/>
      <point x="723" y="590"/>
      <point x="755" y="511"/>
      <point x="755" y="346" type="curve" smooth="yes"/>
      <point x="755" y="179"/>
      <point x="723" y="108"/>
    </contour>
    <contour>
      <point x="325" y="346" type="curve" smooth="yes"/>
      <point x="325" y="106"/>
      <point x="397" y="-12"/>
      <point x="611" y="-12" type="curve" smooth="yes"/>
      <point x="627" y="-12"/>
      <point x="642" y="-11"/>
      <point x="656" y="-10" type="curve"/>
      <point x="746" y="-136" type="line"/>
      <point x="861" y="-62" type="line"/>
      <point x="792" y="35" type="line"/>
      <point x="868" y="90"/>
      <point x="897" y="194"/>
      <point x="897" y="346" type="curve" smooth="yes"/>
      <point x="897" y="584"/>
      <point x="825" y="710"/>
      <point x="611" y="710" type="curve" smooth="yes"/>
      <point x="397" y="710"/>
      <point x="325" y="584"/>
    </contour>
  </outline>
</glyph>
<glyph name="R.ss06" format="2">
  <advance width="1222"/>
  <note>
R
</note>
  <outline>
    <contour>
      <point x="44" y="904" type="line"/>
      <point x="1178" y="904" type="line"/>
      <point x="1178" y="-230" type="line"/>
      <point x="44" y="-230" type="line"/>
    </contour>
    <contour>
      <point x="727" y="465" type="curve" smooth="yes"/>
      <point x="727" y="400"/>
      <point x="699" y="356"/>
      <point x="630" y="356" type="curve" smooth="yes"/>
      <point x="502" y="356" type="line"/>
      <point x="502" y="582" type="line"/>
      <point x="628" y="582" type="line" smooth="yes"/>
      <point x="694" y="582"/>
      <point x="727" y="535"/>
    </contour>
    <contour>
      <point x="502" y="238" type="line"/>
      <point x="635" y="238" type="line"/>
      <point x="718" y="0" type="line"/>
      <point x="865" y="0" type="line"/>
      <point x="764" y="270" type="line"/>
      <point x="830" y="309"/>
      <point x="868" y="368"/>
      <point x="868" y="467" type="curve" smooth="yes"/>
      <point x="868" y="627"/>
      <point x="783" y="700"/>
      <point x="628" y="700" type="curve" smooth="yes"/>
      <point x="364" y="700" type="line"/>
      <point x="364" y="0" type="line"/>
      <point x="502" y="0" type="line"/>
    </contour>
  </outline>
</glyph>
<glyph name="S.ss06" format="2">
	<advance width="1222"/>
	<note>
		S
	</note>
	<outline>
		<contour>
			<point x="44" y="904" type="line"/>
			<point x="1178" y="904" type="line"/>
			<point x="1178" y="-230" type="line"/>
			<point x="44" y="-230" type="line"/>
		</contour>
		<contour>
			<point x="807" y="574" type="curve"/>
			<point x="818" y="683" type="line"/>
			<point x="818" y="683"/>
			<point x="695" y="710"/>
			<point x="604" y="710" type="curve" smooth="yes"/>
			<point x="466" y="710"/>
			<point x="362" y="652"/>
			<point x="362" y="506" type="curve" smooth="yes"/>
			<point x="362" y="433"/>
			<point x="388" y="369"/>
			<point x="484" y="336" type="curve" smooth="yes"/>
			<point x="622" y="288" type="line" smooth="yes"/>
			<point x="683" y="267"/>
			<point x="701" y="246"/>
			<point x="701" y="202" type="curve" smooth="yes"/>
			<point x="701" y="148"/>
			<point x="673" y="110"/>
			<point x="585" y="110" type="curve" smooth="yes"/>
			<point x="520" y="110"/>
			<point x="380" y="126"/>
			<point x="380" y="126" type="curve"/>
			<point x="366" y="19" type="line"/>
			<point x="366" y="19"/>
			<point x="490" y="-10"/>
			<point x="585" y="-10" type="curve" smooth="yes"/>
			<point x="725" y="-10"/>
			<point x="838" y="56"/>
			<point x="838" y="219" type="curve" smooth="yes"/>
			<point x="838" y="293"/>
			<point x="814" y="360"/>
			<point x="722" y="393" type="curve" smooth="yes"/>
			<point x="577" y="445" type="line" smooth="yes"/>
			<point x="515" y="467"/>
			<point x="499" y="488"/>
			<point x="499" y="520" type="curve" smooth="yes"/>
			<point x="499" y="567"/>
			<point x="534" y="590"/>
			<point x="608" y="590" type="curve" smooth="yes"/>
			<point x="666" y="590"/>
			<point x="807" y="574"/>
		</contour>
	</outline>
</glyph>
<glyph name="T.ss06" format="2">
	<advance width="1222"/>
	<note>
		T
	</note>
	<outline>
		<contour>
			<point x="44" y="904" type="line"/>
			<point x="1178" y="904" type="line"/>
			<point x="1178" y="-230" type="line"/>
			<point x="44" y="-230" type="line"/>
		</contour>
		<contour>
			<point x="352" y="700" type="line"/>
			<point x="352" y="578" type="line"/>
			<point x="542" y="578" type="line"/>
			<point x="542" y="0" type="line"/>
			<point x="680" y="0" type="line"/>
			<point x="680" y="578" type="line"/>
			<point x="870" y="578" type="line"/>
			<point x="870" y="700" type="line"/>
		</contour>
	</outline>
</glyph>
<glyph name="U.ss06" format="2">
	<advance width="1222"/>
	<note>
		U
	</note>
	<outline>
		<contour>
			<point x="44" y="904" type="line"/>
			<point x="1178" y="904" type="line"/>
			<point x="1178" y="-230" type="line"/>
			<point x="44" y="-230" type="line"/>
		</contour>
		<contour>
			<point x="490" y="229" type="curve" smooth="yes"/>
			<point x="490" y="700" type="line"/>
			<point x="352" y="700" type="line"/>
			<point x="352" y="232" type="line" smooth="yes"/>
			<point x="352" y="62"/>
			<point x="441" y="-10"/>
			<point x="611" y="-10" type="curve" smooth="yes"/>
			<point x="781" y="-10"/>
			<point x="870" y="62"/>
			<point x="870" y="232" type="curve" smooth="yes"/>
			<point x="870" y="700" type="line"/>
			<point x="732" y="700" type="line"/>
			<point x="732" y="229" type="line" smooth="yes"/>
			<point x="732" y="149"/>
			<point x="692" y="110"/>
			<point x="611" y="110" type="curve" smooth="yes"/>
			<point x="530" y="110"/>
			<point x="490" y="148"/>
		</contour>
	</outline>
</glyph>
<glyph name="V.ss06" format="2">
  <advance width="1222"/>
  <note>
V
</note>
  <outline>
    <contour>
      <point x="44" y="904" type="line"/>
      <point x="1178" y="904" type="line"/>
      <point x="1178" y="-230" type="line"/>
      <point x="44" y="-230" type="line"/>
    </contour>
    <contour>
      <point x="897" y="700" type="line"/>
      <point x="752" y="700" type="line"/>
      <point x="625" y="120" type="line"/>
      <point x="595" y="120" type="line"/>
      <point x="471" y="700" type="line"/>
      <point x="326" y="700" type="line"/>
      <point x="490" y="0" type="line"/>
      <point x="730" y="0" type="line"/>
    </contour>
  </outline>
</glyph>
